<?xml version="1.0" standalone="no"?>
<!DOCTYPE svg PUBLIC "-//W3C//DTD SVG 1.1//EN" "http://www.w3.org/Graphics/SVG/1.1/DTD/svg11.dtd" >
<svg xmlns="http://www.w3.org/2000/svg" xmlns:xlink="http://www.w3.org/1999/xlink" version="1.1">
<metadata>
Created by FontForge 20161003 at Wed Dec 14 22:34:05 2016
 By www-data
</metadata>
<defs>
<font id="INTL_ISO" horiz-adv-x="1146" >
  <font-face 
    font-family="INTL_ISO"
    font-weight="400"
    font-stretch="normal"
    units-per-em="2048"
    panose-1="2 0 4 0 0 0 0 0 0 0"
    ascent="1638"
    descent="-410"
    x-height="1114"
    cap-height="1688"
    bbox="-377 -541 2343 2343"
    underline-thickness="85"
    underline-position="-117"
    unicode-range="U+0020-E001"
  />
<missing-glyph horiz-adv-x="2048" 
 />
    <glyph glyph-name=".notdef" horiz-adv-x="2048" 
 />
    <glyph glyph-name="space" unicode=" " horiz-adv-x="983" 
 />
    <glyph glyph-name="exclam" unicode="!" horiz-adv-x="655" 
d="M213 82l-49 49v-49h49v0zM163 32l-49 49v1l-50 -50l50 -49l49 49v0v0zM114 81l49 -49v49h-49v0zM163 82h1v49h-1v-49v0zM163 82h-49v-1h49v1v0zM164 82h-1v-1h1v1v0zM164 81h-1v-49v0h1v49v0zM164 81h49v1h-49v-1v0zM164 81v-49h-1l50 -49v98h-49v0zM163 82v49h1l-50 50
v-99h49v0zM163 32l-49 -49h99l-50 49v0zM164 131h99l-50 50h-99l50 -50v0zM114 82v99l-50 -50v-99l50 50v0zM213 81v-98l50 49v99l-50 -50v0zM163 441l50 50v1147l-50 50l-50 -50v-1147l50 -50v0zM213 82v-1l50 50h-99l49 -49v0z" />
    <glyph glyph-name="quotedbl" unicode="&#x22;" horiz-adv-x="983" 
d="M73 1097l58 41l82 492l-41 57l-58 -41l-82 -491l41 -58v0zM663 1687l-57 -41l-82 -491l41 -58l57 41l82 492l-41 57v0z" />
    <glyph glyph-name="numbersign" unicode="#" horiz-adv-x="1310" 
d="M854 1114l-103 1l-22 -100l103 -1l22 100v0zM751 1115l-389 -1l-22 -99h389l22 100v0zM751 1115l103 -1l96 431l-38 60l-60 -38l-101 -452v0zM362 1114l-102 1l-22 -101l102 1l22 99v0zM260 1115h-162l-50 -50l50 -50l140 -1l22 101v0zM260 1115l102 -1l96 431l-38 60
l-60 -38l-100 -452v0zM832 1014l-103 1l-87 -392h102l88 391v0zM832 1014l151 1l50 50l-50 50l-129 -1l-22 -100v0zM340 1015l-102 -1l-87 -391h102l87 392v0zM744 623h-102l-22 -100h102l22 100v0zM642 623h-389l-22 -100h389l22 100v0zM253 623h-102l-23 -100h103l22 100
v0zM151 623h-135l-49 -50l49 -50h112l23 100v0zM722 523h-102l-96 -431l38 -59l60 38l100 452v0zM722 523h179l50 50l-50 50h-157l-22 -100v0zM231 523h-103l-95 -431l38 -59l59 38l101 452v0z" />
    <glyph glyph-name="dollar" unicode="$" horiz-adv-x="1310" 
d="M541 748l249 -3l47 -8l-2 14l-294 103v-106v0zM790 745l-249 3l246 -86l-9 13l12 70v0zM32 1120l148 -140l21 -7l-70 167l-49 71l-30 71l-20 -21v-141v0zM180 980l-148 140l85 -206l16 1l-17 35l64 30v0zM92 1342l-10 -31l50 -50l-1 -21l38 39l63 95l51 39l50 11l108 1v5
l-281 13l-68 -101v0zM82 1311l10 31l-46 -46l6 -14l30 29v0zM82 1211l49 -71v86h-14l-35 -15v0zM901 639l-99 18l-15 5l64 -89v16l50 50v0zM802 657l99 -18l34 -34l6 13l-82 115l-22 4l11 -74l-46 -6v0zM851 464l50 75l-41 21l-9 13v-109v0zM901 539l-50 -75l-14 -54
l-29 -58l-58 -89l-51 -38l-50 -12l173 -18l73 107l36 73l19 77l1 137l-16 16l-34 -66v0zM441 1524h100v114l-50 50l-50 -50v-114v0zM441 1524h-120l-81 -21l-80 -60l281 -13v94v0zM541 1524h-100v-94l100 -4v98v0zM541 1426l25 -1l150 -46l241 -144l68 17l-17 68l-251 151
l-177 53h-39v-98v0zM541 1426l-100 4v-5h100v1v0zM541 1425h-100v-196l100 1v195v0zM541 1425h25l-25 1v-1v0zM541 1230l-100 -1v-340l100 -35v376v0zM131 1240l-14 -14h14v14v0zM52 1282l30 -71l35 15l14 14l1 21l-50 50l-30 -29v0zM201 973l8 -20l1 -36l-77 -2l14 -29
l294 -103v106l-240 84v0zM133 915l77 2l-1 36l-8 20l-21 7l-64 -30l17 -35v0zM541 854l-100 35v-106l100 -35v106v0zM837 737l-47 8l-12 -70l9 -13l15 -5l46 6l-11 74v0zM541 748l-100 35v-568l100 4v529v0zM935 605l-34 34l-50 -50v-16l9 -13l41 -21l34 66v0zM541 219
l-100 -4v-2h100v6v0zM416 214l-7 -1h7v1v0zM416 213h-7l-48 -35l43 -58l37 20v38l-18 33l-7 2v0zM441 213h-25l7 -2l18 -33v35v0zM541 213h-100v-35l16 -29l-16 -9v-27h100v100v0zM416 214l-150 44l-241 145l-67 -17l17 -69l250 -150l170 -52l9 5l-43 58l48 35l7 1v0z
M441 140l-37 -20l5 -7h32v27v0zM441 140l16 9l-16 29v-38v0zM541 113h-100v-113l50 -50l50 50v113v0zM541 113l120 1l81 21l80 60l-173 18h-108v-100v0z" />
    <glyph glyph-name="percent" unicode="%" horiz-adv-x="2457" 
d="M2050 459l-59 8l5 -29l1 -29l1 3l52 47v0zM681 1286l58 -8l45 -50l3 3l-2 37l-7 39l-10 38l-14 37l-18 35l-21 33l-25 31l-28 28l-253 -3l29 -2l29 -4l28 -8l27 -10l26 -13l24 -16l23 -18l20 -21l19 -22l15 -25l14 -26l10 -27l8 -28v0zM739 1278l-58 8l4 -29l2 -29v3
l52 47v0zM734 1175l5 3l-52 48v2l-2 -29l-4 -29l-8 -28l1 3l60 30v0zM739 1178l-5 -3l32 -63l3 2l9 36l7 39l2 37l-3 2l-45 -50v0zM754 1074l-46 5l-36 61l1 2l-10 -27l-14 -26l-15 -24l-19 -23l-20 -20l-23 -18l-24 -16l-26 -13l-27 -11l-28 -7l-29 -5l-29 -2l253 -2l28 27
l25 31l21 33l18 35v0zM708 1079l46 -5l13 35l-1 3l-58 -33v0zM2044 356l6 3l-52 47l-1 3l-1 -29l-5 -29l-7 -28l1 3l59 30v0zM2050 359l-6 -3l33 -63l3 2l9 35l6 39l2 37l-2 3l-45 -50v0zM2065 255l-47 4l-35 62l1 2l-11 -27l-13 -26l-16 -24l-18 -23l-21 -20l-22 -19
l-25 -15l-25 -14l-28 -10l-27 -8l-29 -4l-29 -2l252 -3l28 28l25 31l22 33l18 35v0zM2018 259l47 -4l13 35l-1 3l-59 -34v0zM256 1571l64 -21l-22 -67l-2 -1l27 10l28 8l29 4l29 2l253 3l-31 25l-33 21l-35 18l-37 14l-39 11l-38 6l-40 2l-40 -2l-38 -6l-39 -11l-34 -13
l-2 -3v0zM256 1571l-3 1l-33 -17l-33 -21l-31 -25l-28 -28l-25 -31l-21 -33l-18 -35l-14 -37l-10 -38l-7 -39l-2 -40l2 -39l7 -39l10 -39l14 -37l18 -35l21 -33l25 -31l26 -26l4 1l-7 66l70 8h1l-19 18l-19 23l-15 24l-14 26l-10 27l-8 28l-4 29l-2 29l2 29l4 29l8 28l10 27
l14 26l15 25l19 22l20 21l23 18l24 16l24 12v0l-63 24l25 66v0zM256 1571l-25 -66l63 -24l2 1l2 1l22 67l-64 21v0zM296 1482l-2 -1v0l2 1v0zM784 1228l-45 50l-52 -47v-3v-2l52 -48l45 50v0zM673 1142l-1 -2l36 -61l58 33l-32 63l-60 -30l-1 -3v0zM222 1024h-1l2 -2l-1 2v0
zM223 1022l2 -2l4 -67l-71 -3v-4l29 -23l33 -22l35 -18l37 -14l39 -10l38 -6l40 -2l40 2l38 6l39 10l37 14l35 18l33 22l31 25l-253 2l-29 2l-29 5l-28 7l-27 11l-26 13l-24 16l-23 18v0zM223 1022l-2 2l-70 -8l7 -66l71 3l-4 67l-2 2v0zM1567 752l64 -21l-22 -67l-2 -1
l27 10l28 8l29 4l29 2l252 3l-30 25l-34 21l-35 18l-37 14l-38 10l-39 7l-39 2l-40 -2l-39 -7l-38 -10l-35 -13l-1 -3v0zM1567 752l-3 1l-33 -17l-33 -21l-31 -25l-28 -28l-25 -31l-21 -33l-18 -35l-14 -37l-11 -39l-6 -38l-2 -40l2 -40l6 -38l11 -39l14 -37l18 -35l21 -33
l25 -31l26 -26h4l-7 67l70 7v0l-19 19l-18 23l-16 24l-13 26l-10 27l-8 28l-4 29l-2 29l2 29l4 29l8 28l10 27l13 26l16 24l18 23l21 20l22 19l25 15l24 13v0l-63 24l25 66v0zM1567 752l-25 -66l63 -24l2 1l2 1l22 67l-64 21v0zM1607 663l-2 -1v0l2 1v0zM1997 409l1 -3
l52 -47l45 50l-45 50l-52 -47l-1 -3v0zM2095 409l2 3l-2 37l-6 39l-10 38l-14 37l-18 35l-22 33l-25 31l-28 28l-252 -3l29 -2l29 -4l27 -8l27 -10l27 -14l24 -15l22 -19l21 -20l18 -23l16 -24l13 -26l11 -27l7 -28l59 -8l45 -50v0zM1984 323l-1 -2l35 -62l59 34l-33 63
l-59 -30l-1 -3v0zM1532 204v0l2 -1l-2 1v0zM1534 203l2 -2l3 -67l-70 -4v-3l29 -24l33 -21l35 -18l37 -14l38 -10l39 -7l40 -2l39 2l39 7l38 10l38 14l35 18l33 21l30 25l-252 3l-29 2l-29 4l-28 8l-27 10l-26 14l-25 15l-22 19v0zM1534 203l-2 1l-70 -7l7 -67l70 4l-3 67
l-2 2v0zM547 -42l69 17l983 1637l-17 69l-69 -17l-983 -1639l17 -67v0z" />
    <glyph glyph-name="ampersand" unicode="&#x26;" horiz-adv-x="1474" 
d="M746 237l60 52l-332 638l-82 -60l337 -645l7 6l10 9v0zM324 1207h-53l66 -21l1 2l-14 19v0zM271 1207h53l-10 18l-7 19l-6 20l-4 20l-2 20l1 21l2 20l5 20l7 20l9 18l10 17l13 17l14 15l15 13l17 12l18 9l19 8l18 6h-1l-58 40l37 55l-3 2l-27 -8l-28 -12l-27 -15l-26 -18
l-23 -20l-22 -23l-18 -24l-17 -27l-13 -28l-10 -29l-7 -30l-4 -31l-1 -30l3 -31l6 -31l8 -30l13 -28l14 -27l12 -18l-1 3l21 67v0zM687 1316l57 -1l35 -57l3 2l4 28v31l-2 31l-6 30l-9 30l-12 28l-14 28l-18 25l-20 23l-220 -8l21 -1l20 -2l20 -5l19 -7l19 -9l17 -10l17 -13
l14 -14l14 -15l12 -17l9 -18l8 -19l6 -20l4 -20l2 -20v0zM744 1315l-57 1l-1 -21l-3 -20l1 3l60 37v0zM663 1217h58l-38 55v3l-4 -20l-7 -19l-9 -19v0zM721 1217h-58l-10 -17l-13 -16l-14 -15l-17 -15v0l69 -10l-9 -70v0l4 3l22 19l21 23l19 24l16 27l14 28l10 29l6 27l-2 4
l-58 -41v0zM427 1017l-102 102l-70 13l-4 5l95 -181l81 61v0zM325 1119l102 -102l-88 169h-2l-12 -67v0zM607 151l144 9v19l-22 43l-22 -19l-32 -21l-33 -17l-35 -14v0zM751 160l-144 -9l-36 -11l-37 -6l-38 -3l271 -8l9 8l-15 29h-10v0zM421 1595l61 -37l-35 -57l-2 -1
l20 4l20 2l220 8l-23 22l-24 18l-27 17l-28 13l-29 10l-30 7l-31 4l-31 1l-30 -3l-29 -5l-2 -3v0zM421 1595l-37 -55l58 -40h3l2 1l35 57l-61 37v0zM445 1500h-3h1h2v0zM683 1275v-3l38 -55l58 41l-35 57l-60 -37l-1 -3v0zM337 1186l-66 21l-21 -67l1 -3l4 -5l70 -13l12 67
v0zM609 1154l-2 -1l-8 -70l70 -9l9 70l-69 10v0zM609 1154h-1l-181 -137l47 -90l195 147v0l-70 9l8 70l2 1v0zM427 1017l-81 -61l46 -89l82 60l-47 90v0zM346 956l-131 -97v-2l68 -6l-6 -71l-2 -1v0l117 88l-46 89v0zM215 857h-2l-35 -29l-33 -35l-30 -37l-26 -41l-21 -43
l-16 -46l-12 -46l-7 -48l-2 -48l4 -48l8 -47l13 -47l18 -44l22 -43l27 -40l31 -37l35 -33l37 -30l39 -24l3 1l-21 63l66 23h1l-30 19l-30 23l-27 26l-24 29l-21 31l-17 34l-14 35l-11 36l-6 37l-3 38l2 37l5 37l9 37l13 35l17 34l20 32l23 29l26 28l29 24l-70 10l10 68v0z
M215 857l-10 -68l70 -10l2 1l6 71l-68 6v0zM756 237l61 -1l-2 -71l-4 -4l11 1l33 34l-49 93l-50 -52v0zM756 237h-10l-10 -9l-7 -6l22 -43l-1 52l6 6v0zM756 237l-6 -6l1 -52l10 -19l50 1l4 4l2 71l-61 1v0zM756 237l50 52l-60 -52h10v0zM314 178h-1l3 -1l-2 1v0zM316 177
l2 -2l18 -64l-68 -19l2 -4l40 -20l46 -16l46 -12l48 -7l48 -2l48 4l47 8l46 13l45 18l43 22l40 27l-271 8l-37 2l-37 5l-37 9l-35 13l-34 17v0zM855 196l-33 -34l-11 -1l-8 -8l-27 -22l80 -154l68 -21l21 67l-90 173v0zM855 196l327 342l-1 71l-71 -2l-304 -318l49 -93v0z
M316 177l-3 1l-66 -23l21 -63l68 19l-18 64l-2 2v0zM751 179v-19h10l-10 19v0zM811 161l-50 -1l15 -29l27 22l8 8v0z" />
    <glyph glyph-name="quotesingle" unicode="'" horiz-adv-x="491" 
d="M73 1097l58 41l82 492l-41 57l-58 -41l-82 -491l41 -58v0z" />
    <glyph glyph-name="parenleft" unicode="(" horiz-adv-x="655" 
d="M260 -211l33 63l-81 250l-53 255l-26 259l1 261l28 259l56 255l75 231l-32 63l-63 -32l-77 -236l-57 -265l-30 -269l-1 -272l27 -270l56 -265l81 -255l63 -32v0z" />
    <glyph glyph-name="parenright" unicode=")" horiz-adv-x="655" 
d="M66 -211l63 32l82 255l55 265l27 270l-1 272l-29 269l-57 265l-77 236l-63 32l-32 -63l75 -231l55 -255l29 -259l1 -261l-27 -259l-53 -255l-80 -250l32 -63v0z" />
    <glyph glyph-name="asterisk" unicode="*" 
d="M530 623h-71v-29l21 -21l50 50v0zM459 623h-29l29 -29v29v0zM459 623h71l324 324v71h-71l-324 -324v-71v0zM430 623h-42l-29 -29v-42l29 -29h42l29 29v42l-29 29v0zM430 623h29v71l-50 -50l21 -21v0zM388 623h-29v-29l29 29v0zM388 623h42l-21 21l-21 -21v0zM359 623h-71
l50 -50l21 21v29v0zM359 623h29l21 21l-50 50v-71v0zM288 623h-288l-50 -50l50 -50h288l50 50l-50 50v0zM288 623h71v71l-324 324h-70v-71l323 -324v0zM530 523h-71v-71l324 -324h71v71l-324 324v0zM530 523h289l50 50l-50 50h-289l-50 -50l50 -50v0zM459 523h-29l-21 -21
l50 -50v71v0zM459 523h71l-50 50l-21 -21v-29v0zM430 523h-42l21 -21l21 21v0zM430 523h29v29l-29 -29v0zM388 523h-29v-71l50 50l-21 21v0zM359 523h-71l-323 -324v-71h70l324 324v71v0zM359 523h29l-29 29v-29v0zM288 523h71v29l-21 21l-50 -50v0zM359 694l50 -50l50 50
v289l-50 50l-50 -50v-289v0zM480 573l-21 21v-42l21 21v0zM359 594l-21 -21l21 -21v42v0zM359 452v-289l50 -50l50 50v289l-50 50l-50 -50v0z" />
    <glyph glyph-name="plus" unicode="+" 
d="M459 623h-100v-100h100v100v0zM359 623h-359l-50 -50l50 -50h359v100v0zM359 623h100v360l-50 50l-50 -50v-360v0zM459 523h-100v-360l50 -50l50 50v360v0zM459 523h360l50 50l-50 50h-360v-100v0z" />
    <glyph glyph-name="comma" unicode="," horiz-adv-x="655" 
d="M178 80h-13l5 -4l8 4v0zM213 181l-49 -50v-49h49v99v0zM164 131l49 50l-50 -50h1v0zM154 22l9 10v40l-1 -1l-8 -49v0zM163 32l-9 -10l10 10h-1v0zM200 -17h-86l-14 15l-147 -474l33 -63l61 33l153 489v0zM114 -17h86h-37h-49v0zM164 82h-1h1v0v0zM163 82h-49v-1h49v1v0z
M163 82v0h1v49h-1v-49v0zM165 80l-1 1v-8l6 3l-5 4v0zM165 80l48 1v1h-49v0l1 -2v0zM164 81h-1v-4v-5l1 1v8v0zM164 81l1 -1l-1 2v-1v0zM163 81v0v-4v4v0zM163 81h1v1h-1v-1v0zM163 81h-49v-39l2 5l46 24l1 6v4v0zM163 81v0v1v0v-1v0zM170 76l-6 -3v-41h39l-11 21l-22 23v0z
M164 73l-1 -1v-40h1v41v0zM162 71l-46 -24l-2 -5v-59l40 39l8 49v0zM162 71l1 1v5l-1 -6v0zM170 76l22 -23l-14 27l-8 -4v0zM192 53l21 -21h50l-50 50v-1l-48 -1h13l14 -27v0zM203 32h-39l-10 -10l-6 -36l15 -3l44 43l-4 6v0zM203 32h10l-21 21l11 -21v0zM163 82v49h-99
l50 -50v1h49v0zM203 32l4 -6l6 6h-10v0zM207 26l4 -9l-11 -34h13l50 49h-50l-6 -6v0zM207 26l-44 -43h37l11 34l-4 9v0zM114 42v39l-50 50v-99l36 -34l14 44v0zM154 22l-40 -39h49l-15 3l6 36v0zM100 -2l14 -15v59l-14 -44v0zM64 131h99l50 50h-99l-50 -50v0zM213 181v-99
l50 -50v99l-50 50v0z" />
    <glyph glyph-name="hyphen" unicode="-" 
d="M-50 573l50 -50h819l50 50l-50 50h-819l-50 -50v0z" />
    <glyph glyph-name="period" unicode="." horiz-adv-x="655" 
d="M114 32h99v99h-99v-99v0z" />
    <glyph glyph-name="slash" unicode="/" horiz-adv-x="1474" 
d="M56 -42l68 17l983 1637l-17 69l-68 -17l-983 -1639l17 -67v0z" />
    <glyph glyph-name="zero" unicode="0" 
d="M358 145l-152 4l34 -39l38 -33l37 -22l6 2l-27 57l64 31v0zM533 1426l71 -16l67 -22l1 3l-28 50l-32 47l-34 40l-169 -22l23 -3l24 -8l25 -16l26 -22l26 -31v0zM604 1410l-71 16l26 -37l24 -45v2l21 64v0zM243 1530h66l4 -71l-2 -2l26 22l25 16l24 8l23 3l169 22l-38 32
l-41 25l-44 16l-46 5l-46 -5l-44 -16l-41 -25l-35 -30v0zM309 1530h-66v-5l66 5v0zM606 1293l46 30l-68 19l-1 2l23 -51v0zM652 1323l-46 -30l21 -56l17 -62l15 -66l12 -70l9 -72l5 -74l2 -74l-2 -75l-5 -74l-9 -72l-12 -70l-15 -66l-17 -61l-21 -57l-23 -51l-24 -45
l-26 -37l-26 -30l-26 -23l-25 -15l-24 -9l-23 -2l6 -1l44 -56l-50 -39l6 -4l40 5l44 15l41 25l38 33l34 39l32 47l29 53l26 58l23 63l19 67l16 72l13 75l9 77l6 78l2 80l-2 79l-6 79l-9 77l-13 74l-16 72l-19 67l-23 64l-25 56l-3 1l-19 -65v0zM243 1525h-5l-32 -37l-32 -47
l-29 -52l-26 -58l-23 -64l-19 -67l-16 -72l-13 -74l-9 -77l-6 -79l-2 -80l2 -79l6 -78l9 -77l13 -75l16 -72l19 -67l23 -63l26 -58l29 -53l32 -47l152 -4l5 -2l-26 15l-26 23l-26 30l-26 37l-24 45l-23 51l-21 57l-17 61l-15 66l-12 70l-9 72l-5 74l-2 75l2 74l5 74l9 72
l12 70l15 66l17 62l21 56l23 51l24 45l26 37l24 28h-1h-65v71v0zM243 1525v-71h65l3 3l2 2l-4 71l-66 -5v0zM311 1457l-3 -3h1l2 3v0zM671 1388l-67 22l-21 -64v-2l1 -2l68 -19l19 65v0zM363 143l4 -3l13 -38l23 29l6 1l-23 2l-23 9v0zM363 143l-5 2l-64 -31l27 -57l43 15
l-5 4l21 26l-13 38l-4 3v0zM409 132l-6 -1l-23 -29l8 -21l-24 -9l45 -36l50 39l-44 56l-6 1v0zM380 102l-21 -26l5 -4l24 9l-8 21v0zM364 72l-43 -15l3 -7l39 -13l40 -5l6 4l-45 36v0z" />
    <glyph glyph-name="one" unicode="1" horiz-adv-x="819" 
d="M444 1638h-85l15 -35l70 29v6v0zM444 1638v35h-70l-409 -409v-71h70l324 324v121h85v0zM444 1632v-29l-67 -68l82 -1535v1638l-15 -6v0zM444 1632l-70 -29l3 -68l67 68v29v0zM377 1535l-18 -18v-1517l50 -50l50 50l-82 1535v0zM359 1517l18 18l-3 68l-15 35v-121v0z" />
    <glyph glyph-name="two" unicode="2" 
d="M764 1099l-50 -9l15 -63l1 2l18 33l16 37v0zM714 1090l50 9l11 38l8 38l3 40v39l-5 40l-9 38l-13 37l-16 36l-21 34l-24 32l-27 29l-27 24h-4l9 -71l-67 -8v0l20 -17l20 -21l17 -24l15 -25l13 -26l9 -27l6 -29l4 -29l1 -29l-3 -29l-6 -28l-8 -28l-11 -27l-15 -26l-2 -4
l1 -5l2 4l69 15v0zM172 132l486 876l-15 63l-604 -963l16 -69l31 7l22 78l-26 8h90v0zM658 1008l-486 -876l558 890l-1 5l-2 -3l-69 -16v0zM640 1524l-67 -5l5 -70l2 -2l2 -2l67 8l-9 71v0zM640 1524v3l-31 21l-34 20l-37 15l-37 12l-39 7l-40 4l-39 -1l-39 -5l-39 -9
l-37 -13l-36 -16l-34 -21l-32 -23l253 -12l29 -3l28 -5l28 -9l27 -11l25 -14l24 -17l-2 2l-5 70l67 5v0zM582 1445v0l-2 2l2 -2v0zM729 1027l-15 63l-69 -15l-2 -4l15 -63l69 16l2 3v0zM172 132h-90l26 -8l-22 -78l38 9l48 77v0zM172 132l-48 -77l-38 -9l-4 -14h737l50 50
l-50 50h-647v0zM419 1506l-253 12l-28 -27l-26 -30l-23 -32l-19 -35l-16 -36l-11 -36l34 -62l62 33l9 30l11 27l15 26l16 23l19 22l22 20l23 17l25 16l26 12l28 9l28 7l29 3l29 1v0z" />
    <glyph glyph-name="three" unicode="3" 
d="M681 631l56 -8l48 -49l2 2l-2 36l-7 39l-10 39l-14 37l-18 35l-21 33l-25 31l-28 27l-31 25l-33 22l-1 1l-34 -18l-37 -14l-39 -10l-38 -6l-37 -2l26 -2l29 -5l28 -7l27 -11l26 -13l24 -15l23 -19l20 -20l19 -23l15 -24l14 -26l10 -27l8 -28v0zM737 623l-56 8l4 -29
l2 -30v1l50 50v0zM409 951l3 -1l37 -2l38 -6l39 -10l37 -14l34 -17h1l33 22l31 25l28 27l25 31l21 33l18 35l14 37l10 39l7 39l2 39l-2 40l-7 39l-10 38l-13 35l-3 1l-21 -64l-58 -3l8 -28l4 -29l2 -29l-2 -29l-4 -29l-8 -28l-10 -27l-14 -26l-15 -24l-19 -23l-20 -20
l-23 -18l-24 -16l-26 -13l-27 -11l-28 -7l-29 -5l-29 -1v0zM412 950l-3 1l1 -2l2 1v0zM615 1414l71 -8l66 -25l1 3l-17 33l-21 33l-25 31l-28 28l-31 25l-33 21l-35 18l-37 14l-39 11l-38 6l-37 2l-2 -1l49 -49l-50 -50h-1l30 -2l29 -4l28 -8l27 -10l26 -13l24 -16l23 -18
l20 -21v0zM686 1406l-71 8l19 -22l15 -25l14 -26l-1 2l24 63v0zM673 1314l58 3l-67 22l-1 2l10 -27v0zM438 849l-26 2l-2 1l-1 -1h-3v0l32 -2v0zM739 459v64l-52 47v2v-162v2l52 47v0zM739 523v-64l46 -51l2 1v164l-2 1l-46 -51v0zM681 351l56 8l-50 50v1l-2 -30l-4 -29v0z
M737 359l-56 -8l-8 -28l-10 -27l-14 -26l-15 -24l-19 -23l-20 -20l-23 -19l-24 -15l-26 -14l-27 -10l-28 -8l-29 -4l-29 -2l50 -49l-49 -49l2 -2l37 2l38 7l39 10l37 14l35 18l33 21l31 25l28 28l25 31l21 33l18 35l14 37l10 39l7 38l2 37l-2 2l-48 -49v0zM410 1605l-51 -46
l47 -53h2h1l50 50l-49 49v0zM410 1605l-1 1h-409l-50 -50l50 -50h408h-2l-47 53l51 46v0zM752 1381l-66 25l-24 -63l1 -2l1 -2l67 -22l21 64v0zM409 951l-3 -1l-23 -25l27 24l-1 2v0zM410 949l-27 -24l-22 -24l24 -26l25 -23l49 49l-49 48v0zM383 925l-24 -22l2 -2l22 24v0z
M409 951v0h-246l-50 -50l50 -50h243l-21 24l-26 23l2 3l-2 2l24 22l23 25l3 1v0zM410 949l49 -48l-49 -49l2 -1l37 2l38 6l39 10l37 14l34 18l-34 17l-37 14l-39 10l-38 6l-37 2l-2 -1v0zM361 901l-2 -3l26 -23l-24 26v0zM406 851h3l1 1l-25 23l21 -24v0zM785 574l-48 49
l-50 -50v-1v-2l52 -47l46 51v0zM687 410v-1l50 -50l48 49l-46 51l-52 -47v-2v0zM409 131h-3l-47 -52l51 -46l49 49l-50 49v0zM409 131v1h-409l-50 -50l50 -50h409l1 1l-51 46l47 52h3v0z" />
    <glyph glyph-name="four" unicode="4" horiz-adv-x="1310" 
d="M705 459h-100v-100h100v100v0zM605 459h-458l-17 -63l-47 -27l-1 -10h523v100v0zM605 459h100v360l-50 50l-50 -50v-360v0zM147 459h-65l12 -2l-11 -88l47 27l17 63v0zM147 459l310 1166l-35 61l-61 -35l-328 -1229l36 -61l14 8l11 88l-12 2h65v0zM705 359h-100v-359
l50 -50l50 50v359v0zM705 359h278l50 50l-50 50h-278v-100v0z" />
    <glyph glyph-name="five" unicode="5" 
d="M681 631l56 -8l48 -49l2 2l-2 36l-7 39l-10 39l-14 37l-18 35l-21 33l-25 31l-28 27l-31 25l-33 22l-35 18l-37 14l-39 10l-38 6l-37 2l-2 -1l49 -48l-50 -50h-3v0l32 -2l29 -5l28 -7l27 -11l26 -13l24 -15l23 -19l20 -20l19 -23l15 -24l14 -26l10 -27l8 -28v0zM737 623
l-56 8l4 -29l2 -30v1l50 50v0zM132 951l-50 555v100l-50 -50v-655l50 50h50v0zM82 1506l50 -555v555h-50v0zM739 459v64l-52 47v2v-162v2l52 47v0zM739 523v-64l46 -51l2 1v164l-2 1l-46 -51v0zM681 351l56 8l-50 50v1l-2 -30l-4 -29v0zM737 359l-56 -8l-8 -28l-10 -27
l-14 -26l-15 -24l-19 -23l-20 -20l-23 -19l-24 -15l-26 -14l-27 -10l-28 -8l-29 -4l-29 -2l50 -49l-49 -49l2 -2l37 2l38 7l39 10l37 14l35 18l33 21l31 25l28 28l25 31l21 33l18 35l14 37l10 39l7 38l2 37l-2 2l-48 -49v0zM132 1506h687l50 50l-50 50h-737l50 -50v-50v0z
M132 951h-50l-50 -50h100v50v0zM410 949l-51 -46l47 -52h3l50 50l-49 48v0zM410 949l-1 2h-277v-50h-100l50 -50h324l-47 52l51 46v0zM132 1506v50l-50 50v-100h50v0zM785 574l-48 49l-50 -50v-1v-2l52 -47l46 51v0zM687 410v-1l50 -50l48 49l-46 51l-52 -47v-2v0zM409 131
h-3l-47 -52l51 -46l49 49l-50 49v0zM409 131v1h-409l-50 -50l50 -50h409l1 1l-51 46l47 52h3v0z" />
    <glyph glyph-name="six" unicode="6" 
d="M737 623l-56 8l4 -29l2 -30v1l50 50v0zM38 894l44 -25l18 -18h34l5 54l9 46h-66l-43 -43l-1 -14v0zM82 869l-44 25l35 -34l9 9v0zM34 821l48 30l-9 9l-39 -39v0zM82 851l-48 -30l43 -52l54 45v5l-31 32h-18v0zM79 459l-2 310l-43 52l-2 -2v-410l1 -1l46 51v0zM77 769
l2 -310l52 -47v-3h1v410h-1v-5l-54 -45v0zM739 459v64l-52 47v2v-162v2l52 47v0zM739 523v-64l46 -51l2 1v164l-2 1l-46 -51v0zM681 351l56 8l-50 50v1l-2 -30l-4 -29v0zM737 359l-56 -8l-8 -28l-10 -27l-14 -26l-15 -24l-19 -23l-20 -20l-23 -19l-24 -15l-24 -13v0l63 -24
l-25 -66l3 -1l33 17l33 21l31 25l28 28l25 31l21 33l18 35l14 37l10 39l7 38l2 37l-2 2l-48 -49v0zM137 351l-55 8l-49 49l-2 -2l2 -37l7 -38l10 -39l14 -37l18 -35l21 -33l25 -31l28 -28l253 3l-29 2l-29 4l-28 8l-27 10l-26 14l-24 15l-23 19l-20 20l-19 23l-15 24l-14 26
l-10 27l-8 28v0zM82 359l55 -8l-4 29l-2 29l-49 -50v0zM148 951l-9 -46l-5 -54h272l-47 52l51 46l-1 2h-261v0zM148 951l8 43l27 87l35 84l44 80l52 75l60 69l66 62l73 55l78 47l85 40l24 66l-67 24l-89 -42l-87 -52l-81 -62l-74 -69l-67 -77l-58 -83l-49 -89l-39 -94
l-30 -97l-19 -100l-1 -10l43 43h66v0zM410 949l-51 -46l47 -52h3l50 50l-49 48v0zM410 949l49 -48l-50 -50h-3v0l32 -2l29 -5l28 -7l27 -11l26 -13l24 -15l23 -19l20 -20l19 -23l15 -24l14 -26l10 -27l8 -28l56 -8l48 -49l2 2l-2 36l-7 39l-10 39l-14 37l-18 35l-21 33
l-25 31l-28 27l-31 25l-33 22l-35 18l-37 14l-39 10l-38 6l-37 2l-2 -1v0zM39 908l-7 -7l6 -7l1 14v0zM134 851h-34l31 -32l3 32v0zM73 860l9 -9h18l-18 18l-9 -9v0zM73 860l-35 34l-7 -71l3 -2l39 39v0zM785 574l-48 49l-50 -50v-1v-2l52 -47l46 51v0zM687 410v-1l50 -50
l48 49l-46 51l-52 -47v-2v0zM131 409v3l-52 47l-46 -51l49 -49l49 50v0zM524 156l-2 -1l2 1v0v0zM522 155l-2 -1l-22 -67l64 -21l25 66l-63 24l-2 -1v0zM522 155l-27 -10l-28 -8l-29 -4l-29 -2l-253 -3l31 -25l33 -21l35 -18l37 -14l39 -10l38 -7l40 -2l40 2l38 7l39 10
l34 13l2 3l-64 21l22 67l2 1v0z" />
    <glyph glyph-name="seven" unicode="7" 
d="M817 1595l-46 -24l-21 -65h69l-15 2l13 87v0zM817 1595l-13 -87l15 -2h-69l-175 -555h105l186 590l-32 63l-17 -9v0zM817 1595l2 11h-819l-50 -50l50 -50h750l21 65l46 24v0zM680 951h-105l-31 -100h104l32 100v0zM575 951h-248l-50 -50l50 -50h217l31 100v0zM648 851
h-104l-265 -836l33 -62l63 32l273 866v0zM648 851h171l50 50l-50 50h-139l-32 -100v0z" />
    <glyph glyph-name="eight" unicode="8" 
d="M82 623l55 8l8 28l10 27l14 26l15 24l19 23l20 20l23 19l24 15l24 12v0l-63 25l15 38l-25 13l-1 -1l-33 -22l-31 -25l-28 -27l-25 -31l-21 -33l-18 -35l-14 -37l-10 -39l-7 -39l-2 -36l2 -2l49 49v0zM681 631l56 -8l48 -49l2 2l-2 36l-7 39l-10 39l-14 37l-18 35l-21 33
l-25 31l-28 27l-253 -2v0v0l29 -2l29 -5l28 -7l27 -11l26 -13l24 -15l23 -19l20 -20l19 -23l15 -24l14 -26l10 -27l8 -28v0zM737 623l-56 8l4 -29l2 -30v1l50 50v0zM258 919l-5 -2l3 -1l2 3v0zM253 917l5 2l34 13l39 10l38 6l40 2v0l-29 2l-29 5l-28 7l-27 11l-26 13l-24 16
l-23 18l2 -2l4 -67l-71 -3v-4l29 -23l33 -22h1l32 16v0zM409 950v0l40 -2l38 -6l39 -10l37 -14l34 -17h1l33 22l31 25l-253 2v0zM681 1286l58 -8l45 -50l3 3l-2 37l-7 39l-10 38l-14 37l-18 35l-21 33l-25 31l-28 28l-253 -3l29 -2l29 -4l28 -8l27 -10l26 -13l24 -16l23 -18
l20 -21l19 -22l15 -25l14 -26l10 -27l8 -28v0zM739 1278l-58 8l4 -29l2 -29v3l52 47v0zM734 1175l5 3l-52 48v2l-2 -29l-4 -29l-8 -28l1 3l60 30v0zM739 1178l-5 -3l32 -63l3 2l9 36l7 39l2 37l-3 2l-45 -50v0zM754 1074l-46 5l-36 61l1 2l-10 -27l-14 -26l-15 -24l-19 -23
l-20 -20l-23 -18l-24 -16l-26 -13l-27 -11l-28 -7l-29 -5l-29 -2l253 -2l28 27l25 31l21 33l18 35v0zM708 1079l46 -5l13 35l-1 3l-58 -33v0zM409 851v0v0v0v0zM739 459v64l-52 47v2v-162v2l52 47v0zM739 523v-64l46 -51l2 1v164l-2 1l-46 -51v0zM79 459v64l-46 51l-1 -1
v-164l1 -1l46 51v0zM79 523v-64l52 -47v-3h1v164h-1v-3l-52 -47v0zM681 351l56 8l-50 50v1l-2 -30l-4 -29v0zM737 359l-56 -8l-8 -28l-10 -27l-14 -26l-15 -24l-19 -23l-20 -20l-23 -19l-24 -15l-24 -13v0l63 -24l-25 -66l3 -1l33 17l33 21l31 25l28 28l25 31l21 33l18 35
l14 37l10 39l7 38l2 37l-2 2l-48 -49v0zM137 351l-55 8l-49 49l-2 -2l2 -37l7 -38l10 -39l14 -37l18 -35l21 -33l25 -31l28 -28l253 3l-29 2l-29 4l-28 8l-27 10l-26 14l-24 15l-23 19l-20 20l-19 23l-15 24l-14 26l-10 27l-8 28v0zM82 359l55 -8l-4 29l-2 29l-49 -50v0z
M256 1571l64 -21l-22 -67l-2 -1l27 10l28 8l29 4l29 2l253 3l-31 25l-33 21l-35 18l-37 14l-39 11l-38 6l-40 2l-40 -2l-38 -6l-39 -11l-34 -13l-2 -3v0zM256 1571l-3 1l-33 -17l-33 -21l-31 -25l-28 -28l-25 -31l-21 -33l-18 -35l-14 -37l-10 -38l-7 -39l-2 -40l2 -39
l7 -39l10 -39l14 -37l18 -35l21 -33l25 -31l26 -26l4 1l-7 66l70 8h1l-19 18l-19 23l-15 24l-14 26l-10 27l-8 28l-4 29l-2 29l2 29l4 29l8 28l10 27l14 26l15 25l19 22l20 21l23 18l24 16l24 12v0l-63 24l25 66v0zM256 1571l-25 -66l63 -24l2 1l2 1l22 67l-64 21v0z
M296 1482l-2 -1v0l2 1v0zM784 1228l-45 50l-52 -47v-3v-2l52 -48l45 50v0zM673 1142l-1 -2l36 -61l58 33l-32 63l-60 -30l-1 -3v0zM222 1024h-1l2 -2l-1 2v0zM223 1022l-2 2l-70 -8l7 -66l71 3l-4 67l-2 2v0zM597 901l-34 17l-37 14l-39 10l-38 6l-40 2l-40 -2l-38 -6
l-39 -10l-34 -13l-2 -3l64 -21l-10 -31l21 -5l38 -6l40 -2v0l40 2l38 6l39 10l37 14l34 18v0zM256 916l-3 1l-32 -16l25 -13l10 28v0zM597 901l-34 -18l-37 -14l-39 -10l-38 -6l-40 -2l253 2l-31 25l-33 22l-1 1v0zM246 888l9 -5l37 -14l18 -5l10 31l-64 21l-10 -28v0z
M310 864l-18 5l-37 14l-9 5l-15 -38l63 -25l2 1l2 1l12 37v0zM409 851v0v0v0v0zM409 851l-40 2l-38 6l-21 5l-12 -37l-2 -1l27 11l28 7l29 5l29 2v0v0zM296 826l-2 -1v0l2 1v0zM785 574l-48 49l-50 -50v-1v-2l52 -47l46 51v0zM131 573l-49 50l-49 -49l46 -51l52 47v3v0z
M131 573l2 29l4 29l-55 -8l49 -50v0zM687 410v-1l50 -50l48 49l-46 51l-52 -47v-2v0zM131 409v3l-52 47l-46 -51l49 -49l49 50v0zM524 156l-2 -1l2 1v0v0zM522 155l-2 -1l-22 -67l64 -21l25 66l-63 24l-2 -1v0zM522 155l-27 -10l-28 -8l-29 -4l-29 -2l-253 -3l31 -25l33 -21
l35 -18l37 -14l39 -10l38 -7l40 -2l40 2l38 7l39 10l34 13l2 3l-64 21l22 67l2 1v0z" />
    <glyph glyph-name="nine" unicode="9" 
d="M737 787l47 29l-43 52l-54 -45v-2v-2l32 -32h18v0zM137 1286l-55 -8l49 -50l2 29l4 29v0zM82 1278l55 8l8 28l10 27l14 26l15 25l19 22l20 21l23 18l24 16l24 12v0l-63 24l25 66l-3 1l-33 -17l-33 -21l-31 -25l-28 -28l-25 -31l-21 -33l-18 -35l-14 -37l-10 -38l-7 -39
l-2 -37l2 -2l49 49v0zM681 1286l56 -8l48 -48l2 1l-2 37l-7 39l-10 38l-14 37l-18 35l-21 33l-25 31l-28 28l-253 -3l29 -2l29 -4l28 -8l27 -10l26 -13l24 -16l23 -18l20 -21l19 -22l15 -25l14 -26l10 -27l8 -28v0zM737 1278l-56 8l4 -29l2 -30v1l50 50v0zM741 868l-2 310
l-52 48v1v-406v2l54 45v0zM739 1178l2 -310l43 -52l3 3v409l-2 2l-46 -52v0zM79 1114v64l-46 51l-1 -1v-163l1 -2l46 51v0zM79 1178v-64l52 -47v-3l1 1v163h-1v-2l-52 -48v0zM137 1007l-55 8l-49 48l-2 -1l2 -37l7 -39l10 -38l14 -37l18 -35l21 -34l25 -30l28 -28l31 -25
l33 -22l35 -18l37 -14l39 -10l38 -6l37 -2l2 1l-49 49l50 50h1l-30 1l-29 5l-28 7l-27 11l-26 13l-24 16l-23 18l-20 21l-19 22l-15 24l-14 27l-10 27l-8 28v0zM82 1015l55 -8l-4 28l-2 29l-49 -49v0zM780 743l-43 26l-18 18h-35l-5 -54l-9 -46h67l42 42l1 14v0zM737 769
l43 -26l-34 35l-9 -9v0zM256 1571l64 -21l-22 -67l-2 -1l27 10l28 8l29 4l29 2l253 3l-31 25l-33 21l-35 18l-37 14l-39 11l-38 6l-40 2l-40 -2l-38 -6l-39 -11l-34 -13l-2 -3v0zM256 1571l-25 -66l63 -24l2 1l2 1l22 67l-64 21v0zM296 1482l-2 -1v0l2 1v0zM785 1230l-48 48
l-50 -50v-1v-1l52 -48l46 52v0zM131 1228l-49 50l-49 -49l46 -51l52 48v2v0zM131 1064v3l-52 47l-46 -51l49 -48l49 49v0zM684 787h-274h2l47 -53l-51 -46l1 -1h261l9 46l5 54v0zM684 787h35l-32 32v2l-3 -34v0zM410 787h-1l-50 -50l49 -49l51 46l-47 53h-2v0zM784 816
l-38 -38l34 -35l7 71l-3 2v0zM746 778l38 38l-47 -29l9 -9v0zM719 787l18 -18l9 9l-9 9h-18v0zM780 743l-1 -14l8 8l-7 6v0zM779 729l-42 -42h-67l-8 -44l-27 -87l-35 -84l-44 -80l-52 -75l-60 -68l-66 -63l-73 -54l-78 -48l-85 -39l-24 -66l66 -24l90 42l87 52l81 61l74 69
l67 77l58 84l49 88l39 94l30 97l19 100l1 10v0z" />
    <glyph glyph-name="colon" unicode=":" horiz-adv-x="655" 
d="M114 688h99v98h-99v-98v0zM114 32h99v99h-99v-99v0z" />
    <glyph glyph-name="semicolon" unicode=";" horiz-adv-x="655" 
d="M178 80h-13l5 -4l8 4v0zM213 181l-49 -50v-49h49v99v0zM164 131l49 50l-50 -50h1v0zM164 786l49 -48v-2l50 50h-99v0zM213 738l-49 48v-48h49v0zM163 688l-49 48v2l-50 -50l50 -50l49 49v1v0zM114 736l49 -48v48h-49v0zM154 22l9 10v40l-1 -1l-8 -49v0zM163 32l-9 -10
l10 10h-1v0zM200 -17h-86l-14 15l-147 -474l33 -63l61 33l153 489v0zM114 -17h86h-37h-49v0zM164 738h-1v-2h1v2v0zM163 738h-49v-2h49v2v0zM163 738h1v48h-1v-48v0zM164 736h-1v-48v-1l1 1v48v0zM164 736h49v2h-49v-2v0zM164 736v-48l-1 -1l50 -49v98h-49v0zM163 738v48h1
l-50 50v-98h49v0zM163 687l-49 -49h99l-50 49v0zM164 82h-1h1v0v0zM163 82h-49v-1h49v1v0zM163 82v0h1v49h-1v-49v0zM165 80l-1 1v-8l6 3l-5 4v0zM165 80l48 1v1h-49v0l1 -2v0zM164 81h-1v-4v-5l1 1v8v0zM164 81l1 -1l-1 2v-1v0zM163 81v0v-4v4v0zM163 81h1v1h-1v-1v0z
M163 81h-49v-39l2 5l46 24l1 6v4v0zM163 81v0v1v0v-1v0zM170 76l-6 -3v-41h39l-11 21l-22 23v0zM164 73l-1 -1v-40h1v41v0zM162 71l-46 -24l-2 -5v-59l40 39l8 49v0zM162 71l1 1v5l-1 -6v0zM170 76l22 -23l-14 27l-8 -4v0zM192 53l21 -21h50l-50 50v-1l-48 -1h13l14 -27v0z
M203 32h-39l-10 -10l-6 -36l15 -3l44 43l-4 6v0zM203 32h10l-21 21l11 -21v0zM163 82v49h-99l50 -50v1h49v0zM203 32l4 -6l6 6h-10v0zM207 26l4 -9l-11 -34h13l50 49h-50l-6 -6v0zM207 26l-44 -43h37l11 34l-4 9v0zM100 -2l14 -15v59l-14 -44v0zM154 22l-40 -39h49l-15 3
l6 36v0zM114 42v39l-50 50v-99l36 -34l14 44v0zM164 786h99l-50 50h-99l50 -50v0zM114 738v98l-50 -50v-98l50 50v0zM213 736v-98l50 50v98l-50 -50v0zM64 131h99l50 50h-99l-50 -50v0zM213 181v-99l50 -50v99l-50 50v0z" />
    <glyph glyph-name="less" unicode="&#x3c;" 
d="M22 618l819 320l22 67l-67 22l-818 -409l11 -12l33 12v0zM-22 528h44l22 23l-55 55l-33 -11l22 -67v0zM22 528h-44l818 -409l67 22l-22 67l-730 365l-89 -45v0zM-11 606l55 -55l-22 -23l89 45l-89 45l-33 -12v0zM111 573l730 365l-819 -320l89 -45v0z" />
    <glyph glyph-name="equal" unicode="=" 
d="M-50 327l50 -50h819l50 50l-50 50h-819l-50 -50v0zM-50 819l50 -50h819l50 50l-50 50h-819l-50 -50v0z" />
    <glyph glyph-name="greater" unicode="&#x3e;" 
d="M796 618h45l-819 409l-66 -22l22 -67l729 -365l89 45v0zM-22 208l818 320l-89 45l-729 -365v0zM796 528l-818 -320l-22 -67l66 -22l819 409l22 67l-33 11l-56 -55l22 -23v0zM830 606l-34 12l-89 -45l89 -45l-22 23l56 55v0zM830 606l11 12h-45l34 -12v0z" />
    <glyph glyph-name="question" unicode="?" 
d="M458 82l-48 49v-49h48v0zM363 698l46 -9l48 -48l2 2v11l3 29l6 29l8 28l12 26l14 26l17 23l19 22l21 20l26 19l1 6h-65v71l3 2l-28 -21l-29 -27l-27 -30l-23 -32l-19 -34l-16 -37l-11 -37l-8 -39v0zM409 689l-46 9l-4 -39v-15l3 -3l47 48v0zM574 1002l-49 -46l44 -6l5 52
v0zM525 956l49 46h-4l-46 -47l1 1v0zM673 1142l58 -3l21 -63l3 1l13 34l10 39l7 39l2 39l-2 40l-7 39l-10 38l-14 37l-18 35l-21 33l-25 31l-28 28l-31 25l-33 21l-35 18l-37 14l-39 11l-38 6l-37 2l-2 -1l49 -49l-50 -50h-1l30 -2l29 -4l28 -8l27 -10l26 -13l24 -16l23 -18
l20 -21l19 -22l15 -25l14 -26l10 -27l8 -28l4 -29l2 -29l-2 -29l-4 -29l-8 -28v0zM731 1139l-58 3l-10 -27l1 3l67 21v0zM615 1042l71 8l-24 63l1 2l-14 -26l-15 -24l-19 -23v0zM686 1050l-71 -8l-20 -20l-21 -17v-3l67 -1v-70l-2 -2l23 19l28 27l25 31l21 33l17 33l-1 4
l-66 -26v0zM586 882l51 45l-44 5l-7 -50v0zM637 927l-51 -45h6l47 47l-2 -2v0zM459 491l-51 102l-46 48l-3 -2v-148l50 -50l50 50v0zM408 593l51 -102v148l-2 2l-49 -48v0zM408 32l-48 49v1l-50 -50l50 -49l49 48l-1 1v0zM360 81l48 -49v49h-48v0zM410 1605l-51 -46l47 -53
h2h1l50 50l-49 49v0zM410 1605l-1 1h-409l-50 -50l50 -50h408h-2l-47 53l51 46v0zM663 1115l-1 -2l24 -63l66 26l-21 63l-67 -21l-1 -3v0zM524 955l-3 -2v-71h65l7 50l-26 2l2 16l-44 6l-1 -1v0zM569 950l26 -4l-2 -14l44 -5l2 2l2 2v70l-67 1l-5 -52v0zM569 950l-2 -16
l26 -2l2 14l-26 4v0zM457 641l-48 48l-47 -48l46 -48l49 48v0zM408 82h2v49h-2v-49v0zM408 82h-48v-1h48v1v0zM410 82h-2v-1h2v1v0zM410 81h-2v-49l1 -1l1 1v49v0zM410 81h48v1h-48v-1v0zM410 81v-49l-1 -1l49 -48v98h-48v0zM408 82v49h2l-50 50v-99h48v0zM409 31l-49 -48
h98l-49 48v0zM410 131h98l-50 50h-98l50 -50v0zM360 82v99l-50 -50v-99l50 50v0zM458 81v-98l50 49v99l-50 -50v0zM458 82v-1l50 50h-98l48 -49v0z" />
    <glyph glyph-name="at" unicode="@" horiz-adv-x="1474" 
d="M362 936h-70v-29l70 29v0zM720 1342l345 -146l24 -25l5 15l-327 246l-24 -3l34 -67l-40 -20h-17v0zM1065 1196l-345 146l295 -221v25l50 50v0zM117 1182l210 160l-50 50l29 29l-14 6l-246 -245v-30l71 30v0zM327 1342l-210 -160l15 -36v-20l216 216h-21v0zM82 377
l-36 734v41l-14 -6v-819l20 -21l30 71v0zM46 1111l36 -734l35 -15l15 -14v778l-15 -15h-71v0zM1015 1021l50 75l-30 10l-20 15v-100v0zM1065 1096l-50 -75l85 -85v-71h-71l71 -257v-41l15 6v573l-26 25l-24 -75v0zM292 936l281 160l-50 50l29 30l-14 6l-246 -246v0z
M573 1096l-281 -160h70l15 -35v-21l217 216h-21v0zM1100 608l-71 257l-14 15v-286l14 14h71v0zM327 623l35 242h-70v42l-15 -6v-328l21 -21l29 71v0zM362 865l-35 -242l35 -15l15 -14v286l-15 -15v0zM819 377l210 161l-14 35v21l-217 -217h21v0zM1029 538l-210 -161l50 -50
l-30 -29l15 -6l246 246v29l-71 -29v0zM594 377l-267 146l-29 29l-6 -14l246 -246h29l-29 70l35 15h21v0zM327 523l267 -146l-217 217v-21l-50 -50v0zM348 132l-266 145l-30 29l-6 -14l246 -246h29l-29 71l35 15h21v0zM82 277l266 -145l-216 216v-21l-50 -50v0zM743 1429
l-46 -7l10 -70l13 -10h17l40 20l-34 67v0zM306 1421l71 -29l-15 -35l-14 -15h372l-13 10l-10 70l46 7l-6 13h-410l-21 -21v0zM306 1421l-29 -29l50 -50h21l14 15l15 35l-71 29v0zM825 1182h-42v-71l15 -15h21l35 15l-29 71v0zM1089 1171l-24 25l-50 -50v-25l20 -15l30 -10
l24 75v0zM552 1176l71 -30l-15 -35l-14 -15h204l-15 15v71h42l-6 14h-246l-21 -20v0zM552 1176l-29 -30l50 -50h21l14 15l15 35l-71 30v0zM825 1182l29 -71l-35 -15h-21l217 -216v141l-161 161h-29v0zM46 1152v-41h71l15 15v20l-15 36l-71 -30v0zM292 907v-42h70l15 15v21
l-15 35l-70 -29v0zM1015 880l14 -15h71v71l-85 85v-141v0zM1015 594v-21l14 -35l71 29v41h-71l-14 -14v0zM298 552l29 -29l50 50v21l-15 14l-35 15l-29 -71v0zM798 377h-204l14 -15v-70h-41l6 -15h246l20 21l-70 29l14 35l15 15v0zM594 377h-21l-35 -15l29 -70h41v70l-14 15
v0zM798 377l-15 -15l-14 -35l70 -29l30 29l-50 50h-21v0zM52 306l30 -29l50 50v21l-15 14l-35 15l-30 -71v0zM348 132h-21l-35 -15l29 -71h41v71l-14 15v0zM348 132l14 -15v-71h-41l6 -14h819l50 50l-50 50h-798v0z" />
    <glyph glyph-name="A" unicode="A" horiz-adv-x="1474" 
d="M917 541l-344 923l277 -923h67v0zM34 14l195 427l-34 34l-161 -461v0zM229 441l-195 -427l33 -61l62 33l137 455h-37v0zM538 1648l83 -24l-48 -160l344 -923l50 -50l-50 -50h-37l137 -455l62 -33l33 61l-491 1638l-62 34l-21 -38v0zM538 1648l-3 -6l52 -52l34 34l-83 24
v0zM535 1642l-10 -18l34 -114l28 80l-52 52v0zM535 1642l-10 10l-491 -1638l161 461l-16 16l34 35l346 984l-34 114l10 18v0zM850 541h-554l-30 -100h614l-30 100v0zM296 541h-67l-16 -15l-18 -51l34 -34h37l30 100v0zM213 526l-34 -35l16 -16l18 51v0zM213 526l16 15h67
l277 923l-14 46l-346 -984v0zM880 441h37l50 50l-50 50h-67l30 -100v0zM573 1464l48 160l-34 -34l-28 -80l14 -46v0z" />
    <glyph glyph-name="B" unicode="B" horiz-adv-x="1310" 
d="M782 702h60l67 -25l1 3l-21 41l-26 40l-31 37l-34 34l-37 31l-40 26l-43 22l-42 16l-5 -4l-33 -22l-35 -18l-37 -14l-23 -6l-12 -12h-3v0l40 -2l38 -6l36 -10l35 -14l34 -17l31 -20l29 -24l27 -27l24 -29v0zM842 702h-60l20 -31l17 -34l-1 3l24 62v0zM491 951l2 -1l46 -2
l47 -8l47 -12l3 -1l26 21l28 27l25 31l21 33l18 35l14 37l10 39l7 39l2 39l-2 40l-7 39l-10 38l-13 35l-3 1l-21 -64l-58 -3l8 -28l4 -29l2 -29l-2 -29l-4 -29l-8 -28l-10 -27l-14 -26l-15 -24l-19 -23l-20 -20l-23 -18l-24 -16l-26 -13l-27 -11l-28 -7l-29 -5l53 -1v0z
M493 950l-2 1l1 -2l1 1v0zM491 951l-53 1l-26 -1h79v0zM615 1414l71 -8l66 -25l1 3l-17 33l-21 33l-25 31l-28 28l-31 25l-33 21l-35 18l-37 14l-39 11l-38 6l-37 2l-2 -1l49 -49l-50 -50h-1l30 -2l29 -4l28 -8l27 -10l26 -13l24 -16l23 -18l20 -21v0zM686 1406l-71 8
l19 -22l15 -25l14 -26l-1 2l24 63v0zM132 951l-50 555v100l-50 -50v-655l50 50h50v0zM82 1506l50 -555v555h-50v0zM673 1314l58 3l-67 22l-1 2l10 -27v0zM132 132l-50 719l-50 50v-819l50 50h50v0zM82 851l50 -719v719h-50v0zM833 602l55 11l-67 22l-2 2l14 -35v0zM888 613
l-55 -11l10 -36l6 -38l2 -37l-2 -38l-6 -37l-10 -36l-14 -35l-17 -34l-20 -31l-24 -30l-27 -26l-29 -24l-31 -21l-34 -17l-35 -13l-36 -10l-38 -6l-37 -2l50 -49l-49 -49l1 -2l46 3l47 7l47 13l45 17l43 22l40 26l37 30l34 34l31 38l26 40l22 43l17 45l12 46l8 48l3 48
l-3 48l-8 47l-12 47l-16 42l-3 2l-21 -64v0zM410 1605l-51 -46l47 -53h2h1l50 50l-49 49v0zM410 1605l-1 1h-327l50 -50v-50h276h-2l-47 53l51 46v0zM752 1381l-66 25l-24 -63l1 -2l1 -2l67 -22l21 64v0zM412 951h-280v-100h279l-52 47l47 52l6 1v0zM132 951h-50l-50 -50
l50 -50h50v100v0zM412 951l-6 -1l-47 -52l52 -47h3l35 2l33 5l-41 45l51 46l-1 2h-79v0zM636 927l-3 1l-47 12l-47 8l-46 2l-1 -1l49 -48l-38 -38l23 6l37 14l35 18l33 22l5 4v0zM492 949l-51 -46l41 -45l5 1l16 4l38 38l-49 48v0zM503 863l-16 -4l-5 -1l6 -7h3l12 12v0z
M482 858l-33 -5l-35 -2h74l-6 7v0zM414 851h-3h1h2v0zM909 677l-67 25l-24 -62l1 -3l2 -2l67 -22l21 64v0zM132 132h-50l-50 -50h100v50v0zM491 131h-3l-47 -52l51 -46l49 49l-50 49v0zM491 131v1h-359v-50h-100l50 -50h409l1 1l-51 46l47 52h3v0zM132 1506v50l-50 50v-100
h50v0z" />
    <glyph glyph-name="C" unicode="C" 
d="M139 1221l-57 -25l49 -50l2 38l6 37v0zM82 1196l57 25l10 36l13 36l17 33l21 32l24 29l26 27l30 23l31 21l34 17l35 13l36 10l37 6l38 2l-50 50l49 49l-2 1l-45 -3l-48 -7l-46 -13l-45 -17l-43 -22l-40 -26l-38 -30l-34 -34l-30 -37l-26 -41l-22 -43l-17 -45l-13 -46
l-7 -48l-3 -45l2 -2l49 49v0zM491 1506l-38 -2l39 2h-1v0zM79 541v555l-46 51l-1 -1v-655l1 -1l46 51v0zM79 1096v-555l52 -48v-2h1v655h-1v-2l-52 -48v0zM139 416l-57 25l-49 49l-2 -2l3 -45l7 -48l13 -46l17 -45l22 -43l26 -40l30 -38l34 -34l38 -30l40 -26l43 -22l45 -17
l46 -13l48 -7l45 -3l2 2l-49 49l50 49l-38 2l-37 6l-36 10l-35 13l-34 17l-31 21l-30 24l-26 26l-24 30l-21 31l-17 34l-13 35l-10 36v0zM82 441l57 -25l-6 37l-2 38l-49 -50v0zM490 1605l51 -47l-48 -52h-1h327l50 50l-50 50h-328l-1 -1v0zM490 1605l-49 -49l50 -50h1h1
l48 52l-51 47v0zM131 1146l-49 50l-49 -49l46 -51l52 48v2v0zM131 491v2l-52 48l-46 -51l49 -49l49 50v0zM491 131h2l48 -52l-51 -46l1 -1h328l50 50l-50 50h-328v-1v0zM491 131l-50 -49l49 -49l51 46l-48 52h-2v0z" />
    <glyph glyph-name="D" unicode="D" horiz-adv-x="1310" 
d="M843 1221l58 -25l48 -48l1 1l-2 45l-8 48l-12 46l-17 45l-22 43l-26 41l-31 37l-34 34l-37 30l-40 26l-43 22l-45 17l-47 13l-47 7l-46 3l-1 -1l49 -49l-50 -50h-1l38 -2l38 -6l36 -10l35 -13l34 -17l31 -21l29 -23l27 -27l24 -29l20 -32l17 -33l14 -36l10 -36v0z
M901 1196l-58 25l6 -37l2 -40v0v2l50 50v0zM132 132l-50 1374v100l-50 -50v-1474l50 50h50v0zM82 1506l50 -1374v1374h-50v0zM903 541v555l-52 48v-650l52 47v0zM903 1096v-555l46 -51l2 1v655l-2 2l-46 -52v0zM843 416l58 25l-50 50v3v-1l-2 -40l-6 -37v0zM901 441l-58 -25
l-10 -36l-14 -35l-17 -34l-20 -31l-24 -30l-27 -26l-29 -24l-31 -21l-34 -17l-35 -13l-36 -10l-38 -6l-37 -2l50 -49l-49 -49l1 -2l46 3l47 7l47 13l45 17l43 22l40 26l37 30l34 34l31 38l26 40l22 43l17 45l12 46l8 48l2 45l-1 2l-48 -49v0zM492 1605l-51 -47l47 -52h2h1
l50 50l-49 49v0zM492 1605l-1 1h-409l50 -50v-50h358h-2l-47 52l51 47v0zM949 1148l-48 48l-50 -50v-2l52 -48l46 52v0zM851 494v-3l50 -50l48 49l-46 51l-52 -47v0zM132 132h-50l-50 -50h100v50v0zM491 131h-3l-47 -52l51 -46l49 49l-50 49v0zM491 131v1h-359v-50h-100
l50 -50h409l1 1l-51 46l47 52h3v0zM132 1506v50l-50 50v-100h50v0z" />
    <glyph glyph-name="E" unicode="E" 
d="M132 951l-50 555v100l-50 -50v-655l50 50h50v0zM82 1506l50 -555v555h-50v0zM132 132l-50 719l-50 50v-819l50 50h50v0zM82 851l50 -719v719h-50v0zM132 1506h687l50 50l-50 50h-737l50 -50v-50v0zM132 951h-50l-50 -50l50 -50h50v100v0zM132 851h523l50 50l-50 50h-523
v-100v0zM132 132h-50l-50 -50h100v50v0zM132 1506v50l-50 50v-100h50v0zM132 132v-50h-100l50 -50h737l50 50l-50 50h-687v0z" />
    <glyph glyph-name="F" unicode="F" 
d="M132 951l-50 555v100l-50 -50v-655l50 50h50v0zM82 1506l50 -555v555h-50v0zM132 0l-50 851l-50 50v-901l50 -50l50 50v0zM82 851l50 -851v851h-50v0zM132 1506h687l50 50l-50 50h-737l50 -50v-50v0zM132 951h-50l-50 -50l50 -50h50v100v0zM132 851h687l50 50l-50 50
h-687v-100v0zM132 1506v50l-50 50v-100h50v0z" />
    <glyph glyph-name="G" unicode="G" horiz-adv-x="1310" 
d="M901 132l-50 719v-719h50v0zM139 1221l-57 -25l49 -50l2 38l6 37v0zM82 1196l57 25l10 36l13 36l17 33l21 32l24 29l26 27l30 23l31 21l34 17l35 13l36 10l37 6l38 2l-50 50l49 49l-2 1l-45 -3l-48 -7l-46 -13l-45 -17l-43 -22l-40 -26l-38 -30l-34 -34l-30 -37l-26 -41
l-22 -43l-17 -45l-13 -46l-7 -48l-3 -45l2 -2l49 49v0zM491 1506l-38 -2l39 2h-1v0zM79 541v555l-46 51l-1 -1v-655l1 -1l46 51v0zM79 1096v-555l52 -48v-2h1v655h-1v-2l-52 -48v0zM139 416l-57 25l-49 49l-2 -2l3 -45l7 -48l13 -46l17 -45l22 -43l26 -40l30 -38l34 -34
l38 -30l40 -26l43 -22l45 -17l46 -13l48 -7l45 -3l2 2l-49 49l50 49l-38 2l-37 6l-36 10l-35 13l-34 17l-31 21l-30 24l-26 26l-24 30l-21 31l-17 34l-13 35l-10 36v0zM82 441l57 -25l-6 37l-2 38l-49 -50v0zM490 1605l51 -47l-48 -52h-1h491l50 50l-50 50h-492l-1 -1v0z
M490 1605l-49 -49l50 -50h1h1l48 52l-51 47v0zM131 1146l-49 50l-49 -49l46 -51l52 48v2v0zM851 851h50l50 50h-100v-50v0zM131 491v2l-52 48l-46 -51l49 -49l49 50v0zM851 132h-360v-1h2l48 -52l-51 -46l1 -1h410l-50 50v50v0zM851 851v50h100l-50 50h-246l-50 -50l50 -50
h196v0zM851 132v-50l50 -50v100h-50v0zM491 131l-50 -49l49 -49l51 46l-48 52h-2v0zM901 132v-100l50 50v819l-50 -50h-50l50 -719v0z" />
    <glyph glyph-name="H" unicode="H" horiz-adv-x="1310" 
d="M901 951l-50 687v-687h50v0zM132 0l-50 851l-50 50v-901l50 -50l50 50v0zM82 851l50 -851v851h-50v0zM851 951h-719v-100h719v100v0zM132 951h-50l-50 -50l50 -50h50v100v0zM851 851h50l50 50l-50 50h-50v-100v0zM851 851v-851l50 -50l50 50v901l-50 -50h-50v0zM132 951
v687l-50 50l-50 -50v-737l50 50h50v0zM951 901v737l-50 50l-50 -50l50 -687l50 -50v0z" />
    <glyph glyph-name="I" unicode="I" horiz-adv-x="491" 
d="M82 1688l-50 -50v-1638l50 -50l50 50v1638l-50 50v0z" />
    <glyph glyph-name="J" unicode="J" 
d="M687 1638l52 -1097l46 -51l2 1v1147l-50 50l-50 -50v0zM739 541l-52 1097v-1146v1l52 48v0zM679 416l58 25l-50 50v1l-2 -39l-6 -37v0zM737 441l-58 -25l-10 -36l-13 -35l-17 -34l-21 -31l-24 -30l-26 -26l-30 -24l-31 -21l-34 -17l-35 -13l-36 -10l-37 -6l-38 -2l50 -49
l-49 -49l2 -2l45 3l48 7l46 13l45 17l43 22l40 26l38 30l34 34l30 38l26 40l22 43l17 45l13 46l7 48l3 45l-2 2l-48 -49v0zM687 492v-1l50 -50l48 49l-46 51l-52 -48v-1v0zM327 131h-2l-48 -52l51 -46l49 49l-50 49v0zM327 131v1h-327l-50 -50l50 -50h327l1 1l-51 46l48 52
h2v0z" />
    <glyph glyph-name="K" unicode="K" horiz-adv-x="1310" 
d="M319 1009l620 597l-6 70l-71 -6l-730 -877v-156l203 244l-35 60l19 68v0zM132 0l-83 616l-6 71l89 106v845l-50 50l-50 -50v-1638l50 -50l50 50v0zM49 616l83 -616v637l-12 -14l-71 -7v0zM132 793l-89 -106l6 -71l71 7l12 14v156v0zM403 963l-68 -82l522 -905l69 -19
l18 67l-541 939v0zM403 963l536 643l-620 -597l68 -18l16 -28v0zM335 881l68 82l-16 28l-68 18l-19 -68l35 -60v0z" />
    <glyph glyph-name="L" unicode="L" 
d="M132 132h-50v-100l50 50v50v0zM132 132v-50l-50 -50h737l50 50l-50 50h-687v0zM132 132v1506l-50 50l-50 -50v-1556l50 -50v100h50v0z" />
    <glyph glyph-name="M" unicode="M" horiz-adv-x="1474" 
d="M132 1638l-6 22l-67 23l-15 -45h88v0zM1031 1655l-5 -5l39 -62l44 28l-78 39v0zM1026 1650l-11 -12v-135l50 85l-39 62v0zM44 1638l-2 -7l62 -38l28 45h-88v0zM42 1631l-5 -15l68 -113l-1 90l-62 38v0zM1031 1655l78 -39l-94 -190v-1426l50 -50l50 50v1638l-50 50
l-34 -33v0zM42 1631l-10 7v-1638l50 -50l50 50l-26 1477l-69 139l5 15v0zM1026 1650l-6 10l-447 -893l4 -8l438 744v135l11 12v0zM105 1503l27 -43v178l-28 -45l1 -90v0zM105 1503l-68 113l69 -139l-1 26v0zM132 1460l433 -710l8 17l-447 893l6 -22v-178v0zM132 1460l-27 43
l1 -26l26 -51v34v0zM565 750l3 -5l9 14l-4 8l-8 -17v0zM565 750l-433 710v-34l396 -793l11 11l-11 33l37 73v0zM568 745l27 -45l23 -23l-41 82l-9 -14v0zM568 745l-3 5l-37 -73l40 68v0zM1015 1503l-438 -744l41 -82l-77 -38l10 -29l67 23l397 793v77v0zM568 745l-40 -68
l11 -33l56 56l-27 45v0zM132 1426l-26 51l26 -1477v1426v0zM541 639l77 38l-23 23l-56 -56l2 -5v0zM1015 1426l94 190l-44 -28l-50 -85v-77v0z" />
    <glyph glyph-name="N" unicode="N" horiz-adv-x="1310" 
d="M132 1638l-6 22l-67 23l-15 -45h88v0zM44 1638l-2 -7l62 -38l28 45h-88v0zM42 1631l-5 -15l69 -125l-2 102l-62 38v0zM42 1631l-10 7v-1638l50 -50l50 50l-26 1477l-69 139l5 15v0zM106 1491l25 -47l1 194l-28 -45l2 -102v0zM106 1491l-69 125l69 -139v14v0zM131 1444
l720 -1304v71l-725 1449l6 -22l-1 -194v0zM131 1444l-25 47v-14l25 -51v18v0zM851 140l50 -90l44 -28l-94 189v-71v0zM851 140l-720 1304v-18l725 -1448l7 11l-12 11v140v0zM851 211l94 -189l-78 -38l34 -34l50 50v1638l-50 50l-50 -50v-1427v0zM851 140v-140l12 -11l38 61
l-50 90v0zM106 1477l26 -1477l-1 1426l-25 51v0zM867 -16l78 38l-44 28l-38 -61l4 -5v0z" />
    <glyph glyph-name="O" unicode="O" horiz-adv-x="1310" 
d="M82 1196l57 25l10 36l13 36l17 33l21 32l24 29l26 27l30 23l31 21l32 16h-1l-62 24l25 66l-3 1l-41 -21l-40 -26l-38 -30l-34 -34l-30 -37l-26 -41l-22 -43l-17 -45l-13 -46l-7 -48l-3 -45l2 -2l49 49v0zM843 1221l58 -25l48 -48l1 1l-2 45l-8 48l-12 46l-17 45l-22 43
l-26 41l-31 37l-34 34l-37 30l-270 -12l37 -2l38 -6l36 -10l35 -13l34 -17l31 -21l29 -23l27 -27l24 -29l20 -32l17 -33l14 -36l10 -36v0zM901 1196l-58 25l6 -37l2 -40v0v2l50 50v0zM903 541v555l-52 48v-650l52 47v0zM903 1096v-555l46 -51l2 1v655l-2 2l-46 -52v0z
M79 541v555l-46 51l-1 -1v-655l1 -1l46 51v0zM79 1096v-555l52 -48v-2h1v655h-1v-2l-52 -48v0zM843 416l58 25l-50 50v3v-1l-2 -40l-6 -37v0zM901 441l-58 -25l-10 -36l-14 -35l-17 -34l-20 -31l-24 -30l-27 -26l-29 -24l-31 -21l-32 -16h1l62 -24l-25 -66l3 -1l41 21l40 26
l37 30l34 34l31 38l26 40l22 43l17 45l12 46l8 48l2 45l-1 2l-48 -49v0zM139 416l-57 25l-49 49l-2 -2l3 -45l7 -48l13 -46l17 -45l22 -43l26 -40l30 -38l34 -34l38 -30l270 12l-38 2l-37 6l-36 10l-35 13l-34 17l-31 21l-30 24l-26 26l-24 30l-21 31l-17 34l-13 35l-10 36
v0zM82 441l57 -25l-6 37l-2 38l-49 -50v0zM305 1564l64 -21l-22 -67l-2 -1l35 13l36 10l37 6l38 2l270 12l-40 26l-43 22l-45 17l-47 13l-47 7l-48 3l-48 -3l-48 -7l-46 -13l-43 -16l-1 -3v0zM305 1564l-25 -66l62 -24l3 1l2 1l22 67l-64 21v0zM345 1475l-3 -1h1l2 1v0z
M949 1148l-48 48l-50 -50v-2l52 -48l46 52v0zM131 1146l-49 50l-49 -49l46 -51l52 48v2v0zM131 1146l2 38l6 37l-57 -25l49 -50v0zM851 494v-3l50 -50l48 49l-46 51l-52 -47v0zM131 491v2l-52 48l-46 -51l49 -49l49 50v0zM639 163l-2 -1l3 1h-1v0zM637 162l-2 -1l-22 -67
l64 -21l25 66l-62 24l-3 -1v0zM637 162l-35 -13l-36 -10l-38 -6l-37 -2l-270 -12l40 -26l43 -22l45 -17l46 -13l48 -7l48 -3l48 3l47 7l47 13l42 16l2 3l-64 21l22 67l2 1v0z" />
    <glyph glyph-name="P" unicode="P" horiz-adv-x="1310" 
d="M491 787l37 2l-38 -2h1v0zM782 1358l60 -1l67 -25l1 4l-21 40l-26 41l-31 37l-34 34l-37 30l-40 26l-43 22l-45 17l-47 13l-47 7l-46 3l-1 -1l49 -49l-50 -50h-1l38 -2l38 -6l36 -10l35 -13l34 -17l31 -21l29 -23l27 -27l24 -29v0zM842 1357l-60 1l20 -32l17 -33l-1 2
l24 62v0zM132 787l-50 719v100l-50 -50v-819l50 50h50v0zM82 1506l50 -719v719h-50v0zM833 1257l55 11l-67 22l-2 3l14 -36v0zM888 1268l-55 -11l10 -36l6 -37l2 -38l-2 -37l-6 -38l-10 -36l-14 -35l-17 -34l-20 -31l-24 -29l-27 -27l-29 -24l-31 -20l-34 -17l-35 -14
l-36 -9l-38 -6l-37 -2l50 -50l-49 -49l1 -1l46 2l47 8l47 12l45 17l43 22l40 26l37 31l34 34l31 37l26 41l22 42l17 45l12 47l8 47l3 48l-3 48l-8 48l-12 46l-16 43l-3 1l-21 -64v0zM132 0l-50 687l-50 50v-737l50 -50l50 50v0zM82 687l50 -687v687h-50v0zM492 1605l-51 -47
l47 -52h2h1l50 50l-49 49v0zM492 1605l-1 1h-409l50 -50v-50h358h-2l-47 52l51 47v0zM909 1332l-67 25l-24 -62l1 -2l2 -3l67 -22l21 64v0zM490 787h-358v-100h359l1 1l-51 46l47 53h2v0zM132 787h-50l-50 -50l50 -50h50v100v0zM490 787h-2l-47 -53l51 -46l49 49l-50 50h-1
v0zM132 1506v50l-50 50v-100h50v0z" />
    <glyph glyph-name="Q" unicode="Q" horiz-adv-x="1310" 
d="M139 1221l-57 -25l49 -50l2 38l6 37v0zM82 1196l57 25l10 36l13 36l17 33l21 32l24 29l26 27l30 23l31 21l32 16h-1l-62 24l25 66l-3 1l-41 -21l-40 -26l-38 -30l-34 -34l-30 -37l-26 -41l-22 -43l-17 -45l-13 -46l-7 -48l-3 -45l2 -2l49 49v0zM843 1221l58 -25l48 -48
l1 1l-2 45l-8 48l-12 46l-17 45l-22 43l-26 41l-31 37l-34 34l-37 30l-270 -12l37 -2l38 -6l36 -10l35 -13l34 -17l31 -21l29 -23l27 -27l24 -29l20 -32l17 -33l14 -36l10 -36v0zM901 1196l-58 25l6 -37l2 -40v0v2l50 50v0zM903 541v555l-52 48v-650l52 47v0zM903 1096v-555
l46 -51l2 1v655l-2 2l-46 -52v0zM79 541v555l-46 51l-1 -1v-655l1 -1l46 51v0zM79 1096v-555l52 -48v-2h1v655h-1v-2l-52 -48v0zM843 416l58 25l-50 50v3v-1l-2 -40l-6 -37v0zM901 441l-58 -25l-10 -36l-14 -35l-17 -34l-8 -13l76 -66l19 29l22 43l17 45l12 46l8 48l2 45
l-1 2l-48 -49v0zM139 416l-57 25l-49 49l-2 -2l3 -45l7 -48l13 -46l17 -45l22 -43l26 -40l30 -38l34 -34l38 -30l270 12l-38 2l-37 6l-36 10l-35 13l-34 17l-31 21l-30 24l-26 26l-24 30l-21 31l-17 34l-13 35l-10 36v0zM82 441l57 -25l-6 37l-2 38l-49 -50v0zM305 1564
l64 -21l-22 -67l-2 -1l35 13l36 10l37 6l38 2l270 12l-40 26l-43 22l-45 17l-47 13l-47 7l-48 3l-48 -3l-48 -7l-46 -13l-43 -16l-1 -3v0zM305 1564l-25 -66l62 -24l3 1l2 1l22 67l-64 21v0zM345 1475l-3 -1h1l2 1v0zM949 1148l-48 48l-50 -50v-2l52 -48l46 52v0zM131 1146
l-49 50l-49 -49l46 -51l52 48v2v0zM851 494v-3l50 -50l48 49l-46 51l-52 -47v0zM131 491v2l-52 48l-46 -51l49 -49l49 50v0zM794 298l-12 -18l-24 -30l-27 -26l-2 -3l76 -65l27 27l31 38l7 11l-76 66v0zM870 232l-7 -11l-31 -38l-27 -27l227 -193l70 5l-5 69l-227 195v0z
M729 221l-27 -21l-31 -21l-32 -16h1l62 -24l-25 -66l3 -1l41 21l40 26l37 30l7 7l-76 65v0zM729 221l2 3l27 26l24 30l12 18l-270 231l-71 -5l6 -71l270 -232v0zM639 163l-2 -1l3 1h-1v0zM637 162l-2 -1l-22 -67l64 -21l25 66l-62 24l-3 -1v0zM637 162l-35 -13l-36 -10
l-38 -6l-37 -2l-270 -12l40 -26l43 -22l45 -17l46 -13l48 -7l48 -3l48 3l47 7l47 13l42 16l2 3l-64 21l22 67l2 1v0z" />
    <glyph glyph-name="R" unicode="R" horiz-adv-x="1310" 
d="M467 780l21 7h2h-358v-100h330l-15 25l4 13l-10 9l18 21l8 25v0zM528 789l-37 -2l19 -19l25 -7l37 -67l14 3l47 12l45 17l43 22l40 26l37 31l34 34l31 37l26 41l22 42l17 45l12 47l8 47l3 48l-3 48l-8 48l-12 46l-16 43l-3 1l-21 -64l-55 -11l10 -36l6 -37l2 -38l-2 -37
l-6 -38l-10 -36l-14 -35l-17 -34l-20 -31l-24 -29l-27 -27l-29 -24l-31 -20l-34 -17l-35 -14l-36 -9l-38 -6v0zM491 787l37 2l-38 -2h1v0zM782 1358l60 -1l67 -25l1 4l-21 40l-26 41l-31 37l-34 34l-37 30l-40 26l-43 22l-45 17l-47 13l-47 7l-46 3l-1 -1l49 -49l-50 -50h-1
l38 -2l38 -6l36 -10l35 -13l34 -17l31 -21l29 -23l27 -27l24 -29v0zM842 1357l-60 1l20 -32l17 -33l-1 2l24 62v0zM132 787l-50 719v100l-50 -50v-819l50 50h50v0zM82 1506l50 -719v719h-50v0zM833 1257l55 11l-67 22l-2 3l14 -36v0zM491 687h2l-1 1l-1 -1v0zM493 687h-2
l453 -663l-372 670l-33 -5l-46 -2v0zM944 24l-453 663h-29l395 -711l68 -19l19 67v0zM132 0l-50 687l-50 50v-737l50 -50l50 50v0zM82 687l50 -687v687h-50v0zM492 1605l-51 -47l47 -52h2h1l50 50l-49 49v0zM492 1605l-1 1h-409l50 -50v-50h358h-2l-47 52l51 47v0zM909 1332
l-67 25l-24 -62l1 -2l2 -3l67 -22l21 64v0zM132 787h-50l-50 -50l50 -50h50v100v0zM490 787h-2l-9 -10l31 -9l-19 19h-1v0zM479 777l-12 3l-8 -25l20 22v0zM510 768l-31 9l-20 -22l-8 -30l41 -37l49 49l-31 31v0zM510 768l31 -31l-49 -49l1 -1l46 2l33 5l-37 67l-25 7v0z
M479 777l9 10l-21 -7l12 -3v0zM459 755l-18 -21l10 -9l8 30v0zM451 725l-4 -13l15 -25h29l1 1l-41 37v0zM132 1506v50l-50 50v-100h50v0z" />
    <glyph glyph-name="S" unicode="S" horiz-adv-x="1310" 
d="M785 585l116 -27l34 -34l6 13l-88 122l-656 393l-86 37l-66 34l-4 -22l88 -122l656 -394v0zM901 558l-116 27l66 -93v16l50 50v0zM175 1369l-93 -58l50 -50v-9l43 117v0zM82 1311l93 58l57 87l51 38l50 12h233l-406 19l-74 -110l-51 -136l6 -9l41 41v0zM52 1171l30 40
l-41 59l-9 -9v-131l13 -7l7 48v0zM82 1211l-30 -40l70 -12l10 -13v98h-4l-46 -33v0zM111 1089l86 -37l-65 94v-16l-21 -41v0zM851 382l50 76l-41 20l-9 14v-110v0zM901 458l-50 -76l-14 -54l-29 -58l-58 -89l-51 -38l-50 -12l173 -18l73 107l36 73l19 77l1 138l-16 16
l-34 -66v0zM132 1252l-4 -8h4v8v0zM41 1270l41 -59l46 33l4 8v9l-50 50l-41 -41v0zM45 1123l66 -34l21 41v16l-10 13l-70 12l-7 -48v0zM935 524l-34 34l-50 -50v-16l9 -14l41 -20l34 66v0zM415 132h-6l7 -1l-1 1v0zM416 131l-7 1l-48 -36l43 -57l53 28l-34 62l-7 2v0z
M415 132l-150 44l-240 145l-67 -17l17 -69l250 -150l170 -51l9 5l-43 57l48 36h6v0zM416 131l7 -2l34 -62l-53 -28l5 -7h252l81 21l80 60l-173 18h-233v0zM160 1525l406 -19l151 -45l240 -145l68 18l-17 68l-251 151l-177 52l-259 1l-81 -21l-80 -60v0z" />
    <glyph glyph-name="T" unicode="T" horiz-adv-x="1310" 
d="M541 1506h-100v-1506l50 -50l50 50v1506v0zM541 1506h442l50 50l-50 50h-492l50 -50v-50v0zM441 1506h100v50l-50 50l-50 -50v-50v0zM441 1506v50l50 50h-491l-50 -50l50 -50h441v0z" />
    <glyph glyph-name="U" unicode="U" horiz-adv-x="1310" 
d="M79 541l-47 1097v-1147l1 -1l46 51v0zM851 1638l52 -1097l46 -51l2 1v1147l-50 50l-50 -50v0zM903 541l-52 1097v-1144l52 47v0zM843 416l58 25l-50 50v3v-1l-2 -40l-6 -37v0zM901 441l-58 -25l-10 -36l-14 -35l-17 -34l-20 -31l-24 -30l-27 -26l-29 -24l-31 -21l-32 -16
h1l62 -24l-25 -66l3 -1l41 21l40 26l37 30l34 34l31 38l26 40l22 43l17 45l12 46l8 48l2 45l-1 2l-48 -49v0zM139 416l-57 25l-49 49l-2 -2l3 -45l7 -48l13 -46l17 -45l22 -43l26 -40l30 -38l34 -34l38 -30l270 12l-38 2l-37 6l-36 10l-35 13l-34 17l-31 21l-30 24l-26 26
l-24 30l-21 31l-17 34l-13 35l-10 36v0zM82 441l57 -25l-6 37l-2 38l-49 -50v0zM851 494v-3l50 -50l48 49l-46 51l-52 -47v0zM131 491v2l-52 48l-46 -51l49 -49l49 50v0zM131 491h1v1147l-50 50l-50 -50l47 -1097l52 -48v-2v0zM639 163l-2 -1l3 1h-1v0zM637 162l-2 -1
l-22 -67l64 -21l25 66l-62 24l-3 -1v0zM637 162l-35 -13l-36 -10l-38 -6l-37 -2l-270 -12l40 -26l43 -22l45 -17l46 -13l48 -7l48 -3l48 3l47 7l47 13l42 16l2 3l-64 21l22 67l2 1v0z" />
    <glyph glyph-name="V" unicode="V" horiz-adv-x="1474" 
d="M559 128l28 -81l34 -33l-48 160l-14 -46v0zM559 128l-525 1496l491 -1638l10 10l-10 18l34 114v0zM559 128l-34 -114l10 -18l52 51l-28 81v0zM559 128l14 46l-444 1478l-62 34l-33 -62l525 -1496v0zM573 174l48 -160l-83 -24l21 -37l62 33l491 1638l-33 62l-62 -34
l-444 -1478v0zM538 -10l83 24l-34 33l-52 -51l3 -6v0z" />
    <glyph glyph-name="W" unicode="W" horiz-adv-x="1802" 
d="M702 1156l83 -23l-43 -150l304 -850l15 60l-276 967l-62 34l-21 -38v0zM702 1156l-4 -6l52 -52l35 35l-83 23v0zM698 1150l-9 -17l37 -104l24 69l-52 52v0zM698 1150l-9 10l-271 -948l5 -26l298 832l-32 115l9 17v0zM726 1029l16 -46l43 150l-35 -35l-24 -69v0zM726 1029
l-37 104l32 -115l5 11v0zM742 983l-16 46l-5 -11l16 -54l5 19v0zM1046 133l31 -85l36 -35l-52 180l-15 -60v0zM1046 133l-304 850l-5 -19l279 -977l10 9l-10 16l30 121v0zM399 145l4 -16l20 57l-5 26l-19 -67v0zM399 145l-367 1483l328 -1637l9 8l-8 14l38 132v0zM403 129
l20 -81l35 -39l-35 177l-20 -57v0zM403 129l-4 16l-38 -132l42 116v0zM1061 193l52 -180l-84 -23l23 -38l61 36l410 1638l-37 60l-60 -36l-365 -1457v0zM399 145l19 67l-287 1436l-59 39l-40 -59l367 -1483v0zM721 1018l-298 -832l35 -177l-85 -16l22 -41l62 35l280 977
l-16 54v0zM403 129l-42 -116l8 -14l54 49l-20 81v0zM1046 133l-30 -121l10 -16l51 52l-31 85v0zM373 -7l85 16l-35 39l-54 -49l4 -6v0zM1029 -10l84 23l-36 35l-51 -52l3 -6v0z" />
    <glyph glyph-name="X" unicode="X" horiz-adv-x="1474" 
d="M573 916l58 -97l476 793l-17 69l-68 -17l-449 -748v0zM573 916l-449 748l-68 17l-17 -69l476 -793l58 97v0zM631 819l-58 97l-58 -97l58 -97l58 97v0zM515 819l-476 -794l17 -67l68 17l449 747l-58 97v0zM573 722l449 -747l68 -17l17 67l-476 794l-58 -97v0z" />
    <glyph glyph-name="Y" unicode="Y" horiz-adv-x="1474" 
d="M573 869l-7 36l-36 -61l4 -14l39 39v0zM547 776l-17 17l-7 12v-805l50 -50l50 50l-76 776v0zM530 793l17 -17l-6 24l-11 -7v0zM547 776l76 -776v805l-7 -12l-69 -17v0zM566 905l33 -43l17 -18l-43 72l-7 -11v0zM566 905l-527 707l484 -807v14l11 11l-4 14l36 61v0z
M566 905l7 11l-449 748l-68 17l-17 -69l527 -707v0zM573 916l43 -72l-12 -7l19 -18v-14l484 807l-17 69l-68 -17l-449 -748v0zM589 852l15 -15l12 7l-17 18l-10 -10v0zM589 852l-16 17l-39 -39l6 -27l49 49v0zM604 837l-15 15l-49 -49l1 -3l63 37v0zM534 830l-11 -11v-14
l7 -12l10 10l-6 27v0zM604 837l-63 -37l6 -24l69 17l7 12v14l-19 18v0zM589 852l10 10l-33 43l7 -36l16 -17v0zM540 803l-10 -10l11 7l-1 3v0z" />
    <glyph glyph-name="Z" unicode="Z" horiz-adv-x="1310" 
d="M983 32l-942 22l9 28l-76 23l-24 -23l50 -50h983v0zM41 54l942 -22l50 50l-50 50h-890l-52 -78v0zM978 1591l-37 -7l-52 -78h94l-28 8l23 77v0zM978 1591l-23 -77l28 -8h-94l-930 -1397l15 -4l26 27h93l931 1396l-14 70l-32 -7v0zM978 1591l5 15h-983l-50 -50l50 -50h889
l52 78l37 7v0zM93 132h-93l-26 -27l76 -23l-9 -28l52 78v0z" />
    <glyph glyph-name="bracketleft" unicode="[" horiz-adv-x="655" 
d="M132 1506h-50v100l-50 -50v-1638l50 50h50v1538v0zM132 1506h195l50 50l-50 50h-245l50 -50v-50v0zM132 -32h-50l-50 -50h100v50v0zM132 1506v50l-50 50v-100h50v0zM132 -32v-50h-100l50 -50h245l50 50l-50 50h-195v0z" />
    <glyph glyph-name="backslash" unicode="\" horiz-adv-x="1474" 
d="M1090 -42l17 67l-983 1639l-68 17l-17 -69l983 -1637l68 -17v0z" />
    <glyph glyph-name="bracketright" unicode="]" horiz-adv-x="655" 
d="M245 -32l-50 1538v-1538h50v0zM-50 -82h245v50h-195l-50 -50v0zM195 -82h-245l50 -50h245l50 50h-100v0zM195 1506h50v100l-50 -50v-50v0zM195 1506v50l50 50h-245l-50 -50l50 -50h195v0zM195 -32v-50h100l-50 50h-50v0zM245 1606v-100h-50l50 -1538l50 -50v1638l-50 50
v0z" />
    <glyph glyph-name="underscore" unicode="_" horiz-adv-x="1310" 
d="M-50 82l50 -50h1146l50 50l-50 50h-1146l-50 -50v0z" />
    <glyph glyph-name="grave" unicode="`" horiz-adv-x="491" 
d="M172 1097l41 58l-82 491l-58 41l-41 -57l82 -492l58 -41v0z" />
    <glyph glyph-name="a" unicode="a" 
d="M737 132l-50 391v-391h50v0zM136 286l-56 -14l67 -22l1 -2l-7 18l-5 20v0zM80 272l56 14l-4 21l-1 20l1 20l4 21l5 20l7 19l10 18l11 17l13 16l14 15l16 13l17 11l18 9l20 7l19 6l21 3l20 1l-50 50l49 49l-2 1l-28 -2l-30 -5l-30 -8l-29 -11l-28 -14l-26 -17l-24 -19
l-22 -22l-19 -24l-17 -26l-14 -27l-11 -30l-8 -30l-5 -30l-2 -31l2 -31l5 -30l8 -30l10 -27l3 -1l21 64v0zM677 879l60 -10l48 -49l2 1l-2 29l-5 30l-8 30l-11 29l-14 28l-17 25l-19 25l-22 21l-24 20l-26 17l-28 14l-29 11l-29 8l-31 5l-29 1l-1 -1l49 -48l-50 -50h-3l1 -1
l22 -1l21 -3l20 -5l19 -8l18 -9l17 -11l16 -13l14 -14l13 -16l11 -18l10 -18l7 -19v0zM737 869l-60 10l5 -20l4 -20l1 -22v2l50 50v0zM737 623l2 146l-52 47v1v-194h50v0zM739 769l-2 -146l50 -50v246l-2 1l-46 -51v0zM327 523l-20 -1l21 1h-1v0zM196 182l-71 1l-66 25
l-1 -4l13 -25l17 -26l19 -24l22 -22l24 -19l26 -17l28 -14l29 -11l30 -8l30 -5l28 -2l2 2l-49 49l50 49l-20 1l-21 4l-20 5l-18 7l-19 10l-17 11l-16 13v0zM125 183l71 -1l-14 14l-13 16l-11 17l-10 19l1 -3l-24 -62v0zM377 79l310 3v50h-360v-1h3l47 -52v0zM687 82l-310 -3
l-51 -46l1 -1h410l50 50h-100v0zM492 1113l-51 -46l47 -52h3l50 50l-49 48v0zM492 1113l-1 2h-409l-50 -50l50 -50h406l-47 52l51 46v0zM785 820l-48 49l-50 -50v-2v-1l52 -47l46 51v0zM687 623h-360l-1 -1l51 -46l-47 -53h-2h359v100v0zM326 622l-49 -49l50 -50h1h2l47 53
l-51 46v0zM687 523h50l50 50l-50 50h-50v-100v0zM148 248l-1 2l-67 22l-21 -64l66 -25l24 62l-1 3v0zM687 132v-50h100l-50 50h-50v0zM327 131l-50 -49l49 -49l51 46l-47 52h-3v0zM787 573l-50 -50h-50l50 -391l50 -50v491v0z" />
    <glyph glyph-name="b" unicode="b" 
d="M677 879l60 -10l48 -49l2 1l-2 29l-5 30l-8 30l-11 29l-14 28l-17 25l-19 25l-22 21l-24 20l-26 17l-28 14l-29 11l-29 8l-31 5l-29 1l-1 -1l49 -48l-50 -50h-3l1 -1l22 -1l21 -3l20 -5l19 -8l18 -9l17 -11l16 -13l14 -14l13 -16l11 -18l10 -18l7 -19v0zM737 869l-60 10
l5 -20l4 -20l1 -22v2l50 50v0zM132 132l-50 883l-50 50v-983l50 50h50v0zM82 1015l50 -883v883h-50v0zM739 377v392l-52 47v1v-489v2l52 47v0zM739 769v-392l46 -51l2 1v492l-2 1l-46 -51v0zM677 266l60 11l-50 50v1l-1 -21l-4 -21l-5 -20v0zM737 277l-60 -11l-7 -19
l-10 -18l-11 -17l-13 -16l-14 -14l-16 -13l-17 -11l-19 -10l-18 -7l-20 -5l-21 -4l-20 -1l50 -49l-49 -49l2 -2l28 2l30 5l30 8l29 11l28 14l26 17l24 19l22 22l19 24l17 26l14 28l11 29l8 30l5 30l2 28l-2 2l-48 -49v0zM132 1115h-50l-50 -50l50 -50h50v100v0zM492 1113
l-51 -46l47 -52h3l50 50l-49 48v0zM492 1113l-1 2h-359v-100h356l-47 52l51 46v0zM785 820l-48 49l-50 -50v-2v-1l52 -47l46 51v0zM687 328v-1l50 -50l48 49l-46 51l-52 -47v-2v0zM132 132h-50l-50 -50h100v50v0zM491 131h-3l-47 -52l51 -46l49 49l-50 49v0zM491 131v1h-359
v-50h-100l50 -50h409l1 1l-51 46l47 52h3v0zM132 1115v523l-50 50l-50 -50v-573l50 50h50v0z" />
    <glyph glyph-name="c" unicode="c" horiz-adv-x="983" 
d="M141 879l-59 -10l49 -50l1 20l4 20l5 20v0zM82 869l59 10l7 19l10 18l11 18l13 16l14 14l16 13l17 11l18 9l19 8l20 5l21 3l22 1l-2 1l-50 50l49 48l-1 1l-29 -1l-31 -5l-29 -8l-29 -11l-28 -14l-26 -17l-24 -20l-22 -21l-19 -25l-17 -25l-14 -28l-11 -29l-8 -30l-5 -30
l-2 -29l2 -1l49 49v0zM327 1015l2 -1l1 1h-3v0zM79 377v392l-46 51l-1 -1v-492l1 -1l46 51v0zM79 769v-392l52 -47v-3h1v492h-1v-3l-52 -47v0zM141 266l-59 11l-49 49l-2 -2l2 -28l5 -30l8 -30l11 -29l14 -28l17 -26l19 -24l22 -22l24 -19l26 -17l28 -14l29 -11l30 -8l30 -5
l28 -2l2 2l-49 49l50 49l-20 1l-21 4l-20 5l-18 7l-19 10l-17 11l-16 13l-14 14l-13 16l-11 17l-10 18l-7 19v0zM82 277l59 -11l-5 20l-4 21l-1 20l-49 -50v0zM326 1113l51 -46l-47 -52h325l50 50l-50 50h-328l-1 -2v0zM326 1113l-49 -48l50 -50h3l47 52l-51 46v0zM131 819
l-49 50l-49 -49l46 -51l52 47v3v0zM131 327v3l-52 47l-46 -51l49 -49l49 50v0zM327 131h3l47 -52l-51 -46l1 -1h328l50 50l-50 50h-328v-1v0zM327 131l-50 -49l49 -49l51 46l-47 52h-3v0z" />
    <glyph glyph-name="d" unicode="d" 
d="M737 132l-50 883v-883h50v0zM141 879l-59 -10l49 -50l1 20l4 20l5 20v0zM82 869l59 10l7 19l10 18l11 18l13 16l14 14l16 13l17 11l18 9l19 8l20 5l21 3l22 1l-2 1l-50 50l49 48l-1 1l-29 -1l-31 -5l-29 -8l-29 -11l-28 -14l-26 -17l-24 -20l-22 -21l-19 -25l-17 -25
l-14 -28l-11 -29l-8 -30l-5 -30l-2 -29l2 -1l49 49v0zM687 1638l50 -523l50 -50v573l-50 50l-50 -50v0zM737 1115l-50 523v-523h50v0zM327 1015l2 -1l1 1h-3v0zM79 377v392l-46 51l-1 -1v-492l1 -1l46 51v0zM79 769v-392l52 -47v-3h1v492h-1v-3l-52 -47v0zM141 266l-59 11
l-49 49l-2 -2l2 -28l5 -30l8 -30l11 -29l14 -28l17 -26l19 -24l22 -22l24 -19l26 -17l28 -14l29 -11l30 -8l30 -5l28 -2l2 2l-49 49l50 49l-20 1l-21 4l-20 5l-18 7l-19 10l-17 11l-16 13l-14 14l-13 16l-11 17l-10 18l-7 19v0zM82 277l59 -11l-5 20l-4 21l-1 20l-49 -50v0z
M377 79l310 3v50h-360v-1h3l47 -52v0zM687 82l-310 -3l-51 -46l1 -1h410l50 50h-100v0zM687 1115h-360l-1 -2l51 -46l-47 -52h357v100v0zM326 1113l-49 -48l50 -50h3l47 52l-51 46v0zM687 1015h50l50 50l-50 50h-50v-100v0zM131 819l-49 50l-49 -49l46 -51l52 47v3v0z
M131 327v3l-52 47l-46 -51l49 -49l49 50v0zM687 132v-50h100l-50 50h-50v0zM327 131l-50 -49l49 -49l51 46l-47 52h-3v0zM787 1065l-50 -50h-50l50 -883l50 -50v983v0z" />
    <glyph glyph-name="e" unicode="e" 
d="M137 795l-55 -8l49 -50l2 29l4 29v0zM82 787l55 8l8 27l10 27l14 27l15 24l19 22l20 21l23 18l24 16l24 12v0l-63 24l26 66l-4 2l-33 -17l-33 -22l-31 -25l-28 -28l-25 -30l-21 -34l-18 -35l-14 -37l-10 -38l-7 -39l-2 -37l2 -1l49 49v0zM681 795l56 -8l48 -49l2 1l-2 37
l-7 39l-10 38l-14 37l-18 35l-21 34l-25 30l-28 28l-253 -3l29 -1l29 -5l28 -7l27 -11l26 -13l24 -16l23 -18l20 -21l19 -22l15 -24l14 -27l10 -27l8 -27v0zM737 787l-56 8l4 -29l2 -31v2l50 50v0zM737 623l2 64l-52 47v1v-112h50v0zM739 687l-2 -64v-100l50 50v164l-2 1
l-46 -51v0zM132 623l-53 64l-46 51l-1 -1v-164l50 50h50v0zM79 687l53 -64v114h-1v-3l-52 -47v0zM79 377l3 146l-50 50v-246l1 -1l46 51v0zM82 523l-3 -146l52 -47v-3h1v196h-50v0zM141 266l-59 11l-49 49l-2 -2l2 -28l5 -30l8 -30l11 -29l14 -28l17 -26l19 -24l22 -22
l24 -19l26 -17l28 -14l29 -11l30 -8l30 -5l28 -2l2 2l-49 49l50 49l-20 1l-21 4l-20 5l-18 7l-19 10l-17 11l-16 13l-14 14l-13 16l-11 17l-10 18l-7 19v0zM82 277l59 -11l-5 20l-4 21l-1 20l-49 -50v0zM257 1079l63 -20l-22 -67l-2 -2l27 11l28 7l29 5l29 1l253 3l-31 25
l-33 22l-35 18l-37 14l-39 10l-38 6l-40 2l-40 -2l-38 -6l-39 -10l-34 -13l-1 -4v0zM257 1079l-26 -66l63 -24l2 1l2 2l22 67l-63 20v0zM296 990l-2 -1v0l2 1v0zM785 738l-48 49l-50 -50v-2v-1l52 -47l46 51v0zM131 737l-49 50l-49 -49l46 -51l52 47v3v0zM687 623h-555v-100
h605l-50 50v50v0zM132 623h-50l-50 -50l50 -50h50v100v0zM687 623v-50l50 -50v100h-50v0zM131 327v3l-52 47l-46 -51l49 -49l49 50v0zM327 131h3l47 -52l-51 -46l1 -1h492l50 50l-50 50h-492v-1v0zM327 131l-50 -49l49 -49l51 46l-47 52h-3v0z" />
    <glyph glyph-name="f" unicode="f" horiz-adv-x="983" 
d="M305 1371l-60 -11l50 -50l1 21l3 20l6 20v0zM245 1360l60 11l7 19l9 18l12 17l12 16l15 15l16 12l17 12l18 9l19 7l20 6l21 3l20 1l-50 50l49 48l-2 2l-28 -2l-30 -5l-30 -8l-30 -11l-27 -14l-26 -17l-24 -19l-22 -22l-19 -24l-17 -26l-14 -27l-11 -29l-8 -30l-5 -31
l-2 -28l1 -2l49 49v0zM491 1506l-20 -1l21 1h-1v0zM295 1115l-53 145l-46 51l-1 -1v-195h100v0zM242 1260l53 -145v195v0v-3l-53 -47v0zM490 1604l51 -45l-47 -53h-2h163l50 50l-50 50h-164l-1 -2v0zM490 1604l-49 -48l50 -50h1h2l47 53l-51 45v0zM295 1310l-50 50l-49 -49
l46 -51l53 47v3v0zM295 1115h-100v-100h100v100v0zM195 1115h-195l-50 -50l50 -50h195v100v0zM295 1015h-100v-1015l50 -50l50 50v1015v0zM295 1015h360l50 50l-50 50h-360v-100v0z" />
    <glyph glyph-name="g" unicode="g" 
d="M491 -359h-2h-1h3v0zM687 32l52 -145l46 -52l2 2v244l-50 -49h-50v0zM739 -113l-52 145v-194v1l52 48v0zM687 1015l50 -883l50 -51v984l-50 50v-100h-50v0zM737 132l-50 883v-883h50v0zM141 879l-59 -10l49 -50l1 20l4 20l5 20v0zM82 869l59 10l7 19l10 18l11 18l13 16
l14 14l16 13l17 11l18 9l19 8l20 5l21 3l22 1l-2 1l-50 50l49 48l-1 1l-29 -1l-31 -5l-29 -8l-29 -11l-28 -14l-26 -17l-24 -20l-22 -21l-19 -25l-17 -25l-14 -28l-11 -29l-8 -30l-5 -30l-2 -29l2 -1l49 49v0zM327 1015l2 -1l1 1h-3v0zM79 377v392l-46 51l-1 -1v-492l1 -1
l46 51v0zM79 769v-392l52 -47v-3h1v492h-1v-3l-52 -47v0zM141 266l-59 11l-49 49l-2 -2l2 -28l5 -30l8 -30l11 -29l14 -28l17 -26l19 -24l22 -22l24 -19l26 -17l28 -14l29 -11l30 -8l30 -5l28 -2l2 2l-49 49l50 49l-20 1l-21 4l-20 5l-18 7l-19 10l-17 11l-16 13l-14 14
l-13 16l-11 17l-10 18l-7 19v0zM82 277l59 -11l-5 20l-4 21l-1 20l-49 -50v0zM677 -224l60 11l-50 50v1l-1 -22l-4 -20l-5 -20v0zM737 -213l-60 -11l-7 -19l-10 -18l-11 -17l-13 -16l-14 -15l-16 -13l-17 -11l-18 -9l-20 -7l-19 -6l-20 -3l-23 -1h2l50 -50l-49 -49l1 -1
l29 2l31 4l29 9l29 11l28 14l26 16l24 20l22 22l19 24l17 26l14 28l11 29l8 29l5 31l2 28l-2 1l-48 -48v0zM326 1113l51 -46l-47 -52h357v50l50 50h-410l-1 -2v0zM326 1113l-49 -48l50 -50h3l47 52l-51 46v0zM687 1015h50v100l-50 -50v-50v0zM131 819l-49 50l-49 -49l46 -51
l52 47v3v0zM131 327v3l-52 47l-46 -51l49 -49l49 50v0zM687 132h-360v-1h3l47 -52l-51 -46l1 -1h360v100v0zM327 131l-50 -49l49 -49l51 46l-47 52h-3v0zM687 32h50l50 49l-50 51h-50v-100v0zM687 -162v-1l50 -50l48 48l-46 52l-52 -48v-1v0zM488 -359h-406l-50 -50l50 -50
h409l1 1l-51 47l47 52v0zM488 -359l-47 -52l51 -47l49 49l-50 50h-3v0z" />
    <glyph glyph-name="h" unicode="h" 
d="M737 869l-60 10l5 -20l4 -20l1 -22v2l50 50v0zM132 0l-50 1015l-50 49v-1064l50 -50l50 50v0zM82 1015l50 -1015v1015h-50v0zM787 0l-48 769l-52 47v1v-817l50 -50l50 50v0zM739 769l48 -769v819l-2 1l-46 -51v0zM132 1115h-50l-50 -51l50 -49h50v100v0zM492 1113
l-51 -46l47 -52h3l50 50l-49 48v0zM492 1113l49 -48l-50 -50h-3l1 -1l22 -1l21 -3l20 -5l19 -8l18 -9l17 -11l16 -13l14 -14l13 -16l11 -18l10 -18l7 -19l60 -10l48 -49l2 1l-2 29l-5 30l-8 30l-11 29l-14 28l-17 25l-19 25l-22 21l-24 20l-26 17l-28 14l-29 11l-29 8l-31 5
l-29 1l-1 -1v0zM492 1113l-1 2h-359v-100h356l-47 52l51 46v0zM785 820l-48 49l-50 -50v-2v-1l52 -47l46 51v0zM132 1115v523l-50 50l-50 -50v-574l50 51h50v0z" />
    <glyph glyph-name="i" unicode="i" horiz-adv-x="491" 
d="M131 1475l-49 48v-48h49v0zM81 1425l-49 48v2l-49 -50l49 -50l49 49v1v0zM32 1473l49 -48v48h-49v0zM82 1475h-1v-2h1v2v0zM81 1475h-49v-2h49v2v0zM81 1475h1v48h-1v-48v0zM82 1473h-1v-48v-1l1 1v48v0zM82 1473h49v2h-49v-2v0zM82 1473v-48l-1 -1l50 -49v98h-49v0z
M81 1475v48h1l-50 50v-98h49v0zM81 1424l-49 -49h99l-50 49v0zM82 1523h99l-50 50h-99l50 -50v0zM32 1475v98l-49 -50v-98l49 50v0zM131 1473v-98l50 50v98l-50 -50v0zM82 -50l50 50v1146l-50 50l-50 -50v-1146l50 -50v0zM131 1475v-2l50 50h-99l49 -48v0z" />
    <glyph glyph-name="j" unicode="j" horiz-adv-x="491" 
d="M-163 -359h-3v0h3v0zM32 1146l52 -1259l46 -52l2 2v1309l-50 50l-50 -50v0zM84 -113l-52 1259v-1306l52 47v0zM82 1523l49 -48v-2l50 50h-99v0zM131 1475l-49 48v-48h49v0zM81 1425l-49 48v2l-49 -50l49 -50l49 49v1v0zM32 1473l49 -48v48h-49v0zM22 -224l60 11l-50 50v3
l-1 -1l-1 -23l-3 -20l-5 -20v0zM82 -213l-60 -11l-8 -19l-9 -18l-10 -17l-13 -16l-15 -15l-15 -13l-17 -11l-19 -9l-19 -7l-20 -6l-20 -3l-23 -1h3l50 -50l-49 -49l1 -1l29 2l30 4l30 9l29 11l28 14l25 17l24 19l21 22l20 24l17 26l14 28l11 29l8 29l5 31l1 28l-1 1l-48 -48
v0zM82 1475h-1v-2h1v2v0zM81 1475h-49v-2h49v2v0zM81 1475h1v48h-1v-48v0zM82 1473h-1v-48v-1l1 1v48v0zM82 1473h49v2h-49v-2v0zM82 1473v-48l-1 -1l50 -49v98h-49v0zM81 1475v48h1l-50 50v-98h49v0zM81 1424l-49 -49h99l-50 49v0zM32 -160v-3l50 -50l48 48l-46 52l-52 -47
v0zM-166 -359h-161l-50 -50l50 -50h164l1 1l-51 47l47 52v0zM-166 -359l-47 -52l51 -47l49 49l-50 50h-3v0zM82 1523h99l-50 50h-99l50 -50v0zM32 1475v98l-49 -50v-98l49 50v0zM131 1473v-98l50 50v98l-50 -50v0z" />
    <glyph glyph-name="k" unicode="k" 
d="M354 765l495 260l9 70l-70 9l-656 -511v-126l227 176l-27 55l22 67v0zM132 0l-20 452l-70 8l9 71l81 62v1045l-50 50l-50 -50v-1638l50 -50l50 50v0zM112 452l20 -452v467l-20 -15v0zM132 593l-81 -62l-9 -71l70 -8l20 15v126v0zM439 706l-80 -63l333 -665l67 -22l22 66
l-342 684v0zM439 706l410 319l-495 -260l67 -22l18 -37v0zM359 643l80 63l-18 37l-67 22l-22 -67l27 -55v0z" />
    <glyph glyph-name="l" unicode="l" horiz-adv-x="655" 
d="M79 377l-47 1261v-1311l1 -1l46 51v0zM141 266l-59 11l-49 49l-2 -2l2 -28l5 -30l8 -30l11 -29l14 -28l17 -26l19 -24l22 -22l24 -19l26 -17l28 -14l29 -11l30 -8l30 -5l28 -2l53 48l-47 52l-23 1l-21 4l-20 5l-19 7l-18 10l-17 11l-16 13l-14 14l-13 16l-11 17l-10 19
l-7 18v0zM82 277l59 -11l-5 20l-4 21l-1 20l-49 -50v0zM131 327v3l-52 47l-46 -51l49 -49l49 50v0zM131 327h1v1311l-50 50l-50 -50l47 -1261l52 -47v-3v0z" />
    <glyph glyph-name="m" unicode="m" horiz-adv-x="1474" 
d="M1065 869l-60 10l5 -20l3 -20l1 -23h1v3l50 50v0zM523 1065h-391v-50h391v50v0zM132 1065h391l50 50h-491l-50 -50h100v0zM132 0l-50 1015l-50 50v-1065l50 -50l50 50v0zM82 1015l50 -1015v1015h-50v0zM1115 0l-48 769l-52 47v-816l50 -50l50 50v0zM1067 769l48 -769v819
l-2 1l-46 -51v0zM820 1113l-51 -46l47 -52h3l50 50l-49 48v0zM820 1113l49 -48l-50 -50h-3v-1l23 -1l20 -3l20 -5l19 -8l19 -9l17 -11l16 -13l14 -14l13 -16l11 -17l9 -19l8 -19l60 -10l48 -49l1 1l-1 29l-5 30l-8 30l-11 29l-14 27l-17 26l-20 25l-21 21l-25 20l-26 17
l-27 14l-29 11l-30 8l-30 5l-29 1l-1 -1v0zM820 1113l-1 2h-246l50 -50v-50h193l-47 52l51 46v0zM623 1015h-100v-1015l50 -50l50 50v1015v0zM523 1015h100v50l-50 50l-50 -50v-50v0zM1113 820l-48 49l-50 -50v-3l52 -47l46 51v0zM132 1015v50h-100l50 -50h50v0z" />
    <glyph glyph-name="n" unicode="n" 
d="M737 869l-60 10l5 -20l4 -20l1 -22v2l50 50v0zM441 1067l-309 -2v-50h356l-47 52v0zM132 1065l309 2l51 46l-1 2h-409l-50 -50h100v0zM132 0l-50 1015l-50 50v-1065l50 -50l50 50v0zM82 1015l50 -1015v1015h-50v0zM787 0l-48 769l-52 47v1v-817l50 -50l50 50v0zM739 769
l48 -769v819l-2 1l-46 -51v0zM492 1113l-51 -46l47 -52h3l50 50l-49 48v0zM492 1113l49 -48l-50 -50h-3l1 -1l22 -1l21 -3l20 -5l19 -8l18 -9l17 -11l16 -13l14 -14l13 -16l11 -18l10 -18l7 -19l60 -10l48 -49l2 1l-2 29l-5 30l-8 30l-11 29l-14 28l-17 25l-19 25l-22 21
l-24 20l-26 17l-28 14l-29 11l-29 8l-31 5l-29 1l-1 -1v0zM785 820l-48 49l-50 -50v-2v-1l52 -47l46 51v0zM132 1015v50h-100l50 -50h50v0z" />
    <glyph glyph-name="o" unicode="o" 
d="M82 787l55 8l8 27l10 27l14 27l15 24l19 22l20 21l23 18l24 16l24 12v0l-63 24l26 66l-4 2l-33 -17l-33 -22l-31 -25l-28 -28l-25 -30l-21 -34l-18 -35l-14 -37l-10 -38l-7 -39l-2 -37l2 -1l49 49v0zM681 795l56 -8l48 -49l2 1l-2 37l-7 39l-10 38l-14 37l-18 35l-21 34
l-25 30l-28 28l-253 -3l29 -1l29 -5l28 -7l27 -11l26 -13l24 -16l23 -18l20 -21l19 -22l15 -24l14 -27l10 -27l8 -27v0zM737 787l-56 8l4 -29l2 -31v2l50 50v0zM739 459v228l-52 47v1v-325v2l52 47v0zM739 687v-228l46 -51l2 1v328l-2 1l-46 -51v0zM79 459v228l-46 51l-1 -1
v-328l1 -1l46 51v0zM79 687v-228l52 -47v-3h1v328h-1v-3l-52 -47v0zM681 351l56 8l-50 50v1l-2 -30l-4 -29v0zM737 359l-56 -8l-8 -28l-10 -27l-14 -26l-15 -24l-19 -23l-20 -20l-23 -19l-24 -15l-24 -13v0l63 -24l-25 -66l3 -1l33 17l33 21l31 25l28 28l25 31l21 33l18 35
l14 37l10 39l7 38l2 37l-2 2l-48 -49v0zM137 351l-55 8l-49 49l-2 -2l2 -37l7 -38l10 -39l14 -37l18 -35l21 -33l25 -31l28 -28l253 3l-29 2l-29 4l-28 8l-27 10l-26 14l-24 15l-23 19l-20 20l-19 23l-15 24l-14 26l-10 27l-8 28v0zM82 359l55 -8l-4 29l-2 29l-49 -50v0z
M257 1079l63 -20l-22 -67l-2 -2l27 11l28 7l29 5l29 1l253 3l-31 25l-33 22l-35 18l-37 14l-39 10l-38 6l-40 2l-40 -2l-38 -6l-39 -10l-34 -13l-1 -4v0zM257 1079l-26 -66l63 -24l2 1l2 2l22 67l-63 20v0zM296 990l-2 -1v0l2 1v0zM785 738l-48 49l-50 -50v-2v-1l52 -47
l46 51v0zM131 737l-49 50l-49 -49l46 -51l52 47v3v0zM131 737l2 29l4 29l-55 -8l49 -50v0zM687 410v-1l50 -50l48 49l-46 51l-52 -47v-2v0zM131 409v3l-52 47l-46 -51l49 -49l49 50v0zM524 156l-2 -1l2 1v0v0zM522 155l-2 -1l-22 -67l64 -21l25 66l-63 24l-2 -1v0zM522 155
l-27 -10l-28 -8l-29 -4l-29 -2l-253 -3l31 -25l33 -21l35 -18l37 -14l39 -10l38 -7l40 -2l40 2l38 7l39 10l34 13l2 3l-64 21l22 67l2 1v0z" />
    <glyph glyph-name="p" unicode="p" 
d="M677 879l60 -10l48 -49l2 1l-2 29l-5 30l-8 30l-11 29l-14 28l-17 25l-19 25l-22 21l-24 20l-26 17l-28 14l-29 11l-29 8l-31 5l-29 1l-1 -1l49 -48l-50 -50h-3l1 -1l22 -1l21 -3l20 -5l19 -8l18 -9l17 -11l16 -13l14 -14l13 -16l11 -18l10 -18l7 -19v0zM737 869l-60 10
l5 -20l4 -20l1 -22v2l50 50v0zM441 1067l-309 -2v-51l356 1l-47 52v0zM132 1065l309 2l51 46l-1 2h-409l-50 -50h100v0zM739 377v392l-52 47v1v-489v2l52 47v0zM739 769v-392l46 -51l2 1v492l-2 1l-46 -51v0zM677 266l60 11l-50 50v1l-1 -21l-4 -21l-5 -20v0zM737 277
l-60 -11l-7 -19l-10 -18l-11 -17l-13 -16l-14 -14l-16 -13l-17 -11l-19 -10l-18 -7l-20 -5l-21 -4l-20 -1l50 -49l-49 -49l2 -2l28 2l30 5l30 8l29 11l28 14l26 17l24 19l22 22l19 24l17 26l14 28l11 29l8 30l5 30l2 28l-2 2l-48 -49v0zM132 -491l-50 523l-50 50v-573
l50 -50l50 50v0zM82 32l50 -523v523h-50v0zM492 1113l-51 -46l47 -52h3l50 50l-49 48v0zM132 1014l-50 1l-50 50v-983l50 50h50v882v0zM785 820l-48 49l-50 -50v-2v-1l52 -47l46 51v0zM687 328v-1l50 -50l48 49l-46 51l-52 -47v-2v0zM132 132h-50l-50 -50l50 -50h50v100v0z
M491 131h-3l-47 -52l51 -46l49 49l-50 49v0zM491 131v1h-359v-100h359l1 1l-51 46l47 52h3v0zM132 1014v51h-100l50 -50l50 -1v0z" />
    <glyph glyph-name="q" unicode="q" 
d="M737 132l-50 882v-882h50v0zM141 879l-59 -10l49 -50l1 20l4 20l5 20v0zM82 869l59 10l7 19l10 18l11 18l13 16l14 14l16 13l17 11l18 9l19 8l20 5l21 3l22 1l-2 1l-50 50l49 48l-1 1l-29 -1l-31 -5l-29 -8l-29 -11l-28 -14l-26 -17l-24 -20l-22 -21l-19 -25l-17 -25
l-14 -28l-11 -29l-8 -30l-5 -30l-2 -29l2 -1l49 49v0zM327 1015l2 -1l1 1h-3v0zM79 377v392l-46 51l-1 -1v-492l1 -1l46 51v0zM79 769v-392l52 -47v-3h1v492h-1v-3l-52 -47v0zM141 266l-59 11l-49 49l-2 -2l2 -28l5 -30l8 -30l11 -29l14 -28l17 -26l19 -24l22 -22l24 -19
l26 -17l28 -14l29 -11l30 -8l30 -5l28 -2l2 2l-49 49l50 49l-20 1l-21 4l-20 5l-18 7l-19 10l-17 11l-16 13l-14 14l-13 16l-11 17l-10 18l-7 19v0zM82 277l59 -11l-5 20l-4 21l-1 20l-49 -50v0zM326 1113l51 -46l-47 -52l357 -1v51h100l-50 50h-410l-1 -2v0zM326 1113
l-49 -48l50 -50h3l47 52l-51 46v0zM687 1014l50 1l50 50h-100v-51v0zM131 819l-49 50l-49 -49l46 -51l52 47v3v0zM131 327v3l-52 47l-46 -51l49 -49l49 50v0zM687 132h-360v-1h3l47 -52l-51 -46l1 -1h360v100v0zM327 131l-50 -49l49 -49l51 46l-47 52h-3v0zM687 32h50l50 50
l-50 50h-50v-100v0zM687 32v-523l50 -50l50 50v573l-50 -50h-50v0zM787 82v983l-50 -50l-50 -1l50 -882l50 -50v0z" />
    <glyph glyph-name="r" unicode="r" horiz-adv-x="983" 
d="M328 1113l-51 -46l48 -52h2l50 50l-49 48v0zM328 1113l49 -48l-50 -50h-2v-1l22 -1l21 -3l20 -5l19 -8l18 -9l17 -11l16 -13l15 -14l12 -16l12 -17l9 -19l7 -19l6 -20l3 -20l1 -23l53 -47l47 52l-2 29l-5 30l-8 30l-11 29l-14 27l-17 26l-19 25l-22 21l-24 20l-26 17
l-28 14l-29 11l-29 8l-31 5l-29 1l-1 -1v0zM328 1113l-1 2h-245l50 -50v-51l193 1l-48 52l51 46v0zM132 1014l-50 1v100l-50 -50v-1065l50 -50l50 50v1014v0zM132 1014v51l-50 50v-100l50 -1v0z" />
    <glyph glyph-name="s" unicode="s" 
d="M704 522l-44 -6l52 -10l-8 16v0zM660 516l44 6l-541 191l2 -4l6 -9l-12 -70l-45 -6l541 -191l-9 14l14 69v0zM154 727l-7 -9l16 -5l-9 14v0zM147 718l7 9l-9 18l-6 20l-5 20l-2 20l-1 21l2 20l4 20l6 20l8 19l10 18l12 16l13 16l15 14l17 12l17 10l19 9l17 6h-2l-56 44
l38 48l-8 4l-26 -9l-28 -13l-27 -16l-25 -19l-22 -21l-21 -23l-18 -25l-15 -28l-12 -28l-9 -29l-6 -31l-2 -31v-31l4 -30l7 -31l10 -29l13 -28l15 -26l9 -12l17 -3l-24 49l64 30v0zM114 624l45 6l-52 9l7 -15v0zM659 427l12 1l-16 5l4 -6v0zM671 428l-12 -1l10 -18l7 -19
l6 -19l3 -21l2 -20l-1 -20l-3 -21l-5 -20l-7 -19l-9 -18l-11 -18l-13 -16l-14 -14l-16 -14l-17 -11l-18 -10l-19 -7h-1h10l56 -44l-40 -52l2 -1l6 2l28 12l28 14l25 18l24 19l22 23l19 24l16 26l14 28l10 29l8 30l4 31l2 31l-2 31l-6 30l-8 30l-12 29l-14 27l-16 23l-17 4
l23 -48l-64 -30v0zM251 1098l56 -27l-31 -63l-3 -1l8 1l31 2l32 3l32 1h33l359 18l-17 15l-18 12l-20 10l-23 9l-24 7l-27 7l-28 6l-31 5l-32 4l-34 3l-34 2l-35 2h-36h-36l-35 -2l-34 -2l-34 -3l-13 -2l-6 -7v0zM251 1098l-38 -48l56 -44l4 1l3 1l31 63l-56 27v0zM273 1007
l-4 -1h2l2 1v0zM107 639l52 -9l12 70l-6 9l-2 4l-16 5l-64 -30l24 -49v0zM712 506l-52 10l-14 -69l9 -14l16 -5l64 30l-23 48v0zM553 142l-1 -1v-1l11 2h-10v0zM552 140l-15 -2l-31 -3l-32 -2l-32 -1l-33 -1l-359 -17l16 -15l19 -13l20 -10l23 -8l24 -8l27 -6l28 -6l31 -5
l32 -4l34 -4l34 -2l35 -1l36 -1l36 1l35 1l34 2l34 4l28 3l3 4l-60 33l33 61v0zM552 140l-33 -61l60 -33l40 52l-56 44l-11 -2v0zM684 972h4h1v-1l58 -37l39 59l-5 17l-13 22l-359 -18h33l32 -1l32 -3l31 -2l29 -4l27 -4l24 -5l22 -6l19 -6l15 -5l11 -6v0zM688 972h-4l6 -4
l1 -1l-2 4l-1 1v0zM134 173l-4 1h-1v0l-58 38l-39 -59l5 -17l13 -22l359 17l-33 1l-32 1l-32 2l-31 3l-29 4l-27 4l-24 5l-22 6l-19 5l-15 6l-11 5v0zM130 174l4 -1l-6 4l-1 1l2 -4h1v0z" />
    <glyph glyph-name="t" unicode="t" horiz-adv-x="983" 
d="M295 1115h-100v-100h100v100v0zM195 1115h-195l-50 -50l50 -50h195v100v0zM195 1115h100v523l-50 50l-50 -50v-523v0zM295 1015h-100v-1015l50 -50l50 50v1015v0zM295 1015h360l50 50l-50 50h-360v-100v0z" />
    <glyph glyph-name="u" unicode="u" 
d="M737 132l-50 1014v-1014h50v0zM32 1146l47 -769l52 -47v-3h1v819l-50 50l-50 -50v0zM79 377l-47 769v-819l1 -1l46 51v0zM141 266l-59 11l-49 49l-2 -2l2 -28l5 -30l8 -30l11 -29l14 -28l17 -26l19 -24l22 -22l24 -19l26 -17l28 -14l29 -11l30 -8l30 -5l28 -2l2 2l-49 49
l50 49l-20 1l-21 4l-20 5l-18 7l-19 10l-17 11l-16 13l-14 14l-13 16l-11 17l-10 18l-7 19v0zM82 277l59 -11l-5 20l-4 21l-1 20l-49 -50v0zM131 327v3l-52 47l-46 -51l49 -49l49 50v0zM687 132h-360v-1h3l47 -52l-51 -46l1 -1h410l-50 50v50v0zM687 132v-50l50 -50v100h-50
v0zM327 131l-50 -49l49 -49l51 46l-47 52h-3v0zM737 132v-100l50 50v1064l-50 50l-50 -50l50 -1014v0z" />
    <glyph glyph-name="v" unicode="v" 
d="M394 128l29 -80l34 -35l-48 169l-15 -54v0zM394 128l-361 1005l328 -1146l10 10l-10 16l33 115v0zM409 182l48 -169l-83 -22l21 -39l62 35l328 1146l-35 61l-61 -34l-280 -978v0zM409 182l-279 978l-62 34l-35 -61l361 -1005l15 54v0zM394 128l-33 -115l10 -16l52 51
l-29 80v0zM374 -9l83 22l-34 35l-52 -51l3 -6v0z" />
    <glyph glyph-name="w" unicode="w" horiz-adv-x="1474" 
d="M538 829l83 -25l-41 -136l216 -537l15 69l-190 633l-62 34l-21 -38v0zM538 829l-3 -6l52 -52l34 33l-83 25v0zM535 823l-10 -19l38 -93l24 60l-52 52v0zM535 823l-10 10l-190 -633l7 -32l215 529l-32 107l10 19v0zM563 711l17 -43l41 136l-34 -33l-24 -60v0zM563 711
l-38 93l32 -107l6 14v0zM580 668l-17 43l-6 -14l16 -52l7 23v0zM796 131l33 -83l38 -34l-56 186l-15 -69v0zM796 131l-216 537l-7 -23l198 -659l9 10l-10 14l26 121v0zM316 137l5 -19l21 50l-7 32l-19 -63v0zM316 137l-283 999l245 -1146l10 9l-9 15l37 123v0zM321 118
l20 -71l35 -37l-34 158l-21 -50v0zM321 118l-5 19l-37 -123l42 104v0zM811 200l56 -186l-84 -24l25 -38l60 38l245 1146l-38 59l-59 -38l-205 -957v0zM316 137l19 63l-205 957l-59 38l-38 -59l283 -999v0zM557 697l-215 -529l34 -158l-85 -17l22 -40l62 33l198 659l-16 52v0
zM321 118l-42 -104l9 -15l53 48l-20 71v0zM796 131l-26 -121l10 -14l49 52l-33 83v0zM291 -7l85 17l-35 37l-53 -48l3 -6v0zM783 -10l84 24l-38 34l-49 -52l3 -6v0z" />
    <glyph glyph-name="x" unicode="x" 
d="M409 674l58 -101l313 548l-18 69l-69 -19l-284 -497v0zM409 674l-284 497l-68 19l-19 -69l314 -548l57 101v0zM467 573l-58 101l-57 -101l57 -101l58 101v0zM352 573l-314 -549l19 -67l68 19l284 496l-57 101v0zM409 472l284 -496l69 -19l18 67l-313 549l-58 -101v0z" />
    <glyph glyph-name="y" unicode="y" 
d="M114 -359v0v0v0v0zM365 -208l58 160l-62 35l-2 7l-64 -226l2 -3l1 3l67 24v0zM423 -48l-58 -160l20 -54l7 3l393 1392l-35 61l-61 -34l-278 -984l46 -163l-34 -61v0zM378 -299l-48 6l-33 58l-8 -19l-10 -17l-13 -17l-13 -15l-16 -13l-17 -12l-17 -10l-19 -8l-20 -7
l-20 -4l-21 -2h-9v0l50 -50l-49 -49l1 -1h13l30 3l31 7l29 9l28 12l28 16l24 18l24 20l20 23l19 25l16 27v0zM330 -293l48 -6l11 25l-4 12l-55 -31v0zM411 176l-281 984l-62 34l-35 -61l326 -1139l52 182v0zM359 -6l2 -7l62 -35l34 61l-46 163l-52 -182v0zM385 -262l-20 54
l-67 -24l-1 -3l33 -58l55 31v0zM114 -359h-114l-50 -50l50 -50h114l1 1l-50 48l49 51v0zM114 -359l-49 -51l50 -48l49 49l-50 50v0v0z" />
    <glyph glyph-name="z" unicode="z" 
d="M819 32l-781 17l12 33l-73 26l-27 -26l50 -50h819v0zM38 49l781 -17l50 50l-50 50h-713l-68 -83v0zM813 1100l-33 -3l-68 -82h107l-32 11l26 74v0zM813 1100l-26 -74l32 -11h-107l-750 -901l15 -6l23 24h106l751 900l-6 71l-38 -3v0zM813 1100l6 15h-819l-50 -50l50 -50
h712l68 82l33 3v0zM106 132h-106l-23 -24l73 -26l-12 -33l68 83v0z" />
    <glyph glyph-name="braceleft" unicode="{" horiz-adv-x="819" 
d="M245 623l-59 10l5 -20l3 -20l1 -22v-1v3l50 50v0zM-2 869l4 -1l28 -1l31 -5l30 -8l29 -11l27 -14l16 -10l10 6l24 20l22 21l20 25l17 26l14 27l11 29l8 30l5 30l1 29l-1 1l-49 -48l-59 -11l-8 -19l-9 -19l-11 -17l-13 -16l-15 -14l-15 -13l-18 -11l-18 -9l-19 -8l-20 -5
l-20 -3l-22 -1v0zM2 868l-4 1l-24 -26l28 25v0zM305 1371l-60 -11l50 -50l1 21l3 20l6 20v0zM245 1360l60 11l7 19l9 18l12 17l12 16l15 15l16 12l17 12l18 9l19 7l20 6l21 3l23 1l47 53l-53 47l-28 -2l-30 -5l-30 -8l-30 -11l-27 -14l-26 -17l-24 -19l-22 -22l-19 -24
l-17 -26l-14 -27l-11 -29l-8 -30l-5 -31l-2 -28l1 -2l49 49v0zM247 1114l-5 146l-46 51l-1 -1v-243l52 47v0zM242 1260l5 -146l47 -51l1 2v245v0v-3l-53 -47v0zM186 1004l59 11l-50 50v2v0l-1 -23l-3 -20l-5 -20v0zM-2 769h4l-28 26l24 -26v0zM2 769h-4l22 -1l20 -4l20 -5
l19 -7l18 -10l18 -11l15 -13l15 -14l13 -16l11 -17l9 -19l8 -19l59 -10l49 -49l1 1l-1 29l-5 30l-8 30l-11 29l-14 28l-17 26l-20 24l-22 22l-24 19l-10 7l-16 -11l-27 -14l-29 -11l-30 -8l-31 -5l-28 -1v0zM242 213l5 310l-52 47v-407l2 -1l45 51v0zM247 523l-5 -310
l53 -47v-3v0v410l-1 1l-47 -51v0zM305 103l-60 10l-48 49l-2 -1l2 -29l5 -30l8 -30l11 -29l14 -28l17 -25l19 -24l22 -21l24 -20l26 -17l27 -14l30 -11l30 -8l30 -5l28 -1l53 47l-47 53l-23 1l-21 3l-20 5l-19 8l-18 9l-17 10l-16 13l-15 15l-13 15l-11 17l-9 19l-7 19v0z
M245 113l60 -10l-6 19l-3 21l-1 20l-50 -50v0zM295 1310l-50 50l-49 -49l46 -51l53 47v3v0zM195 1067v-2l50 -50l49 48l-47 51l-52 -47v0zM-26 843l-23 -22l2 -2l21 24v0zM-26 843l-21 -24l21 -24l28 -26l28 1l31 5l30 8l29 11l27 14l16 11l-16 10l-27 14l-29 11l-30 8
l-31 5l-28 1l-28 -25v0zM-47 819l-2 -3l23 -21l-21 24v0zM294 574l-49 49l-50 -50v-3l52 -47l47 51v0zM295 163v3l-53 47l-45 -51l48 -49l50 50v0z" />
    <glyph glyph-name="bar" unicode="|" horiz-adv-x="655" 
d="M245 1688l-50 -50v-1638l50 -50l50 50v1638l-50 50v0z" />
    <glyph glyph-name="braceright" unicode="}" horiz-adv-x="819" 
d="M245 623l60 10l7 19l9 19l12 17l12 16l15 14l16 13l17 11l18 10l19 7l20 5l20 4l23 1h-4l-29 1l-31 5l-30 8l-28 11l-28 14l-16 11l-10 -7l-24 -19l-22 -22l-19 -24l-17 -26l-14 -28l-11 -29l-8 -30l-5 -30l-2 -28l2 -2l48 49v0zM493 869l-4 -1l28 -25l-24 26v0zM489 868
l4 1l-23 1l-20 3l-20 5l-19 8l-18 9l-17 11l-16 13l-15 14l-12 16l-12 17l-9 19l-7 19l-60 11l-48 48l-2 -1l2 -29l5 -30l8 -30l11 -29l14 -27l17 -26l19 -25l22 -21l24 -20l10 -6l16 10l28 14l28 11l30 8l31 5l29 1v0zM186 1371l59 -11l49 -49l1 1l-1 29l-5 31l-8 29
l-11 29l-14 28l-17 26l-20 24l-22 22l-24 19l-26 17l-27 14l-29 11l-30 8l-31 5l-28 2l-51 -47l47 -53l22 -1l20 -3l20 -6l19 -7l18 -9l18 -12l15 -12l15 -15l13 -16l11 -17l9 -18l8 -19v0zM245 1360l-59 11l5 -20l3 -20l1 -23v0v2l50 50v0zM242 1114l5 146l-52 48v-243
l2 -2l45 51v0zM247 1260l-5 -146l53 -47v-3v1v245l-1 1l-47 -51v0zM245 1015l60 -11l-6 20l-3 20l-1 20l-50 -49v0zM489 769h4l24 26l-28 -26v0zM247 213l-5 310l-45 51l-2 -1v-407l52 47v0zM242 523l5 -310l47 -51l1 1v410v0v-3l-53 -47v0zM186 103l59 10l-50 50v3v0
l-1 -23l-3 -20l-5 -20v0zM245 113l-59 -10l-8 -19l-9 -19l-11 -17l-13 -15l-14 -15l-16 -13l-18 -10l-18 -9l-19 -8l-20 -5l-20 -3l-22 -1l-47 -53l51 -47l28 1l31 5l30 8l29 11l27 14l26 17l24 20l22 21l20 24l17 25l14 28l11 29l8 30l5 30l1 29l-1 1l-49 -49v0zM294 1311
l-49 49l-50 -50v-2l52 -48l47 51v0zM295 1064v3l-53 47l-45 -51l48 -48l50 49v0zM517 843l-28 25l-29 -1l-31 -5l-30 -8l-28 -11l-28 -14l-16 -10l16 -11l28 -14l28 -11l30 -8l31 -5l29 -1l28 26l22 24l-22 24v0zM517 843l22 -24l2 2l-24 22v0zM517 795l24 21l-2 3l-22 -24
v0zM295 573l-50 50l-48 -49l45 -51l53 47v3v0zM295 573l1 20l3 21l6 19l-60 -10l50 -50v0zM195 166v-3l50 -50l49 49l-47 51l-52 -47v0z" />
    <glyph glyph-name="asciitilde" unicode="~" 
d="M442 856v0l4 -71l-62 -3l210 5l-24 3l-23 5l-23 7l-22 10l-21 12l-19 14l-19 18h-1v0zM442 856l-23 21l-28 20l-30 17l-31 14l-33 11l-33 7l-35 4h-34l-34 -4l-34 -7l-32 -11l-32 -14l-29 -17l-28 -20l-23 -21l-4 -71l70 -4l20 18l19 14l21 12l22 10l23 7l23 5l23 3h24
l210 5l8 1v0zM442 856l-8 -1l8 1v0v0zM434 855l-62 -3l4 -70h8l62 3l-4 71l-8 -1v0zM434 855l-210 -5l24 -3l23 -5l23 -7l22 -10l21 -12l19 -14l19 -18h1v1l-4 70l62 3v0zM384 782h-8v-1l8 1v0zM384 782l-8 -1l23 -21l28 -20l30 -17l31 -14l33 -11l33 -7l35 -3h34l34 3l34 7
l32 11l32 14l29 17l28 20l24 21l4 71l-71 4l-20 -18l-19 -14l-21 -12l-22 -10l-23 -7l-23 -5l-23 -3h-24l-210 -5v0z" />
    <glyph glyph-name="uni0081" horiz-adv-x="655" 
d="M330 819h-85l13 -35l72 29v6v0zM330 813l-72 -29l5 -64l66 62l1 31v0zM330 819l1 34l-71 2l-294 -279l-2 -70l70 -2l211 199v116h85v0zM330 813l-1 -31l-66 -62l82 -1047v1146l-15 -6v0zM263 720l-18 -17v-1030l50 -50l50 50l-82 1047v0zM245 703l18 17l-5 64l-13 35
v-116v0z" />
    <glyph glyph-name="uni008D" horiz-adv-x="819" 
d="M571 1956l-46 -25l-20 -65l68 1l-15 2l13 87v0zM571 1956l-13 -87l15 -2l-68 -1l-113 -358h105l124 394l-33 62l-17 -8v0zM571 1956l2 11h-573l-50 -50l50 -50l505 -1l20 65l46 25v0zM497 1508h-105l-31 -100h105l31 100v0zM392 1508h-163l-50 -50l50 -50h132l31 100v0z
M466 1408h-105l-180 -574l33 -63l63 33l189 604v0zM466 1408h107l50 50l-50 50h-76l-31 -100v0z" />
    <glyph glyph-name="uni008F" horiz-adv-x="819" 
d="M535 1359l-61 34v-77l1 5l60 38v0zM124 1742l-59 -5l50 -50l1 19l3 18l5 18v0zM65 1737l59 5l6 18l9 17l10 15l12 15l13 13l15 12l16 10l15 8h-1l-62 24l25 66l-4 1l-23 -12l-25 -16l-23 -18l-20 -21l-19 -23l-16 -24l-13 -26l-10 -28l-8 -28l-5 -29l-1 -27l1 -1l49 49v0
zM465 1742l59 -5l49 -49l1 1l-2 27l-4 29l-8 28l-10 28l-14 26l-16 24l-18 23l-21 21l-23 18l-24 16l-26 13l-27 11l-28 7l-30 5l-29 1l-29 -1l-29 -5l-28 -7l-25 -10l-1 -3l64 -21l-16 -49l64 -4l19 -1l19 -3l18 -4l17 -7l17 -9l16 -10l14 -12l14 -13l11 -15l11 -15l8 -17
l7 -18v0zM524 1737l-59 5l5 -18l3 -18l1 -20v1l50 50v0zM524 1393l2 244l-52 47v2v-293h50v0zM526 1637l-2 -244l50 -50v344l-1 1l-47 -51v0zM62 1622v15l-46 51l-1 -1v-115l1 -1l46 51v0zM62 1637v-15l53 -47v-3v0v115v0v-3l-53 -47v0zM124 1517l-59 5l-49 49l-1 -1l1 -27
l5 -29l8 -28l10 -28l13 -26l16 -24l19 -23l20 -20l23 -19l25 -16l26 -13l27 -10l28 -8l29 -5l27 -1l1 1l-48 49l50 50v0l-19 1l-19 3l-18 5l-17 6l-17 9l-16 10l-15 12l-13 13l-12 15l-10 16l-9 16l-6 18v0zM65 1522l59 -5l-5 18l-3 18l-1 19l-50 -50v0zM461 1259l63 1
l-33 33h-22l-8 -34v0zM524 1260l-63 -1l-20 -59l-25 -56l-32 -52l-36 -50l-42 -45l-46 -40l-50 -36l-54 -30l-58 -25l-2 -1l-28 -65l65 -28l3 2l65 27l62 36l59 41l54 48l49 53l43 57l36 62l30 65l23 69l15 67l-3 6l-45 -45v0zM182 1940l-25 -66l73 -4l16 49l-64 21v0z
M230 1870l-73 4l62 -24l3 1l2 1l6 18v0zM230 1870l-6 -18l-2 -1l17 7l18 4l19 3l18 1l-64 4v0zM222 1851l-3 -1h1l2 1v0zM573 1688l-49 49l-50 -50v-1v-2l52 -47l47 51v0zM115 1687l-50 50l-49 -49l46 -51l53 47v3v0zM115 1572v3l-53 47l-46 -51l49 -49l50 50v0zM474 1393
h-179h2l47 -53l-51 -46l2 -1h174l5 23v77v0zM295 1393v0l-50 -50l48 -49l51 46l-47 53h-2v0zM474 1316v-6l17 -17h33l32 32l-21 34l-60 -38l-1 -5v0zM556 1325l13 -20l5 5v33l-18 -18v0zM569 1305l-13 20l-32 -32h-33l33 -33l45 45v0zM556 1325l18 18l-50 50h-50l61 -34
l21 -34v0zM469 1293h22l-17 17v6l-5 -23v0z" />
    <glyph glyph-name="uni0090" horiz-adv-x="1474" 
d="M1065 132l-492 1340l423 -1340h69v0zM607 1649l-19 37l-63 -33l-491 -1556l4 -9l44 44h68l423 1340l-48 151l82 26v0zM610 1643l11 -20l-35 -109l526 -1417l-491 1556l-11 -10v0zM610 1643l-3 6l-82 -26l33 -33l52 53v0zM610 1643l-52 -53l28 -76l35 109l-11 20v0z
M996 132h-846l-21 -66l-54 -28l7 -6h983l-2 11l-46 23l-21 66v0zM150 132h-68l-44 -44l15 -28l22 -22l54 28l21 66v0zM586 1514l-28 76l-33 33l48 -151l13 42v0zM38 88l-6 -6l21 -22l-15 28v0zM586 1514l-13 -42l492 -1340l-16 -3l14 -86l17 -9l32 63l-526 1417v0zM996 132
l21 -66l46 -23l-14 86l16 3h-69v0zM53 60l13 -26l9 4l-22 22v0z" />
    <glyph glyph-name="uni00A0" unicode="&#xa0;" 
d="M409 653l64 -80l303 378l-8 71l-70 -8l-289 -361v0zM409 653l-288 361l-71 8l-8 -71l303 -378l64 80v0zM473 573l-64 80l-64 -80l64 -80l64 80v0zM345 573l-303 -378l8 -71l71 8l288 361l-64 80v0zM409 493l289 -361l70 -8l8 71l-303 378l-64 -80v0z" />
    <glyph glyph-name="exclamdown" unicode="&#xa1;" horiz-adv-x="655" 
d="M213 1557l-49 48v-48h49v0zM163 1507l-49 48v2l-50 -50l50 -50l49 49v1v0zM114 1555l49 -48v48h-49v0zM164 1557h-1v-2h1v2v0zM163 1557h-49v-2h49v2v0zM163 1557h1v48h-1v-48v0zM164 1555h-1v-48v-1l1 1v48v0zM164 1555h49v2h-49v-2v0zM164 1555v-48l-1 -1l50 -49v98
h-49v0zM163 1557v48h1l-50 50v-98h49v0zM163 1506l-49 -49h99l-50 49v0zM164 1605h99l-50 50h-99l50 -50v0zM114 1557v98l-50 -50v-98l50 50v0zM213 1555v-98l50 50v98l-50 -50v0zM163 1196l-50 -50v-1146l50 -50l50 50v1146l-50 50v0zM213 1557v-2l50 50h-99l49 -48v0z" />
    <glyph glyph-name="cent" unicode="&#xa2;" horiz-adv-x="983" 
d="M141 879l-59 -10l49 -50l1 20l4 20l5 20v0zM82 869l59 10l7 19l10 18l11 18l13 16l14 14l16 13l17 11l18 9l19 8l20 5l21 3l22 1l-2 1l-50 50l49 48l-1 1l-29 -1l-31 -5l-29 -8l-29 -11l-28 -14l-26 -17l-24 -20l-22 -21l-19 -25l-17 -25l-14 -28l-11 -29l-8 -30l-5 -30
l-2 -29l2 -1l49 49v0zM327 1015l2 -1l1 1h-3v0zM79 623v146l-46 51l-1 -1v-246l1 -1l46 51v0zM79 769v-146l52 -47v-3h1v246h-1v-3l-52 -47v0zM141 512l-59 11l-49 49l-2 -2l2 -28l5 -31l8 -29l11 -29l14 -28l17 -26l19 -24l22 -22l24 -19l26 -17l28 -14l29 -11l30 -8l30 -5
l28 -2l2 1l-49 49l50 50h1l-21 1l-21 3l-20 6l-18 7l-19 9l-17 12l-16 13l-14 14l-13 16l-11 17l-10 18l-7 19v0zM82 523l59 -11l-5 20l-4 20l-1 21l-49 -50v0zM459 1115h-100v-32l18 -16l-18 -20v-32h100v100v0zM359 1115h-32l-1 -2l33 -30v32v0zM359 1115h100v195l-50 50
l-50 -50v-195v0zM359 1083l-33 30l-49 -48l50 -50h3l29 32v36v0zM459 1015h-100v-638h100v638v0zM459 1015h196l50 50l-50 50h-196v-100v0zM330 1015h29v32l-29 -32v0zM359 1047l18 20l-18 16v-36v0zM131 819l-49 50l-49 -49l46 -51l52 47v3v0zM131 573v3l-52 47l-46 -51
l49 -49l49 50v0zM459 377h-100v-33l18 -20l-18 -16v-31h100v100v0zM359 377h-31h2l29 -33v33v0zM328 377h-1l-50 -50l49 -49l33 30v36l-29 33h-2v0zM359 308l-33 -30l1 -1h32v31v0zM359 308l18 16l-18 20v-36v0zM459 277h-100v-277l50 -50l50 50v277v0zM459 277h196l50 50
l-50 50h-196v-100v0z" />
    <glyph glyph-name="sterling" unicode="&#xa3;" 
d="M277 851l53 -392l46 -51l1 1v442h-100v0zM330 459l-53 392v-441v2l53 47v0zM280 1121l47 -6l50 -50v-2l2 47l8 46l12 45l16 43l21 41l25 39l29 36l33 33l36 29l39 25l41 21l43 16l45 12l46 7l48 3l47 53l-52 47l-54 -3l-56 -9l-55 -15l-53 -20l-50 -26l-48 -30l-44 -36
l-40 -40l-36 -44l-30 -48l-26 -50l-20 -53l-15 -55l-9 -56v0zM327 1115l-47 6l-3 -54l1 -1l49 49v0zM377 951l-52 63l-47 52l-1 -1v-114h100v0zM325 1014l52 -63v112v-1l-52 -48v0zM271 351l56 8l-50 50v1l-1 -30l-5 -29v0zM327 359l-56 -8l-7 -28l-11 -27l-13 -26l-16 -24
l-18 -23l-21 -20l-22 -19l-25 -15l-26 -14l-27 -10l-28 -8l-29 -4l-26 -1h253l25 24l25 31l21 33l18 35l15 37l10 39l6 38l2 37l-1 2l-49 -49v0zM278 1066l47 -52l52 48v1v2l-50 50l-49 -49v0zM377 951h-100v-100h100v100v0zM277 951h-114l-50 -50l50 -50h114v100v0z
M377 851h278l50 50l-50 50h-278v-100v0zM277 410v-1l50 -50l49 49l-46 51l-53 -47v-2v0zM255 132h-253l-2 -1l-23 -23l-25 -28l26 -26l24 -22h3l34 1l39 7l38 10l37 14l35 18l33 21l31 25l3 4v0zM2 132h-2v-1l2 1v0zM0 131h-2l-21 -23l23 23v0zM255 132l-3 -4l-31 -25
l-33 -21l-35 -18l-37 -14l-38 -10l-39 -7l-34 -1h814l50 50l-50 50h-564v0zM-23 108l-27 -26l2 -2l25 28v0zM-48 80l-1 -1l27 -25l-26 26v0zM-22 54l22 -22h2l-24 22v0zM5 32h-3v-1l3 1v0z" />
    <glyph glyph-name="currency" unicode="&#xa4;" 
d="M22 1027l819 320l22 67l-67 23l-818 -410l11 -11l33 11v0zM-22 938h44l22 22l-55 56l-33 -11l22 -67v0zM22 938h-44l818 -410l67 23l-22 67l-730 365l-89 -45v0zM-11 1016l55 -56l-22 -22l89 45l-89 44l-33 -11v0zM111 983l730 364l-819 -320l89 -44v0zM-50 327l50 -50
h819l50 50l-50 50h-819l-50 -50v0z" />
    <glyph glyph-name="yen" unicode="&#xa5;" 
d="M546 869h-104l-29 -100h104l29 100v0zM442 869h-442l-50 -50l50 -50h413l29 100v0zM442 869h104l75 264l-34 61l-62 -34l-83 -291v0zM517 769h-104l-112 -392h104l112 392v0zM517 769h302l50 50l-50 50h-273l-29 -100v0zM405 377h-104l-28 -100h104l28 100v0zM301 377
h-301l-50 -50l50 -50h273l28 100v0zM377 277h-104l-76 -264l35 -61l61 35l84 290v0zM377 277h442l50 50l-50 50h-414l-28 -100v0z" />
    <glyph glyph-name="brokenbar" unicode="&#xa6;" 
d="M796 1027h45l-819 410l-66 -23l22 -67l729 -364l89 44v0zM-22 618l818 320l-89 45l-729 -365v0zM796 938l-818 -320l-22 -67l66 -23l819 410l22 67l-33 11l-56 -56l22 -22v0zM830 1016l-34 11l-89 -44l89 -45l-22 22l56 56v0zM830 1016l11 11h-45l34 -11v0zM-50 327
l50 -50h819l50 50l-50 50h-819l-50 -50v0z" />
    <glyph glyph-name="section" unicode="&#xa7;" 
d="M704 522l-44 -6l52 -10l-8 16v0zM660 516l44 6l-295 1l-50 49l49 51h10l-255 90l2 -4l6 -9l-12 -70l-45 -6l541 -191l-9 14l14 69v0zM554 633h10l55 -44l-23 -29l23 -8l24 13l25 17l24 20l22 22l19 24l16 27l14 28l10 28l8 30l5 31l1 31l-2 31l-6 30l-8 30l-100 5l-16 6
l4 -6l10 -18l7 -19l6 -20l3 -20l2 -20l-1 -21l-3 -20l-5 -20l-7 -19l-9 -19l-11 -17l-13 -16l-14 -15l-16 -13l-16 -11l-19 -10l-19 -8v0zM564 633h-10l-8 -2l18 2v0zM154 727l-7 -9l16 -5l-9 14v0zM147 718l7 9l-9 18l-6 20l-5 20l-2 20l-1 21l2 20l4 20l6 20l8 19l10 18
l12 16l13 16l15 14l17 12l17 10l19 9l19 7l-4 -1l-175 -5l-18 -25l-15 -28l-12 -28l-9 -29l-6 -31l-2 -31v-31l4 -30l7 -31l10 -29l13 -28l15 -26l9 -12l17 -3l-24 49l64 30v0zM704 1013l-44 -5l52 -11l-8 16v0zM660 1008l44 5l-541 191l2 -4l6 -8l-12 -70l-45 -6l295 -2
l50 -49l-49 -51h-9l254 -89l-9 13l14 70v0zM257 1105l-14 -3l8 -4l6 7v0zM243 1102l14 3l13 2l34 3l34 2l35 2h36l-295 2l86 -31l17 8l26 9v0zM154 1218l-7 -8l16 -6l-9 14v0zM147 1210l7 8l-9 19l-6 19l-5 20l-2 21l-1 20l2 21l4 20l6 19l8 19l10 18l12 17l13 15l15 14
l17 12l17 11l19 9l17 6h-3l-55 44l38 48l-8 4l-26 -10l-29 -13l-26 -16l-25 -18l-22 -21l-21 -23l-18 -26l-15 -27l-12 -29l-9 -29l-6 -31l-2 -30v-31l4 -31l7 -30l10 -29l13 -29l16 -26l8 -11l16 -3l-23 48l64 31v0zM114 1116l45 6l-53 9l8 -15v0zM94 1001l175 5l-56 44
l19 24l-32 11l-11 -5l-27 -16l-25 -19l-22 -21l-21 -23v0zM671 919l100 -5l-12 29l-14 27l-16 24l-17 3l23 -48l-64 -30v0zM114 624l45 6l-52 9l7 -15v0zM576 534l-2 1l-63 32l10 20l-103 36h-10l-49 -51l50 -49h36l35 2l34 2l34 3l28 4v0zM574 535l2 -1l2 2l-4 -1v0z
M409 523l295 -1l-85 30l-4 -2l-28 -11l-9 -3l-2 -2l-28 -4l-34 -3l-34 -2l-35 -2h-36v0zM659 427l12 1l-16 5l4 -6v0zM671 428l-12 -1l10 -18l7 -19l6 -19l3 -21l2 -20l-1 -20l-3 -21l-5 -20l-7 -19l-9 -18l-11 -18l-13 -16l-14 -14l-16 -14l-17 -11l-18 -10l-19 -7v0h10
l55 -44l-42 -54l10 3l28 12l28 14l25 18l24 19l22 23l19 24l16 26l14 28l10 29l8 30l4 31l2 31l-2 31l-6 30l-8 30l-12 29l-14 27l-16 23l-17 4l23 -48l-64 -30v0zM238 43h336l-63 33l32 62l4 1l-10 -1l-31 -3l-32 -2l-32 -1l-33 -1l-359 -17l16 -15l19 -13l20 -10l23 -8
l24 -8l27 -6l28 -6l31 -5v0zM574 43h-336l32 -4l34 -4l34 -2l35 -1l36 -1l36 1l35 1l34 2l34 4l28 3l1 2l-3 -1v0zM251 1590l56 -27l-31 -64l-4 -1l9 1l31 3l32 2l32 2h33l359 17l-16 16l-19 12l-20 10l-23 8l-24 8l-27 7l-28 5l-31 5l-32 4l-34 4l-34 2l-35 1l-36 1l-36 -1
l-35 -1l-34 -2l-33 -4l-14 -1l-6 -7v0zM251 1590l-38 -48l55 -44h4l4 1l31 64l-56 27v0zM272 1498h-4h3h1v0zM106 1131l53 -9l12 70l-6 8l-2 4l-16 6l-64 -31l23 -48v0zM251 1098l56 -27l-10 -20l104 -37h9l49 51l-50 49h-36l-35 -2l-34 -2l-34 -3l-13 -2l-6 -7v0zM251 1098
l-8 4l-26 -9l-17 -8l32 -11l19 24v0zM251 1098l-19 -24l65 -23l10 20l-56 27v0zM232 1074l-19 -24l56 -44l4 1l3 1l21 43l-65 23v0zM297 1051l-21 -43l-3 -1l8 1l31 2l32 3l32 1h25l-104 37v0zM712 997l-52 11l-14 -70l9 -13l16 -6l64 30l-23 48v0zM107 639l52 -9l12 70
l-6 9l-2 4l-16 5l-64 -30l24 -49v0zM546 631l-3 -1l-22 -43l75 -27l23 29l-55 44l-18 -2v0zM546 631l-9 -1l-31 -3l-32 -2l-32 -2h-24l103 -36l22 43l3 1v0zM521 587l-10 -20l63 -32l4 1l18 24l-75 27v0zM578 536l9 3l28 11l4 2l-23 8l-18 -24v0zM712 506l-52 10l-14 -69
l9 -14l16 -5l64 30l-23 48v0zM554 142l-7 -3l17 3h-10v0zM547 139l-4 -1l-32 -62l63 -33l3 1l42 54l-55 44l-17 -3v0zM134 173l-4 1h-1v0l-58 38l-39 -59l5 -17l13 -22l359 17l-33 1l-32 1l-32 2l-31 3l-29 4l-27 4l-24 5l-22 6l-19 5l-15 6l-11 5v0zM130 174l4 -1l-6 4
l-1 1l2 -4h1v0zM684 1464h4h1v-1l58 -38l39 59l-5 17l-13 22l-359 -17h33l32 -2l32 -2l31 -3l29 -4l27 -4l24 -5l22 -5l19 -6l15 -6l11 -5v0zM688 1464h-4l6 -4l1 -1l-2 4l-1 1v0z" />
    <glyph glyph-name="dieresis" unicode="&#xa8;" 
d="M264 428l1 12l-2 2l-2 2l-70 -1v-18l3 3h70v0zM595 633l62 -10l46 -50l2 2l-2 29l-5 30l-8 30l-11 29l-14 28l-15 23l-25 -26h-71l1 -14l12 -16l12 -17l9 -19l7 -19v0zM657 623l-62 10l5 -20l4 -20l1 -20v2l52 48v0zM555 704l-1 14v52l-145 -1l21 -1l20 -4l19 -5l20 -7
l18 -10l17 -11l16 -13l15 -14v0zM263 704l-69 14l-26 26l-15 -23l-14 -28l-11 -29l-8 -30l-5 -30l-2 -31l2 -31l5 -31l8 -29l11 -29l14 -28l15 -23l23 23v18l70 1h1l-11 14l-12 17l-9 18l-7 19l-5 20l-4 20l-1 21l1 20l4 20l5 20l7 19l9 19l12 17l12 16v0zM194 718l69 -14
l15 14l16 13l17 11l16 9v0l-63 24l26 66l-3 1l-26 -13l-23 -15l26 -26v-70h-70v0zM651 520l6 3l-52 48v2l-1 -21l-4 -20l-5 -20l-7 -19l1 2l62 25v0zM657 523l-6 -3l26 -66l3 1l10 27l8 29l5 31l2 29l-2 2l-46 -50v0zM656 411l-40 15l-8 18l-50 2l-3 -4l-2 -66l76 -1l19 24
l8 12v0zM616 426l40 -15l-22 23l-18 -8v0zM191 373h71l-71 4v-4v0zM262 373h-71l20 -20l24 -19l3 -2l26 25v65l-2 -49v0zM290 841l64 -21l-22 -67l-3 -1l20 7l19 5l20 4l21 1l145 1v18l26 26l-23 15l-28 14l-29 11l-29 8l-31 5l-31 1l-31 -1l-31 -5l-29 -8l-27 -10l-1 -3v0z
M580 814l3 -2l24 -19l22 -22l19 -24l2 -3l204 203v71h-71l-203 -204v0zM238 814l-3 -2l-24 -19l-22 -22l-19 -24l-2 -3l26 -26h70v70l-26 26v0zM580 814l-26 -26v-18l75 1l-22 22l-24 19l-3 2v0zM238 814l-203 204h-70v-71l203 -203l2 3l19 24l22 22l24 19l3 2v0zM290 841
l-26 -66l63 -24l2 1l3 1l22 67l-64 21v0zM329 752l-2 -1v0l2 1v0zM650 744l-2 3l-19 24l-75 -1v-52h71l25 26v0zM703 573l-46 50l-52 -48v-2v-2l52 -48l46 50v0zM588 493l-1 -2l21 -47l18 -1l8 -9l43 20l-26 66l-62 -25l-1 -2v0zM588 493l-9 -18l-12 -17l-9 -12l50 -2
l-21 47l1 2v0zM262 444h-1l2 -2l-1 2v0zM558 446h-3v-4l3 4v0zM555 442v0l-15 -14l-16 -13l-17 -12l-18 -9l-19 -7l-20 -6l-21 -3l-20 -1l144 -1l2 66v0zM263 442l2 -2l-1 -18v-65l-26 -25l23 -15l28 -14l29 -11l30 -8l30 -5l31 -2l31 2l30 5l30 8l29 11l28 14l26 17l5 4
l-35 37v1l-144 1l-20 1l-21 3l-20 6l-19 7l-18 9l-17 12l-16 13l-15 14v0zM677 454l-43 -20l22 -23l9 14l13 25l-1 4v0zM608 444l8 -18l18 8l-8 9l-18 1v0zM656 411l-8 -12l-19 -24l-22 -22l-19 -15l194 -209l71 -2l2 70l-199 214v0zM168 402l2 -3l17 -22h4v48l-23 -23v0z
M553 376v-1l35 -37l19 15l22 22l-76 1v0zM191 377l71 -4l2 49v6h-70l-3 -3v-48v0zM191 377h-4l-17 22l-2 3l-203 -203v-71h70l203 204l-3 2l-24 19l-20 20v4v0zM264 422l1 18l-1 -12v-6v0z" />
    <glyph glyph-name="copyright" unicode="&#xa9;" horiz-adv-x="1638" 
d="M1167 710l46 -20l32 -63l3 1l17 61l10 64l3 63l-2 3l-45 -50l-56 -5l-8 -54v0zM1213 690l-46 20l-15 -53l1 2l60 31v0zM1175 873l56 -5l45 -49l2 2l-3 63l-10 64l-17 63l-24 61l-29 58l-36 55l-41 51l-46 46l-51 41l-55 36l-311 -17l54 -3l54 -8l53 -15l52 -19l49 -25
l45 -30l43 -34l39 -39l34 -43l30 -46l25 -48l20 -52l14 -53l8 -54v0zM1231 868l-56 5l3 -54v2l53 47v0zM387 961l-60 -10l50 -50v-2l1 22l3 20l6 20v0zM327 951l60 10l7 19l9 18l12 18l13 16l14 14l16 13l17 11l18 9l19 8l20 5l20 3l21 1l-50 50l49 49l-2 1l-28 -1l-31 -5
l-29 -8l-29 -11l-28 -14l-26 -17l-24 -20l-22 -22l-19 -24l-17 -26l-14 -27l-11 -29l-8 -30l-5 -30l-2 -29l1 -1l49 49v0zM573 1096l-21 -1l22 1h-1v0zM324 787v64l-46 51l-1 -1v-164l1 -2l46 52v0zM324 851v-64l53 -48v-1v161v-1l-53 -47v0zM1175 764l56 5l-53 47v3l-3 -55
v0zM387 676l-60 11l-49 48l-1 -1l2 -28l5 -31l8 -30l11 -29l14 -27l17 -26l19 -24l22 -22l24 -20l26 -16l28 -15l29 -11l29 -8l27 -4l31 2l-46 46l50 50l-21 1l-20 3l-20 5l-19 8l-18 9l-17 11l-16 13l-14 15l-14 16l-11 17l-9 18l-7 19v0zM327 687l60 -11l-6 20l-3 20
l-1 22v-1l-50 -50v0zM1224 565l-37 28l-35 62v2l-19 -51l-25 -49l-30 -46l-34 -43l-39 -38l-43 -35l-46 -30l-48 -25l-52 -19l-53 -14l-54 -9l-54 -3l312 -16l54 35l51 41l46 46l41 51l36 55l29 58v0zM1187 593l37 -28l23 59l-2 3l-58 -34v0zM402 1386l64 -21l-22 -67l-2 -1
l51 19l53 15l54 8l55 3l311 17l-58 29l-61 23l-63 17l-64 11l-65 3l-65 -3l-65 -11l-63 -17l-58 -22l-2 -3v0zM402 1386l-3 1l-56 -28l-55 -36l-50 -41l-46 -46l-42 -51l-35 -55l-30 -58l-23 -61l-17 -63l-10 -64l-4 -66l4 -65l10 -64l17 -63l23 -61l30 -58l35 -55l42 -51
l44 -44h3l-7 67l71 7v0l-37 37l-35 43l-30 46l-24 49l-20 51l-14 53l-9 54l-3 55l3 54l9 55l14 52l20 52l24 48l30 46l35 43l39 39l42 34l46 30l47 24h-1l-62 24l25 66v0zM402 1386l-25 -66l62 -24l3 1l2 1l22 67l-64 21v0zM442 1297l-3 -1h1l2 1v0zM572 1195l51 -46
l-47 -53h-2h327l50 50l-50 50h-328l-1 -1v0zM572 1195l-49 -49l50 -50h1h2l47 53l-51 46v0zM278 902l46 -51l53 47v1v2l-50 50l-49 -49v0zM1178 819v-3l53 -47l45 50l-45 49l-53 -47v-2v0zM377 738v1l-53 48l-46 -52l49 -48l50 50v1v0zM1152 657v-2l35 -62l58 34l-32 63
l-60 -31l-1 -2v0zM573 541h3l47 -53l-48 -43l347 17l29 29l-50 50h-328v0v0zM573 541l-50 -50l46 -46h6l48 43l-47 53h-3v0zM538 443h4l28 -2l2 1l-3 3l-31 -2v0zM569 445l3 -3l3 3h-6v0zM572 442l1 -1h328l21 21l-347 -17l-3 -3v0zM303 431v0l2 -1l-2 1v0zM305 430l1 -2
l4 -67l-71 -4l1 -3l48 -40l55 -35l58 -30l61 -23l63 -17l65 -10l65 -4l65 4l64 10l63 17l61 23l59 30l-312 16l-55 3l-54 9l-53 14l-51 19l-49 25l-46 30l-42 35v0zM305 430l-2 1l-71 -7l7 -67l71 4l-4 67l-1 2v0z" />
    <glyph glyph-name="ordfeminine" unicode="&#xaa;" horiz-adv-x="983" 
d="M557 656l-50 244v-244h50v0zM136 753l-60 -1l68 -22l1 -2l-5 12l-4 13v0zM76 752l60 1l-2 13v13v13l2 13l4 13l5 12l5 12l8 11l8 10l9 9l10 8l11 8l12 5l12 5l13 4l13 2h11l-45 46l50 50l-5 4l-21 -1l-24 -4l-23 -6l-22 -8l-20 -11l-20 -13l-19 -14l-17 -17l-14 -19
l-13 -20l-11 -21l-8 -21l-6 -23l-4 -24l-1 -23l1 -24l4 -23l6 -23l7 -20l3 -1l21 64v0zM491 1181l66 -1l45 -45l-1 19l-4 23l-6 22l-9 22l-10 22l-13 20l-15 18l-17 16l-18 15l-20 13l-21 11l-22 9l-23 5l-23 4l-19 1l45 -45l-50 -50h-7l5 -4l15 -1l13 -2l13 -4l12 -4l12 -6
l11 -7l10 -9l10 -9l8 -10l7 -11l6 -12v0zM557 1180l-66 1l4 -12l4 -13l2 -13l1 -15l5 -5v7l50 50v0zM82 1360l297 -5h2l-5 5h-294v0zM379 1355l-297 5l-50 -50l50 -50h287l-43 48l53 47v0zM557 1000l-3 80l-47 43v-123h50v0zM554 1080l3 -80l50 -50v180l-5 5v-3l-48 -52v0z
M220 659l-99 4l-66 25l-1 -3l10 -19l13 -20l14 -18l17 -17l19 -15l20 -13l21 -10l21 -9l23 -6l24 -3l21 -2l4 4l-49 49l47 47l-13 1l-13 2l-13 3v0zM121 663l99 -4l-12 5l-12 6l-11 7l-10 9l-9 9l-8 10l-8 11l-5 12l1 -3l-25 -62v0zM309 601l198 5v50h-245l-3 -3h3l47 -52v0
zM507 606l-198 -5l-48 -44l1 -1h295l50 50h-100v0zM381 1355h-2l-53 -47l43 -48h7l50 50l-45 45v0zM602 1135l-45 45l-50 -50v-7l47 -43l48 52v3v0zM507 1000h-245v0l47 -43l-47 -53h-5l5 -4h245v100v0zM262 1000l-50 -50l45 -46h5l47 53l-47 43v0zM507 900h50l50 50l-50 50
h-50v-100v0zM145 728l-1 2l-68 22l-21 -64l66 -25l25 62l-1 3v0zM507 656v-50h100l-50 50h-50v0zM259 653l-47 -47l49 -49l48 44l-47 52h-3v0zM607 950l-50 -50h-50l50 -244l50 -50v344v0zM-50 327l50 -50h655l50 50l-50 50h-655l-50 -50v0z" />
    <glyph glyph-name="guillemotleft" unicode="&#xab;" horiz-adv-x="1802" 
d="M22 618l819 320l22 67l-67 22l-818 -409l11 -12l33 12v0zM1496 938l-819 -320l90 -45l729 365v0zM677 618l819 320l23 67l-67 22l-819 -409l11 -12l33 12v0zM633 528h44l23 23l-56 55l-34 -11l23 -67v0zM677 528h-44l819 -409l67 22l-23 67l-729 365l-90 -45v0zM-22 528
h44l22 23l-55 55l-33 -11l22 -67v0zM22 528h-44l818 -409l67 22l-22 67l-730 365l-89 -45v0zM644 606l56 -55l-23 -23l90 45l-90 45l-33 -12v0zM-11 606l55 -55l-22 -23l89 45l-89 45l-33 -12v0zM111 573l730 365l-819 -320l89 -45v0z" />
    <glyph glyph-name="logicalnot" unicode="&#xac;" horiz-adv-x="1310" 
d="M901 459l-50 719v-719h50v0zM132 459l-50 719v100l-50 -50v-819l50 50h50v0zM82 1178l50 -719v719h-50v0zM634 1278h-102l-20 -100h102l20 100v0zM532 1278h-450l50 -50v-50h380l20 100v0zM532 1278h102l70 350l-39 59l-59 -39l-74 -370v0zM851 1178h50l50 50h-100v-50v0
zM614 1178h-102l-144 -719h102l144 719v0zM614 1178h237v50h100l-50 50h-267l-20 -100v0zM851 459h-381l-20 -100h451l-50 50v50v0zM470 459h-102l-20 -100h102l20 100v0zM368 459h-236v-50l-50 -50h266l20 100v0zM132 459h-50l-50 -50l50 -50l50 50v50v0zM851 459v-50
l50 -50v100h-50v0zM132 1178v50l-50 50v-100h50v0zM450 359h-102l-70 -350l39 -58l59 40l74 368v0zM901 459v-100l50 50v819l-50 -50h-50l50 -719v0z" />
    <glyph glyph-name="uni00AD" unicode="&#xad;" horiz-adv-x="819" 
d="M295 1506h-100v-1374h100v1374v0zM295 1506h196l50 50l-50 50h-246l50 -50v-50v0zM195 1506h100v50l-50 50l-50 -50v-50v0zM295 132h-100v-50l50 -50l50 50v50v0zM195 132h-195l-50 -50l50 -50h245l-50 50v50v0zM295 132v-50l-50 -50h246l50 50l-50 50h-196v0zM195 1506
v50l50 50h-245l-50 -50l50 -50h195v0z" />
    <glyph glyph-name="registered" unicode="&#xae;" horiz-adv-x="1802" 
d="M983 1606l261 -3l32 -63l-12 -34h210l50 50l-50 50h-491v0zM1244 1603l-261 3l-50 -50l50 -50h176l22 66l63 31v0zM0 1606l229 -3l64 -31l22 -66h176l50 50l-50 50h-491v0zM229 1603l-229 3l-50 -50l50 -50h209l-11 34l31 63v0zM721 34l-32 32l-22 66h-176l-50 -50
l50 -50h492l-262 2v0zM689 66l32 -32l-18 36l-14 -4v0zM721 34l262 -2l50 50l-50 50h-177l-22 -66l-63 -32v0zM1264 1506h-105l-422 -1266l36 -108h33l458 1374v0zM1159 1506h105l12 34l-32 63l-63 -31l-22 -66v0zM315 1506h-104l513 -1305l13 39l-422 1266v0zM211 1506h-2
l458 -1374h34l23 69l-513 1305v0zM211 1506h104l-22 66l-64 31l-31 -63l13 -34v0zM209 1506h2l-13 34l11 -34v0zM806 132h-33l11 -35l-81 -27l18 -36l63 32l22 66v0zM773 132h-21l1 -3l31 -32l-11 35v0zM752 132h-51l-12 -35l11 -21l53 53l-1 3v0zM752 132h21l-36 108
l-13 -39l28 -69v0zM701 132h-34l22 -66l11 10l-11 21l12 35v0zM701 132h51l-28 69l-23 -69v0zM700 76l-11 -10l14 4l-3 6v0zM703 70l81 27l-31 32l-53 -53l3 -6v0z" />
    <glyph glyph-name="macron" unicode="&#xaf;" horiz-adv-x="1802" 
d="M0 1606l218 -8l69 -14l52 -78h152l50 50l-50 50h-491v0zM218 1598l-218 8l-50 -50l50 -50h219l-15 22l14 70v0zM983 1606l273 -8l14 -70l-15 -22h219l50 50l-50 50h-491v0zM1256 1598l-273 8l-50 -50l50 -50h152l52 78l69 14v0zM1474 32l-218 8l-69 14l-52 77l-152 1
l-50 -50l50 -50h491v0zM1256 40l218 -8l50 50l-50 50h-219l15 -23l-14 -69v0zM491 32l-273 8l-14 69l15 23h-219l-50 -50l50 -50h491v0zM218 40l273 -8l50 50l-50 50l-152 -1l-52 -77l-69 -14v0zM1255 1506h-120l-398 -597l60 -90l458 687v0zM1135 1506h120l15 22l-14 70
l-69 -14l-52 -78v0zM339 1506h-120l458 -687l60 90l-398 597v0zM219 1506h120l-52 78l-69 14l-14 -70l15 -22v0zM1255 132l-120 -1l52 -77l69 -14l14 69l-15 23v0zM1135 131l120 1l-458 687l-60 -90l398 -598v0zM339 131l-120 1l-15 -23l14 -69l69 14l52 77v0zM219 132
l120 -1l398 598l-60 90l-458 -687v0zM797 819l-60 90l-60 -90l60 -90l60 90v0z" />
    <glyph glyph-name="degree" unicode="&#xb0;" 
d="M441 1495l-4 21l-70 -14l-327 -492l14 -69l69 14l286 429l-42 62l74 49v0zM441 1493l10 -47l-34 -51l361 -385l-327 492l-10 -9v0zM441 1493v2l-74 -49l14 -14l60 61v0zM441 1493l-60 -61l36 -37l34 51l-10 47v0zM417 1395l-36 37l-14 14l42 -62l8 11v0zM409 1384
l286 -429l69 -14l14 69l-361 385l-8 -11v0z" />
    <glyph glyph-name="plusminus" unicode="&#xb1;" 
d="M132 951l-50 555v100l-50 -50v-655l50 50h50v0zM82 1506l50 -555v555h-50v0zM132 132l-50 719l-50 50v-819l50 50h50v0zM82 851l50 -719v719h-50v0zM132 1506h687l50 50l-50 50h-737l50 -50v-50v0zM132 951h-50l-50 -50l50 -50h50v100v0zM132 851h523l50 50l-50 50h-523
v-100v0zM132 132h-50l-50 -50h100v50v0zM132 1506v50l-50 50v-100h50v0zM132 132v-50h-100l50 -50h737l50 50l-50 50h-687v0zM695 1936l-10 70l-328 245l-70 -10l10 -70l328 -246l70 11v0z" />
    <glyph glyph-name="uni00B2" unicode="&#xb2;" horiz-adv-x="819" 
d="M447 1600l54 -1l16 -69l-1 -3l6 1l2 4l13 24l12 27l8 28l6 29l2 29v29l-4 29l-6 29l-10 27l-12 27l-15 25l-18 23l-20 22l-20 17h-3l8 -70l-66 -9h-1l13 -10l13 -14l11 -15l10 -16l8 -17l6 -18l4 -18l2 -19v-19l-1 -18l-4 -19l-5 -18l-8 -17v0zM501 1599l-54 1l-9 -17
l63 16v0zM154 934l299 577l-17 69l1 2l1 1l-6 -1l-410 -672l17 -68l30 7l22 78l-26 7h89v0zM453 1511l-299 -577l362 593l-63 -16v0zM457 1897l-67 -5l5 -70l2 -2l2 -2l66 9l-8 70v0zM457 1897l-1 4l-22 15l-25 14l-27 11l-28 9l-29 5l-29 3l-29 -1l-29 -3l-29 -7l-27 -9
l-27 -12l-25 -15l-24 -18l-21 -20l208 -15l18 -2l19 -3l18 -6l17 -7l16 -9l16 -11l-2 2l-5 70l67 5v0zM398 1818h1l-2 2l1 -2v0zM438 1583l-1 -1l-1 -2l17 -69l63 16l1 3l-16 69l-63 -16v0zM154 934h-89l26 -7l-22 -78l39 9l46 76v0zM154 934l-46 -76l-39 -9l-4 -15h508
l50 50l-50 50h-419v0zM293 1858l-208 15l-19 -22l-17 -24l-14 -26l-11 -26l-8 -26l33 -62l62 32l7 21l7 18l9 16l11 15l12 15l14 12l15 12l16 9l17 8l18 6l18 4l19 3h19v0z" />
    <glyph glyph-name="uni00B3" unicode="&#xb3;" horiz-adv-x="819" 
d="M465 1284l59 -6l48 -48l2 1l-2 26l-4 29l-8 29l-10 27l-14 26l-16 24l-18 23l-21 21l-22 18l-5 3l-19 -12l-26 -14l-28 -10l-28 -8l-29 -4l-24 -2h13l19 -3l18 -5l17 -7l17 -8l16 -11l14 -11l14 -14l11 -14l11 -16l8 -17l7 -17v0zM524 1278l-59 6l5 -19l3 -18l1 -20v1
l50 50v0zM470 1650l57 -12l21 -64l3 2l10 24l7 29l5 29l1 29l-1 29l-5 29l-8 28l-10 28l-13 26l-16 24l-19 23l-20 21l-23 18l-25 16l-26 13l-27 11l-28 7l-30 5l-26 1l-1 -1l49 -48l-50 -50h-3v-1l21 -1l19 -3l18 -4l17 -7l17 -9l16 -10l15 -12l13 -13l12 -14l10 -16l9 -17
l6 -18l5 -18l3 -19l1 -18l-1 -19l-3 -18v0zM527 1638l-57 12l-4 -19l-7 -17l1 2l67 22v0zM537 1547l-55 2l-24 62l1 3l-9 -17l-10 -16l-12 -15l-13 -13l-15 -12l-15 -10l-17 -8l-18 -7l-18 -5l-19 -3l-13 -1l23 -1h2l178 -6l18 23l16 24v0zM482 1549l55 -2l12 24l-1 3
l-66 -25v0zM526 1163v15l-52 48v1v-112v1l52 47v0zM526 1178v-15l46 -51l2 2v114l-2 2l-46 -52v0zM465 1058l59 6l-50 50v1l-1 -20l-3 -19l-5 -18v0zM524 1064l-59 -6l-7 -17l-8 -17l-11 -16l-11 -14l-14 -14l-14 -12l-16 -10l-17 -8l-17 -7l-18 -5l-19 -3l-18 -1l50 -50
l-49 -49l1 -1l26 2l30 4l28 8l27 10l26 14l25 16l22 18l21 21l18 22l16 25l14 26l10 27l8 28l4 29l2 27l-2 1l-48 -48v0zM296 1965l-52 -46l48 -52h3l50 50l-49 48v0zM296 1965l-1 2h-295l-50 -50l50 -50h292l-48 52l52 46v0zM459 1614l-1 -3l24 -62l66 25l-21 64l-67 -22
l-1 -2v0zM294 1508h-180l-50 -50l50 -50h162l-48 51l52 48l14 1v0zM294 1508l-14 -1h14h1v1h-1v0zM300 1507h-4v0l29 -1h-2l-23 1v0zM296 1507h-1v0h1v0v0zM296 1507h4h-3h-1v0zM295 1507h-1h1v0v0zM325 1506l28 -5l28 -7l27 -11l26 -13l20 -13l5 3l23 19l21 21l-178 6v0z
M295 1507h-1h-14l-52 -48l48 -51h16l-48 52l52 46l-1 1v0zM296 1507h-1l1 -1v1v0zM325 1506l-29 1v-1l49 -48l-50 -50h-3v0l8 -1l24 2l29 4l28 8l28 10l26 14l19 12l-20 13l-26 13l-27 11l-28 7l-28 5v0zM296 1506l-52 -46l48 -52h3l50 50l-49 48v0zM292 1408h-16v0l19 -1h5
l-8 1v0v0zM572 1230l-48 48l-50 -50v-1v-1l52 -48l46 52v0zM474 1115v-1l50 -50l48 48l-46 51l-52 -47v-1v0zM295 934h-3l-48 -52l52 -47l49 49l-50 50v0zM295 934v0h-295l-50 -50l50 -50h295l1 1l-52 47l48 52h3v0z" />
    <glyph glyph-name="acute" unicode="&#xb4;" horiz-adv-x="1474" 
d="M1053 715l-48 12l-12 -45l1 3l59 30v0zM1111 875l-44 -7l45 -49l2 2l-3 54v0zM1067 868l44 7l-8 56l-15 55l-20 53l-26 50l-31 48l-36 44l-40 40l-44 36l-47 31l-129 -13l-7 -36h1l43 -17l41 -21l39 -25l36 -29l33 -33l29 -36l25 -39l21 -41l17 -43l12 -45l7 -45l2 -46v2
l53 47v0zM1111 762l-44 7l-53 47v3l-2 -47l-7 -45l48 -12l32 -63l4 2l14 52l8 56v0zM1067 769l44 -7l3 54l-2 3l-45 -50v0zM1068 598l-41 20l-35 62l1 2l-17 -43l-21 -41l-25 -39l-29 -36l-33 -33l-36 -29l-38 -25l-42 -21l-43 -16l-44 -12l-46 -8l-46 -2l271 -27l47 30
l44 36l40 40l36 44l31 48l26 50v0zM1027 618l41 -20l19 51l-2 3l-58 -34v0zM630 1357l56 -9l42 -11l58 291l-39 59l-59 -39l-58 -291v0zM630 1357v0l-57 3l-57 -3l-56 -9l-54 -14l-51 -20l-1 -3l63 -21l-21 -67l-3 -1l43 17l45 11l46 8l46 2l38 4l19 93v0zM728 1337l-42 11
l-56 9l-19 -93l104 11l13 62v0zM354 1311l-4 1l-48 -24l-47 -31l-45 -36l-40 -40l-35 -44l-31 -48l-26 -50l-20 -53l-15 -55l-9 -56l-3 -57l3 -56l9 -56l15 -55l20 -53l26 -50l31 -48l35 -44l39 -38h3l-7 67l70 7h1l-31 31l-29 36l-26 39l-20 41l-17 43l-12 45l-7 46l-3 46
l3 46l7 45l12 45l17 43l20 41l26 39l29 36l32 33l36 29l39 25l39 20v0l-63 24l26 66v0zM715 1275l-104 -11l-1 -6h9l46 -8l43 -11l7 36v0zM715 1275l129 13l-51 25l-53 21l-12 3l-13 -62v0zM611 1264l-38 -4l37 -2l1 6v0zM354 1311l-26 -66l63 -24l2 1l3 1l21 67l-63 21v0z
M708 1239l-43 11l-46 8h-9l-10 -47l101 -5l7 33v0zM393 1222l-2 -1v0l2 1v0zM701 1206l-101 5l-142 -710l103 5l140 700v0zM1014 819v-3l53 -47l45 50l-45 49l-53 -47v-2v0zM993 682l-1 -2l35 -62l58 34l-32 63l-59 -30l-1 -3v0zM561 506l-103 -5l-20 -103l43 -11l46 -8h9
l25 127v0zM276 492h-1l2 -1l-1 1v0zM277 491l2 -2l4 -67l-71 -4v-4l43 -34l47 -30l51 -26l53 -20l12 -4l20 98l-2 1l-43 16l-41 21l-39 25l-36 30v0zM277 491l-2 1l-70 -7l7 -67l71 4l-4 67l-2 2v0zM536 379h-9l-46 8l-43 11l-20 -98l42 -11l56 -9l20 99v0zM516 280v0l57 -3
l57 3l56 9l54 15l53 20l51 26l-271 27l-37 2l-20 -99v0zM516 280l-56 9l-42 11l-58 -291l39 -58l59 40l58 289v0z" />
    <glyph glyph-name="mu" unicode="&#xb5;" 
d="M32 1146l47 -769l52 -47l1 -6v822l-50 50l-50 -50v0zM79 377l-47 769v-821l47 52v0zM739 377h-5l3 -2l2 2v0zM734 377h5l-52 769v-818v2l25 22l22 25v0zM687 1146l52 -769l23 -25l25 -22v-2v818l-50 50l-50 -50v0zM780 266l-43 11l-49 49l-1 -2l1 -28l5 -30l8 -30l11 -29
l14 -28l11 -16l10 16l14 28l11 29l8 30v0zM737 277l43 -11l5 30l2 28l-2 2l-48 -49v0zM737 375l25 -23l-23 25l-2 -2v0zM737 375l-3 2l-22 -25l25 23v0zM762 352l-25 23l-25 -23l-24 -26l49 -49l48 49l-23 26v0zM712 352l-25 -22v-2v-1l1 -1l24 26v0zM787 328v-1l-2 -1l2 -2
l-2 -28l-5 -30l-8 -30l-11 -29l-14 -28l-10 -16l6 -10l20 -24l21 -22l25 -19l25 -17l28 -14l29 -11l30 -8l30 -5l29 -2l52 48l-47 52l-23 1l-20 4l-20 5l-19 7l-18 10l-18 11l-16 13l-14 14l-13 16l-11 17l-9 18l-8 19l-5 20l-3 21l-1 21v0zM762 352l23 -26l2 1v1v2l-25 22
v0zM32 325l-1 -1l1 -2v3v0zM687 328l-1 -21l-4 -21l-5 -20l-7 -19l-10 -18l-11 -17l-13 -16l-14 -14l-16 -13l-17 -11l-19 -10l-18 -7l-20 -5l-21 -4l-20 -1l50 -49l-49 -49l2 -2l28 2l30 5l30 8l29 11l28 14l26 17l24 19l22 22l19 24l7 10l-11 16l-14 28l-11 29l-8 30
l-5 30l-1 28l1 2l-1 1v1v0zM132 324l-1 6l-52 47l-47 -52v-3l1 -26l5 -30l8 -30l11 -29l14 -28l17 -26l19 -24l22 -22l3 -1v218v0zM491 131h-3l-47 -52l51 -46l49 49l-50 49v0zM327 131h3l47 -52l-51 -46l1 -1h164l1 1l-51 46l47 52h3v1h-164v-1v0zM327 131l-20 1l-21 4
l-20 5l-19 7l-18 10l-17 11l-16 13l-14 14l-13 16l-11 17l-10 19l-7 18l-5 20l-4 21v17v-218l21 -18l26 -17l28 -14l29 -11l30 -8l30 -5l28 -2l2 2l-49 49l50 49v0zM132 106l-3 1l-22 22l-19 24l-17 26l-14 28l-11 29l-8 30l-5 30l-1 26v-813l50 -50l50 50v597v0zM327 131
l-50 -49l49 -49l51 46l-47 52h-3v0z" />
    <glyph glyph-name="paragraph" unicode="&#xb6;" 
d="M139 1057l-57 -24l49 -50l2 37l6 37v0zM82 1033l57 24l10 37l13 35l17 33l21 32l24 29l26 27l29 23l32 21l34 17l35 13l36 10l37 6l35 2l1 2l-48 48l49 49l-2 1l-45 -3l-48 -7l-46 -13l-45 -17l-43 -22l-40 -26l-38 -30l-34 -34l-30 -37l-26 -41l-22 -43l-17 -45l-13 -46
l-7 -47l-3 -46l2 -1l49 49v0zM488 1342h3l-2 2l-1 -2v0zM491 1342h-3h4h-1v0zM79 705v228l-46 51l-1 -1v-328l1 -1l46 51v0zM79 933v-228l52 -48v-2h1v328h-1v-3l-52 -47v0zM139 580l-57 25l-49 49l-2 -2l3 -45l7 -48l13 -46l17 -45l22 -43l26 -40l30 -38l34 -34l38 -30
l2 -2l27 107l-26 26l-24 30l-21 31l-17 33l-13 36l-10 36v0zM82 605l57 -25l-6 37l-2 38l-49 -50v0zM819 -213l-607 38l1 12l-89 11l-11 -11l50 -50h656v0zM212 -175l607 -38l50 50l-50 50h-592l-15 -62v0zM617 1442h-104l-4 -18l32 -29l-47 -53h-2h100l25 100v0zM513 1442
h-22l-1 -1l19 -17l4 18v0zM513 1442h104l86 348l-36 60l-61 -36l-93 -372v0zM509 1424l-19 17l-49 -49l48 -48l20 80v0zM592 1342h-100h-4l-238 -954v-1l29 -23l32 -21l27 -14l254 1013v0zM592 1342h227l50 50l-50 50h-202l-25 -100v0zM489 1344l2 -2h1h2l47 53l-32 29
l-20 -80v0zM131 983l-49 50l-49 -49l46 -51l52 47v3v0zM131 655v2l-52 48l-46 -51l49 -49l49 50v0zM338 329l-27 14l-32 21l-29 23v1l-27 -107l38 -24l43 -22l10 -4l24 98v0zM491 295h3l47 -53l-51 -45l1 -2h328l50 50l-50 50h-328v0v0zM491 295l-38 2l-37 6l-36 10l-35 13
l-7 3l-24 -98l35 -13l46 -13l48 -7l45 -3l2 2l-49 48l50 50v0zM491 295l-50 -50l49 -48l51 45l-47 53h-3v0zM314 231l-10 4l-43 22l-38 24l-108 -432l9 -1l39 39h64l87 344v0zM227 -113h-64l-39 -39l89 -11l-1 -12l15 62v0z" />
    <glyph glyph-name="periodcentered" unicode="&#xb7;" horiz-adv-x="655" 
d="M82 737h163v164h-163v-164v0z" />
    <glyph glyph-name="cedilla" unicode="&#xb8;" horiz-adv-x="819" 
d="M256 934l-11 8l-17 14l-17 20l-17 25l-16 30l-16 34l-14 39l-12 42l-10 46l-9 48l-6 49l-3 51l-1 52l1 52l3 51l6 49l9 48l10 46l12 42l14 39l16 34l16 30l17 25l15 18v0h-66v71l-5 -1l-23 -26l-23 -34l-21 -38l-19 -42l-16 -45l-14 -48l-12 -51l-9 -53l-6 -55l-4 -56
l-1 -56l1 -56l4 -56l6 -55l9 -53l12 -51l14 -48l16 -45l19 -42l21 -38l23 -34l26 -29l28 -24l27 -17l5 3l-26 57l64 30v0zM344 1828l72 -9l67 -22v3l-20 36l-22 33l-155 -11l13 -1l13 -5l16 -10l16 -14v0zM416 1819l-72 9l17 -20l17 -25l17 -30l-1 2l22 64v0zM160 1901h66
l5 -70l-3 -3l17 14l15 10l13 5l13 1l155 11l-26 30l-29 24l-31 19l-34 12l-35 4l-35 -4l-34 -12l-31 -19l-26 -22v0zM226 1901h-66v-4l66 4v0zM410 1719l54 13l-68 19l-1 2l15 -34v0zM464 1732l-54 -13l14 -39l12 -42l11 -46l8 -48l6 -49l3 -51l2 -52l-2 -52l-3 -51l-6 -49
l-8 -48l-11 -46l-12 -42l-14 -39l-15 -34l-17 -30l-17 -25l-17 -20l-16 -14l-16 -10l-13 -5l-13 -1h6l44 -56l-50 -39l6 -5l30 4l33 12l31 19l29 24l26 30l22 33l22 38l18 42l16 45l14 48l12 51l9 53l6 55l4 56l1 56l-1 56l-4 56l-6 55l-9 53l-12 51l-14 48l-16 45l-18 40
l-2 1l-19 -65v0zM160 1897v-71h66l2 2l3 3l-5 70l-66 -4v0zM228 1828l-2 -2v0l2 2v0zM483 1797l-67 22l-22 -64l1 -2l1 -2l68 -19l19 65v0zM260 932l4 -2l6 -17l10 13h6l-12 1l-14 5v0zM260 932l-15 10l11 -8l4 -2v0zM260 932l-4 2l-64 -30l26 -57l33 11l-15 12l34 43l-6 17
l-4 2v0zM286 926h-6l-10 -13l15 -43l-34 -12l35 -27l50 39l-44 56h-6v0zM270 913l-34 -43l15 -12l34 12l-15 43v0zM251 858l-33 -11l3 -7l30 -10l29 -4l6 5l-35 27v0z" />
    <glyph glyph-name="uni00B9" unicode="&#xb9;" horiz-adv-x="655" 
d="M330 1966h-85l13 -35l72 29v6v0zM330 1960l-72 -29l5 -64l66 62l1 31v0zM330 1966l1 34l-71 2l-294 -279l-2 -70l70 -2l211 199v116h85v0zM330 1960l-1 -31l-66 -62l82 -1048v1147l-15 -6v0zM263 1867l-18 -17v-1031l50 -50l50 50l-82 1048v0zM245 1850l18 17l-5 64
l-13 35v-116v0z" />
    <glyph glyph-name="ordmasculine" unicode="&#xba;" horiz-adv-x="983" 
d="M82 1115l58 13l7 18l9 17l11 16l12 16l13 13l15 12l16 11l15 7v0l-63 25l26 66l-3 1l-25 -13l-25 -16l-23 -19l-21 -21l-18 -23l-17 -25l-13 -26l-11 -28l-7 -28l-5 -30l-2 -27l5 -5l46 46v0zM490 1128l67 -13l41 -42l1 1l-1 27l-5 30l-8 28l-10 28l-14 26l-16 25l-19 23
l-211 -5l20 -2l19 -3l18 -5l18 -7l18 -8l15 -11l15 -12l14 -14l12 -15l11 -16l8 -17l7 -18v0zM557 1115l-67 13l5 -18l3 -19l2 -23l7 -6v3l50 50v0zM552 887v134l-45 41v-216l45 41v0zM552 1021v-134l47 -53v-6l8 7v230l-9 8l-46 -52v0zM79 887v134l-43 48l-4 -4v-230v0
l47 52v0zM79 1021v-134l52 -47v-5h1v230l-3 2l-50 -46v0zM490 780l67 5l-50 50v11l-7 -6l-2 -22l-3 -19l-5 -19v0zM557 785l-67 -5l-6 -18l-9 -17l-11 -16l-12 -15l-14 -14l-15 -12l-15 -10l-16 -8v0l63 -24l-25 -66l3 -1l24 12l25 17l23 18l21 21l19 23l16 25l14 27l10 28
l8 28l5 30l1 20l-42 -43v0zM140 780l-58 5l-50 50h-1l2 -27l5 -30l7 -28l11 -28l13 -27l17 -25l18 -23l211 6l-19 1l-19 3l-18 5l-19 7l-17 9l-16 10l-15 12l-13 14l-12 15l-11 16l-9 18l-7 17v0zM82 785l58 -5l-5 19l-3 19l-1 17l-49 -50v0zM201 1329l64 -21l-22 -68l-3 -1
l19 7l18 5l19 3l19 2l211 5l-21 21l-23 19l-25 16l-26 14l-28 10l-28 8l-30 5l-30 1l-29 -1l-30 -5l-28 -8l-26 -9l-1 -3v0zM201 1329l-26 -66l63 -25l2 1l3 1l22 68l-64 21v0zM240 1239l-2 -1v0l2 1v0zM598 1073l-41 42l-50 -50v-3l45 -41l46 52v0zM129 1067l-47 48
l-46 -46l43 -48l50 46v0zM129 1067l2 2l1 22l3 19l5 18l-58 -13l47 -48v0zM507 846v-11l50 -50l42 43v6l-47 53l-45 -41v0zM131 835v5l-52 47l-47 -52l50 -50l49 50v0zM392 670l-2 -1l2 1v0v0zM390 669l-2 -1l-22 -67l64 -21l25 66l-63 24l-2 -1v0zM390 669l-18 -7l-18 -5
l-19 -3l-20 -1l-211 -6l21 -21l23 -19l25 -16l27 -13l28 -11l28 -8l30 -4l29 -2l30 2l30 4l28 8l26 10l1 3l-64 21l22 67l2 1v0zM-50 327l50 -50h655l50 50l-50 50h-655l-50 -50v0z" />
    <glyph glyph-name="guillemotright" unicode="&#xbb;" horiz-adv-x="1802" 
d="M796 618h45l-819 409l-66 -22l22 -67l729 -365l89 45v0zM1496 618h-44l33 -12l11 12v0zM1452 618h44l-819 409l-67 -22l23 -67l729 -365l90 45v0zM633 208l819 320l-90 45l-729 -365v0zM1452 528l-819 -320l-23 -67l67 -22l819 409l23 67l-34 11l-56 -55l23 -23v0z
M-22 208l818 320l-89 45l-729 -365v0zM796 528l-818 -320l-22 -67l66 -22l819 409l22 67l-33 11l-56 -55l22 -23v0zM1485 606l-33 12l-90 -45l90 -45l-23 23l56 55v0zM830 606l-34 12l-89 -45l89 -45l-22 23l56 55v0zM830 606l11 12h-45l34 -12v0z" />
    <glyph glyph-name="onequarter" unicode="&#xbc;" horiz-adv-x="1966" 
d="M330 1638h-85l13 -34l72 28v6v0zM330 1632l-72 -28l5 -65l66 63l1 30v0zM330 1638l1 34l-71 2l-294 -278l-2 -71l70 -2l211 199v116h85v0zM330 1632l-1 -30l-66 -63l82 -1048v1147l-15 -6v0zM263 1539l-18 -17v-1031l50 -50l50 50l-82 1048v0zM245 1522l18 17l-5 65
l-13 34v-116v0zM1459 345h-100v-101h100v101v0zM1359 345h-278l-17 -64l-47 -27l-2 -9l344 -1v101v0zM1359 345h100v228l-50 50l-50 -50v-228v0zM1081 345h-66l13 -2l-11 -89l47 27l17 64v0zM1081 345l212 788l-35 62l-62 -36l-229 -851l35 -62l15 8l11 89l-13 2h66v0z
M1459 244h-100v-244l50 -50l50 50v244v0zM1459 244l179 1l50 50l-50 50h-179v-101v0zM252 -42l69 17l983 1637l-17 69l-69 -17l-983 -1639l17 -67v0z" />
    <glyph glyph-name="onehalf" unicode="&#xbd;" horiz-adv-x="1966" 
d="M1512 797l54 -1l16 -69l-2 -3l7 2l2 3l13 24l11 27l9 28l6 29l2 29v29l-4 29l-6 29l-10 27l-12 27l-15 25l-18 23l-20 22l-20 17h-4l9 -70l-66 -9v0l12 -10l13 -14l11 -15l10 -16l8 -17l6 -18l4 -18l2 -19v-19l-1 -18l-4 -18l-5 -18l-8 -18v0zM1566 796l-54 1l-9 -16
l63 15v0zM1219 132l299 576l-17 69l1 2l1 2l-6 -2l-410 -671l17 -69l30 7l22 78l-26 8h89v0zM1518 708l-299 -576l361 592l-62 -16v0zM330 1638h-85l13 -34l72 28v6v0zM330 1632l-72 -28l5 -65l66 63l1 30v0zM330 1638l1 34l-71 2l-294 -278l-2 -71l70 -2l211 199v116h85v0z
M330 1632l-1 -30l-66 -63l82 -1048v1147l-15 -6v0zM263 1539l-18 -17v-1031l50 -50l50 50l-82 1048v0zM245 1522l18 17l-5 65l-13 34v-116v0zM1521 1094l-66 -4l5 -71l2 -2l2 -2l66 9l-9 70v0zM1521 1094v4l-22 15l-25 14l-27 11l-28 9l-29 6l-29 2h-29l-29 -4l-29 -6
l-27 -10l-27 -12l-25 -15l-23 -18l-22 -20l208 -15l18 -1l19 -4l18 -5l17 -8l16 -9l16 -11l-2 2l-5 71l66 4v0zM1464 1015v0l-2 2l2 -2v0zM1503 781l-1 -2l-1 -2l17 -69l62 16l2 3l-16 69l-63 -15v0zM1219 132h-89l26 -8l-22 -78l39 9l46 77v0zM1219 132l-46 -77l-39 -9
l-4 -14h508l50 50l-50 50h-419v0zM252 -42l69 17l983 1637l-17 69l-69 -17l-983 -1639l17 -67v0zM1358 1055l-208 15l-19 -22l-17 -24l-14 -25l-12 -27l-7 -26l33 -62l62 33l7 20l7 18l9 16l11 15l12 15l14 12l15 12l16 9l17 8l18 6l18 5l19 2h19v0z" />
    <glyph glyph-name="threequarters" unicode="&#xbe;" 
d="M861 2058l90 -10l-2 -12l-9 -39l1353 1l50 50l-50 50h-1392l-40 -40v0zM861 2058l-9 1l-447 -1863l52 -183l-83 -23l23 -38l61 37l482 2008l-39 1l-50 50l10 10v0zM861 2058l-10 -10l50 -50l39 -1l9 39l2 12l-90 10v0zM390 134l31 -86l36 -35l-52 183l-15 -62v0zM390 134
l-357 999l328 -1146l9 9l-10 15l30 123v0zM405 196l-275 964l-62 34l-35 -61l357 -999l15 62v0zM390 134l-30 -123l10 -15l51 52l-31 86v0zM374 -10l83 23l-36 35l-51 -52l4 -6v0z" />
    <glyph glyph-name="questiondown" unicode="&#xbf;" 
d="M203 595l-71 -8l24 -63l-1 -2l14 26l15 24l19 23v0zM132 587l71 8l20 20l21 17v4h-67v71l2 1l-23 -18l-28 -28l-25 -31l-21 -33l-17 -33l1 -3l66 25v0zM232 756l-51 -46l44 -5l7 51v0zM181 710l51 46h-6l-47 -48l2 2v0zM359 1146l51 -102l46 -48l3 3v147l-50 50l-50 -50
v0zM410 1044l-51 102v-147l2 -2l49 47v0zM410 1605l48 -48l1 -1l49 49h-98v0zM458 1557l-48 48v-48h48v0zM408 1507l-48 48v2l-50 -50h98v0zM360 1555l48 -48v48h-48v0zM455 940l-46 9l-48 48l-2 -2v-12l-3 -29l-6 -29l-8 -27l-12 -27l-14 -25l-17 -24l-19 -22l-21 -20
l-26 -19l-1 -5h65v-71l-3 -3l28 21l29 27l27 30l23 32l19 35l16 36l11 38l8 39v0zM409 949l46 -9l4 38v15l-3 3l-47 -47v0zM244 636l49 45l-44 7l-5 -52v0zM293 681l-49 -45h4l46 46l-1 -1v0zM145 495l-58 3l-21 64l-3 -2l-13 -34l-10 -39l-7 -38l-2 -40l2 -40l7 -38l10 -39
l14 -37l18 -35l21 -33l25 -31l28 -28l31 -25l33 -21l35 -18l37 -14l39 -10l38 -7l37 -2l2 2l-49 49l50 49l-29 2l-29 4l-28 8l-27 10l-26 14l-24 15l-23 19l-20 20l-19 23l-15 24l-14 26l-10 27l-8 28l-4 29l-2 29l2 29l4 29l8 28v0zM87 498l58 -3l10 27l-1 -2l-67 -22v0z
M410 1557h-2v-2h2v2v0zM408 1557h-48v-2h48v2v0zM408 1557h2v48h-2v-48v0zM459 1556l-1 -1h-48v-48h-2l50 -50l50 50l-49 49v0zM410 1555h-2v-48h2v48v0zM410 1555h48l1 1l-1 1h-48v-2v0zM459 1556l49 -49v98l-49 -49v0zM408 1557v48h2l-50 50v-98h48v0zM456 996l-46 48
l-49 -47l48 -48l47 47v0zM179 708l-2 -1v-71h67l5 52l-26 3l2 14l-44 5l-2 -2v0zM225 705l26 -2l-2 -15l44 -7l1 1l3 3v71h-65l-7 -51v0zM225 705l-2 -14l26 -3l2 15l-26 2v0zM66 562l21 -64l67 22l1 2l1 2l-24 63l-66 -25v0zM409 131h3l47 -52l-51 -46l1 -1h410l50 50
l-50 50h-410v-1v0zM409 131l-50 -49l49 -49l51 46l-47 52h-3v0zM410 1605h98l-50 50h-98l50 -50v0zM360 1557v98l-50 -50v-98l50 50v0zM408 1507h-98l50 -50h98l-50 50v0z" />
    <glyph glyph-name="Agrave" unicode="&#xc0;" horiz-adv-x="1474" 
d="M917 541l-344 923l277 -923h67v0zM34 14l195 427l-34 34l-161 -461v0zM229 441l-195 -427l33 -61l62 33l137 455h-37v0zM538 1648l83 -24l-48 -160l344 -923l50 -50l-50 -50h-37l137 -455l62 -33l33 61l-491 1638l-62 34l-21 -38v0zM538 1648l-3 -6l52 -52l34 34l-83 24
v0zM535 1642l-10 -18l34 -114l28 80l-52 52v0zM535 1642l-10 10l-491 -1638l161 461l-16 16l34 35l346 984l-34 114l10 18v0zM850 541h-554l-30 -100h614l-30 100v0zM296 541h-67l-16 -15l-18 -51l34 -34h37l30 100v0zM213 526l-34 -35l16 -16l18 51v0zM213 526l16 15h67
l277 923l-14 46l-346 -984v0zM880 441h37l50 50l-50 50h-67l30 -100v0zM573 1464l48 160l-34 -34l-28 -80l14 -46v0zM777 1935l-10 70l-328 246l-70 -10l10 -70l328 -245l70 9v0z" />
    <glyph glyph-name="Aacute" unicode="&#xc1;" horiz-adv-x="1474" 
d="M917 541l-344 923l277 -923h67v0zM34 14l195 427l-34 34l-161 -461v0zM229 441l-195 -427l33 -61l62 33l137 455h-37v0zM538 1648l83 -24l-48 -160l344 -923l50 -50l-50 -50h-37l137 -455l62 -33l33 61l-491 1638l-62 34l-21 -38v0zM538 1648l-3 -6l52 -52l34 34l-83 24
v0zM535 1642l-10 -18l34 -114l28 80l-52 52v0zM535 1642l-10 10l-491 -1638l161 461l-16 16l34 35l346 984l-34 114l10 18v0zM850 541h-554l-30 -100h614l-30 100v0zM296 541h-67l-16 -15l-18 -51l34 -34h37l30 100v0zM213 526l-34 -35l16 -16l18 51v0zM213 526l16 15h67
l277 923l-14 46l-346 -984v0zM880 441h37l50 50l-50 50h-67l30 -100v0zM573 1464l48 160l-34 -34l-28 -80l14 -46v0zM369 1935l70 -9l328 245l10 70l-70 10l-328 -246l-10 -70v0z" />
    <glyph glyph-name="Acircumflex" unicode="&#xc2;" horiz-adv-x="1474" 
d="M917 541l-344 923l277 -923h67v0zM34 14l195 427l-34 34l-161 -461v0zM229 441l-195 -427l33 -61l62 33l137 455h-37v0zM595 2162l18 -2l-10 -70l-30 -23l298 -223l70 10l-10 70l-328 246l-8 -8v0zM595 2162l-52 7l-328 -245l-10 -70l70 -10l298 223l-30 22l-10 10l62 63
v0zM595 2162l-62 -63l10 -10l30 -22l30 23l10 70l-18 2v0zM538 1648l83 -24l-48 -160l344 -923l50 -50l-50 -50h-37l137 -455l62 -33l33 61l-491 1638l-62 34l-21 -38v0zM538 1648l-3 -6l52 -52l34 34l-83 24v0zM535 1642l-10 -18l34 -114l28 80l-52 52v0zM535 1642l-10 10
l-491 -1638l161 461l-16 16l34 35l346 984l-34 114l10 18v0zM850 541h-554l-30 -100h614l-30 100v0zM296 541h-67l-16 -15l-18 -51l34 -34h37l30 100v0zM213 526l-34 -35l16 -16l18 51v0zM213 526l16 15h67l277 923l-14 46l-346 -984v0zM880 441h37l50 50l-50 50h-67
l30 -100v0zM573 1464l48 160l-34 -34l-28 -80l14 -46v0z" />
    <glyph glyph-name="Atilde" unicode="&#xc3;" horiz-adv-x="1474" 
d="M917 541l-344 923l277 -923h67v0zM34 14l195 427l-34 34l-161 -461v0zM229 441l-195 -427l33 -61l62 33l137 455h-37v0zM538 1648l83 -24l-48 -160l344 -923l50 -50l-50 -50h-37l137 -455l62 -33l33 61l-491 1638l-62 34l-21 -38v0zM538 1648l-3 -6l52 -52l34 34l-83 24
v0zM535 1642l-10 -18l34 -114l28 80l-52 52v0zM535 1642l-10 10l-491 -1638l161 461l-16 16l34 35l346 984l-34 114l10 18v0zM850 541h-554l-30 -100h614l-30 100v0zM296 541h-67l-16 -15l-18 -51l34 -34h37l30 100v0zM213 526l-34 -35l16 -16l18 51v0zM213 526l16 15h67
l277 923l-14 46l-346 -984v0zM880 441h37l50 50l-50 50h-67l30 -100v0zM573 1464l48 160l-34 -34l-28 -80l14 -46v0zM1000 1928l-243 6l-23 3l-24 5l-22 7l-22 10l-21 12l-19 14l-20 18l4 -71l-71 -4l24 -21l28 -20l30 -17l31 -14l33 -11l33 -7l34 -3h34l35 3l33 7l33 11
l31 14l30 17l28 20l24 21v0zM757 1934l243 -6l3 71l-70 4l-20 -18l-19 -14l-21 -12l-22 -10l-22 -7l-24 -5l-24 -3h-24v0zM536 1999l70 4l-23 21l-28 20l-30 17l-31 14l-33 11l-34 7l-34 3h-34l-34 -3l-34 -7l-32 -11l-32 -14l-29 -17l-28 -20l-24 -21l242 -6l24 -3l23 -5
l23 -7l22 -10l20 -12l20 -14l19 -18l-3 71v0zM536 1999l3 -71l71 4l-4 71l-70 -4v0zM388 1997l-242 6l-3 -71l70 -4l20 18l19 14l21 12l21 10l23 7l23 5l24 3h24v0z" />
    <glyph glyph-name="Adieresis" unicode="&#xc4;" horiz-adv-x="1474" 
d="M917 541l-344 923l277 -923h67v0zM328 2015l48 -48v-2l50 50h-98v0zM376 1967l-48 48v-48h48v0zM820 2015l48 -48v-2l50 50h-98v0zM868 1967l-48 48v-48h48v0zM818 1917l-48 48v2l-50 -50l50 -50l49 49l-1 1v0zM770 1965l48 -48v48h-48v0zM326 1917l-48 48v2l-50 -50
l50 -50l49 49l-1 1v0zM278 1965l48 -48v48h-48v0zM34 14l195 427l-34 34l-161 -461v0zM229 441l-195 -427l33 -61l62 33l137 455h-37v0zM820 1967h-2v-2h2v2v0zM818 1967h-48v-2h48v2v0zM818 1967h2v48h-2v-48v0zM328 1967h-2v-2h2v2v0zM326 1967h-48v-2h48v2v0zM326 1967h2
v48h-2v-48v0zM820 1965h-2v-48l1 -1l1 1v48v0zM820 1965h48v2h-48v-2v0zM328 1965h-2v-48l1 -1l1 1v48v0zM328 1965h48v2h-48v-2v0zM820 1965v-48l-1 -1l49 -49v98h-48v0zM818 1967v48h2l-50 50v-98h48v0zM328 1965v-48l-1 -1l49 -49v98h-48v0zM326 1967v48h2l-50 50v-98h48
v0zM819 1916l-49 -49h98l-49 49v0zM327 1916l-49 -49h98l-49 49v0zM538 1648l83 -24l-48 -160l344 -923l50 -50l-50 -50h-37l137 -455l62 -33l33 61l-491 1638l-62 34l-21 -38v0zM538 1648l-3 -6l52 -52l34 34l-83 24v0zM535 1642l-10 -18l34 -114l28 80l-52 52v0zM535 1642
l-10 10l-491 -1638l161 461l-16 16l34 35l346 984l-34 114l10 18v0zM850 541h-554l-30 -100h614l-30 100v0zM296 541h-67l-16 -15l-18 -51l34 -34h37l30 100v0zM213 526l-34 -35l16 -16l18 51v0zM213 526l16 15h67l277 923l-14 46l-346 -984v0zM880 441h37l50 50l-50 50h-67
l30 -100v0zM573 1464l48 160l-34 -34l-28 -80l14 -46v0zM820 2015h98l-50 50h-98l50 -50v0zM328 2015h98l-50 50h-98l50 -50v0zM770 1967v98l-50 -50v-98l50 50v0zM278 1967v98l-50 -50v-98l50 50v0zM868 1965v-98l50 50v98l-50 -50v0zM376 1965v-98l50 50v98l-50 -50v0z
" />
    <glyph glyph-name="Aring" unicode="&#xc5;" horiz-adv-x="1474" 
d="M917 541l-344 923l277 -923h67v0zM769 2045l51 -25l8 -16l38 44l-45 49l-52 -47v-3v-2v0zM820 2020l-51 25l36 -33l15 8v0zM759 2108l62 -11l45 -49l3 2l-2 28l-5 31l-8 30l-11 29l-14 27l-17 26l-19 24l-220 -2l20 -1l20 -3l20 -5l19 -8l19 -9l17 -11l16 -13l14 -15
l13 -15l11 -18l10 -18l7 -19v0zM821 2097l-62 11l5 -20l4 -20l1 -21v3l52 47v0zM760 1989l61 9l-16 14l-45 -23v0zM821 1998l-61 -9l-1 -2l-1 -2l35 -62l59 34l-24 47l-7 -6v0zM718 1916l75 7l-35 62l1 2l-7 -19l-10 -19l-11 -17l-13 -16v0zM793 1923l-75 -7l-14 -14
l-16 -13l-17 -11l-18 -9l-20 -8l-20 -5l-20 -3l-20 -1l220 -3l19 25l17 26l14 27l10 27l-1 3l-59 -34v0zM34 14l195 427l-34 34l-161 -461v0zM229 441l-195 -427l33 -61l62 33l137 455h-37v0zM454 2315l64 -21l-23 -67l-2 -1l19 8l20 5l20 3l21 1l220 2l-22 22l-24 20
l-26 17l-28 14l-29 11l-30 8l-30 5l-31 1l-31 -1l-31 -5l-29 -8l-27 -10l-1 -4v0zM454 2315l-4 2l-25 -13l-26 -17l-24 -20l-22 -22l-19 -24l-17 -26l-14 -27l-11 -29l-8 -30l-5 -31l-2 -31l2 -31l5 -30l8 -30l11 -29l14 -28l17 -25l19 -24l20 -20h3l-7 66l71 8v0l-12 12
l-13 16l-12 18l-9 18l-7 19l-6 20l-3 20l-1 20l1 21l3 20l6 20l7 19l9 18l12 18l13 16l14 14l16 13l17 11l16 8v0l-63 24l26 66v0zM454 2315l-26 -66l63 -24l2 1l2 1l23 67l-64 21v0zM493 2226l-2 -1v0l2 1v0zM769 2047l-1 -20l-4 -20l-5 -20l1 2l45 23l-36 33v2v0z
M805 2012l16 -14l7 6l-8 16l-15 -8v0zM866 2048l-38 -44l24 -47l3 1l7 28l5 30l2 29l-3 3v0zM440 1904v0l2 -2l-2 2v0zM442 1902l2 -2l3 -67l-71 -3l1 -4l22 -18l26 -17l28 -14l29 -11l29 -8l31 -5l31 -1l31 1l30 5l30 8l29 11l28 14l26 17l24 20l22 21l-220 3l-21 1l-20 3
l-20 5l-19 8l-18 9l-17 11l-16 13v0zM442 1902l-2 2l-71 -8l7 -66l71 3l-3 67l-2 2v0zM538 1648l83 -24l-48 -160l344 -923l50 -50l-50 -50h-37l137 -455l62 -33l33 61l-491 1638l-62 34l-21 -38v0zM538 1648l-3 -6l52 -52l34 34l-83 24v0zM535 1642l-10 -18l34 -114l28 80
l-52 52v0zM535 1642l-10 10l-491 -1638l161 461l-16 16l34 35l346 984l-34 114l10 18v0zM850 541h-554l-30 -100h614l-30 100v0zM296 541h-67l-16 -15l-18 -51l34 -34h37l30 100v0zM213 526l-34 -35l16 -16l18 51v0zM213 526l16 15h67l277 923l-14 46l-346 -984v0zM880 441
h37l50 50l-50 50h-67l30 -100v0zM573 1464l48 160l-34 -34l-28 -80l14 -46v0z" />
    <glyph glyph-name="AE" unicode="&#xc6;" horiz-adv-x="1966" 
d="M229 541l344 965l-50 50l13 13l-11 2l-338 -1072l42 42v0zM573 1506l-344 -965h76l305 965h-37v0zM901 541v310l-50 50v-360h50v0zM901 851v-310l50 -50v360h-50v0zM536 1569l87 -13l-2 -15l-11 -35h241v50l50 50h-328l-37 -37v0zM536 1569l-13 -13l50 -50h37l11 35l2 15
l-87 13v0zM951 1506h-100v-605l50 50h50v555v0zM951 1506h687l50 50l-50 50h-737l50 -50v-50v0zM851 1506h100v50l-50 50l-50 -50v-50v0zM951 951h-50l-50 -50l50 -50h50v100v0zM951 851h523l50 50l-50 50h-523v-100v0zM851 541h-546l-32 -100h578v100v0zM305 541h-76
l-42 -42l-4 -12l46 -46h44l32 100v0zM187 499l-8 -8l4 -4l4 12v0zM851 441h50l50 50l-50 50h-50v-100v0zM273 441h-44l-46 46l-149 -472l32 -62l63 32l144 456v0zM951 132h-50l-50 -50h100v50v0zM951 132v-50h-100l50 -50h737l50 50l-50 50h-687v0zM951 132v359l-50 -50h-50
v-359l50 50h50v0z" />
    <glyph glyph-name="Ccedilla" unicode="&#xc7;" 
d="M510 128l-17 3l7 -7l10 4v0zM139 1221l-57 -25l49 -50l2 38l6 37v0zM82 1196l57 25l10 36l13 36l17 33l21 32l24 29l26 27l30 23l31 21l34 17l35 13l36 10l37 6l38 2l-50 50l49 49l-2 1l-45 -3l-48 -7l-46 -13l-45 -17l-43 -22l-40 -26l-38 -30l-34 -34l-30 -37l-26 -41
l-22 -43l-17 -45l-13 -46l-7 -48l-3 -45l2 -2l49 49v0zM491 1506l-38 -2l39 2h-1v0zM79 541v555l-46 51l-1 -1v-655l1 -1l46 51v0zM79 1096v-555l52 -48v-2h1v655h-1v-2l-52 -48v0zM139 416l-57 25l-49 49l-2 -2l3 -45l7 -48l13 -46l17 -45l22 -43l26 -40l30 -38l34 -34
l38 -30l40 -26l43 -22l45 -17l46 -13l25 -4l25 63l26 11l20 20l-38 2l-37 6l-36 10l-35 13l-34 17l-31 21l-30 24l-26 26l-24 30l-21 31l-17 34l-13 35l-10 36v0zM82 441l57 -25l-6 37l-2 38l-49 -50v0zM488 31l3 1l-1 1l-2 -2v0zM491 32l-3 -1l-207 -340l28 -65l65 28
l151 378h-34v0zM281 -309l207 340l-45 3l-23 3l-139 -346v0zM490 1605l51 -47l-48 -52h-1h327l50 50l-50 50h-328l-1 -1v0zM490 1605l-49 -49l50 -50h1h1l48 52l-51 47v0zM131 1146l-49 50l-49 -49l46 -51l52 48v2v0zM131 491v2l-52 48l-46 -51l49 -49l49 50v0zM491 131h2
l17 -3l12 -28l19 -21l-7 -7l4 -9l-13 -31h294l50 50l-50 50h-328v-1v0zM500 124l-29 -13l-30 -29l49 -49l44 39l-12 28l-22 24v0zM471 111l-26 -11l-25 -63l23 -3l45 -3l2 2l-49 49l30 29v0zM471 111l29 13l-7 7h-2l-20 -20v0zM500 124l22 -24l-12 28l-10 -4v0zM522 100
l12 -28l7 7l-19 21v0zM490 33l1 -1h34l13 31l-4 9l-44 -39v0z" />
    <glyph glyph-name="Eacute" unicode="&#xc9;" 
d="M132 951l-50 555v100l-50 -50v-655l50 50h50v0zM82 1506l50 -555v555h-50v0zM132 132l-50 719l-50 50v-819l50 50h50v0zM82 851l50 -719v719h-50v0zM132 1506h687l50 50l-50 50h-737l50 -50v-50v0zM132 951h-50l-50 -50l50 -50h50v100v0zM132 851h523l50 50l-50 50h-523
v-100v0zM132 132h-50l-50 -50h100v50v0zM132 1506v50l-50 50v-100h50v0zM132 132v-50h-100l50 -50h737l50 50l-50 50h-687v0zM287 1936l70 -11l328 246l10 70l-70 10l-328 -245l-10 -70v0z" />
    <glyph glyph-name="Ecircumflex" unicode="&#xca;" 
d="M132 951l-50 555v100l-50 -50v-655l50 50h50v0zM82 1506l50 -555v555h-50v0zM132 132l-50 719l-50 50v-819l50 50h50v0zM82 851l50 -719v719h-50v0zM514 2162l17 -3l-10 -70l-30 -22l298 -223l70 10l-10 70l-328 245l-7 -7v0zM514 2162l-53 8l-328 -246l-10 -70l70 -10
l298 223l-30 23l-10 10l63 62v0zM514 2162l-63 -62l10 -10l30 -23l30 22l10 70l-17 3v0zM132 1506h687l50 50l-50 50h-737l50 -50v-50v0zM132 951h-50l-50 -50l50 -50h50v100v0zM132 851h523l50 50l-50 50h-523v-100v0zM132 132h-50l-50 -50h100v50v0zM132 1506v50l-50 50
v-100h50v0zM132 132v-50h-100l50 -50h737l50 50l-50 50h-687v0z" />
    <glyph glyph-name="Edieresis" unicode="&#xcb;" 
d="M164 2015l49 -48v-2l50 50h-99v0zM213 1967l-49 48v-48h49v0zM656 2015l48 -48v-2l50 50h-98v0zM704 1967l-48 48v-48h48v0zM654 1917l-48 48v2l-50 -50l50 -50l49 49l-1 1v0zM606 1965l48 -48v48h-48v0zM163 1917l-49 48v2l-50 -50l50 -50l49 49v1v0zM114 1965l49 -48
v48h-49v0zM132 951l-50 555v100l-50 -50v-655l50 50h50v0zM82 1506l50 -555v555h-50v0zM132 132l-50 719l-50 50v-819l50 50h50v0zM82 851l50 -719v719h-50v0zM656 1967h-2v-2h2v2v0zM654 1967h-48v-2h48v2v0zM654 1967h2v48h-2v-48v0zM164 1967h-1v-2h1v2v0zM163 1967h-49
v-2h49v2v0zM163 1967h1v48h-1v-48v0zM656 1965h-2v-48l1 -1l1 1v48v0zM656 1965h48v2h-48v-2v0zM164 1965h-1v-48v-1l1 1v48v0zM164 1965h49v2h-49v-2v0zM656 1965v-48l-1 -1l49 -49v98h-48v0zM654 1967v48h2l-50 50v-98h48v0zM164 1965v-48l-1 -1l50 -49v98h-49v0z
M163 1967v48h1l-50 50v-98h49v0zM655 1916l-49 -49h98l-49 49v0zM163 1916l-49 -49h99l-50 49v0zM132 1506h687l50 50l-50 50h-737l50 -50v-50v0zM132 951h-50l-50 -50l50 -50h50v100v0zM132 851h523l50 50l-50 50h-523v-100v0zM132 132h-50l-50 -50h100v50v0zM132 1506v50
l-50 50v-100h50v0zM132 132v-50h-100l50 -50h737l50 50l-50 50h-687v0zM656 2015h98l-50 50h-98l50 -50v0zM164 2015h99l-50 50h-99l50 -50v0zM606 1967v98l-50 -50v-98l50 50v0zM114 1967v98l-50 -50v-98l50 50v0zM704 1965v-98l50 50v98l-50 -50v0zM213 1965v-98l50 50v98
l-50 -50v0z" />
    <glyph glyph-name="Igrave" unicode="&#xcc;" horiz-adv-x="491" 
d="M82 1688l-50 -50v-1638l50 -50l50 50v1638l-50 50v0zM285 1936l-10 70l-327 245l-70 -10l11 -70l326 -246l70 11v0z" />
    <glyph glyph-name="Iacute" unicode="&#xcd;" horiz-adv-x="491" 
d="M82 1688l-50 -50v-1638l50 -50l50 50v1638l-50 50v0zM-122 1936l70 -11l327 246l10 70l-70 10l-326 -245l-11 -70v0z" />
    <glyph glyph-name="Icircumflex" unicode="&#xce;" horiz-adv-x="491" 
d="M104 2162l18 -3l-11 -70l-30 -22l298 -223l70 10l-10 70l-327 245l-8 -7v0zM104 2162l-52 8l-327 -246l-10 -70l70 -10l296 223l-30 23l-10 10l63 62v0zM104 2162l-63 -62l10 -10l30 -23l30 22l11 70l-18 3v0zM82 1688l-50 -50v-1638l50 -50l50 50v1638l-50 50v0z" />
    <glyph glyph-name="Idieresis" unicode="&#xcf;" horiz-adv-x="491" 
d="M-114 1967l-49 48v-48h49v0zM328 2015l48 -48v-2l50 50h-98v0zM376 1967l-48 48v-48h48v0zM326 1917l-48 48v2l-50 -50l50 -50l49 49l-1 1v0zM278 1965l48 -48v48h-48v0zM-164 1917l-49 48v2l-50 -50l50 -50l50 49l-1 1v0zM-213 1965l49 -48v48h-49v0zM328 1967h-2v-2h2
v2v0zM326 1967h-48v-2h48v2v0zM326 1967h2v48h-2v-48v0zM-163 1967h-1v-2h1v2v0zM-164 1967h-49v-2h49v2v0zM-164 1967h1v48h-1v-48v0zM328 1965h-2v-48l1 -1l1 1v48v0zM328 1965h48v2h-48v-2v0zM-163 1965h-1v-48l1 -1v1v48v0zM-163 1965h49v2h-49v-2v0zM328 1965v-48
l-1 -1l49 -49v98h-48v0zM326 1967v48h2l-50 50v-98h48v0zM-163 1965v-48v-1l49 -49v98h-49v0zM-164 1967v48h1l-50 50v-98h49v0zM327 1916l-49 -49h98l-49 49v0zM-163 1916l-50 -49h99l-49 49v0zM328 2015h98l-50 50h-98l50 -50v0zM-163 2015h99l-50 50h-99l50 -50v0z
M278 1967v98l-50 -50v-98l50 50v0zM-213 1967v98l-50 -50v-98l50 50v0zM376 1965v-98l50 50v98l-50 -50v0zM-114 1965v-98l50 50v98l-50 -50v0zM82 1688l-50 -50v-1638l50 -50l50 50v1638l-50 50v0zM-114 1967v-2l50 50h-99l49 -48v0z" />
    <glyph glyph-name="Ntilde" unicode="&#xd1;" horiz-adv-x="1310" 
d="M132 1638l-6 22l-67 23l-15 -45h88v0zM44 1638l-2 -7l62 -38l28 45h-88v0zM42 1631l-5 -15l69 -125l-2 102l-62 38v0zM42 1631l-10 7v-1638l50 -50l50 50l-26 1477l-69 139l5 15v0zM106 1491l25 -47l1 194l-28 -45l2 -102v0zM106 1491l-69 125l69 -139v14v0zM131 1444
l720 -1304v71l-725 1449l6 -22l-1 -194v0zM131 1444l-25 47v-14l26 -51l-1 18v0zM851 140l50 -90l44 -28l-94 189v-71v0zM851 140l-720 1304l1 -18l724 -1448l7 11l-12 11v140v0zM851 211l94 -189l-78 -38l34 -34l50 50v1638l-50 50l-50 -50v-1427v0zM851 140v-140l12 -11
l38 61l-50 90v0zM106 1477l26 -1477v1426l-26 51v0zM867 -16l78 38l-44 28l-38 -61l4 -5v0zM918 1928l-243 6l-23 3l-24 5l-22 7l-22 10l-21 12l-19 14l-20 18l4 -71l-71 -4l24 -21l28 -20l30 -17l31 -14l33 -11l33 -7l34 -3h35l34 3l33 7l33 11l31 14l30 17l28 20l24 21v0z
M675 1934l243 -6l3 71l-70 4l-20 -18l-19 -14l-21 -12l-22 -10l-22 -7l-24 -5l-23 -3h-25v0zM454 1999l70 4l-23 21l-28 20l-30 17l-31 14l-33 11l-33 7l-35 3h-34l-34 -3l-34 -7l-32 -11l-32 -14l-29 -17l-28 -20l-24 -21l218 -6h24l24 -3l23 -5l23 -7l22 -10l20 -12
l20 -14l19 -18l-3 71v0zM454 1999l3 -71l71 4l-4 71l-70 -4v0zM282 1997l-218 6l-3 -71l70 -4l20 18l19 14l21 12l22 10l22 7l24 5l23 3v0z" />
    <glyph glyph-name="Ograve" unicode="&#xd2;" horiz-adv-x="1310" 
d="M82 1196l57 25l10 36l13 36l17 33l21 32l24 29l26 27l30 23l31 21l32 16h-1l-62 24l25 66l-3 1l-41 -21l-40 -26l-38 -30l-34 -34l-30 -37l-26 -41l-22 -43l-17 -45l-13 -46l-7 -48l-3 -45l2 -2l49 49v0zM843 1221l58 -25l48 -48l1 1l-2 45l-8 48l-12 46l-17 45l-22 43
l-26 41l-31 37l-34 34l-37 30l-270 -12l37 -2l38 -6l36 -10l35 -13l34 -17l31 -21l29 -23l27 -27l24 -29l20 -32l17 -33l14 -36l10 -36v0zM901 1196l-58 25l6 -37l2 -40v0v2l50 50v0zM903 541v555l-52 48v-650l52 47v0zM903 1096v-555l46 -51l2 1v655l-2 2l-46 -52v0z
M79 541v555l-46 51l-1 -1v-655l1 -1l46 51v0zM79 1096v-555l52 -48v-2h1v655h-1v-2l-52 -48v0zM843 416l58 25l-50 50v3v-1l-2 -40l-6 -37v0zM901 441l-58 -25l-10 -36l-14 -35l-17 -34l-20 -31l-24 -30l-27 -26l-29 -24l-31 -21l-32 -16h1l62 -24l-25 -66l3 -1l41 21l40 26
l37 30l34 34l31 38l26 40l22 43l17 45l12 46l8 48l2 45l-1 2l-48 -49v0zM139 416l-57 25l-49 49l-2 -2l3 -45l7 -48l13 -46l17 -45l22 -43l26 -40l30 -38l34 -34l38 -30l270 12l-38 2l-37 6l-36 10l-35 13l-34 17l-31 21l-30 24l-26 26l-24 30l-21 31l-17 34l-13 35l-10 36
v0zM82 441l57 -25l-6 37l-2 38l-49 -50v0zM305 1564l64 -21l-22 -67l-2 -1l35 13l36 10l37 6l38 2l270 12l-40 26l-43 22l-45 17l-47 13l-47 7l-48 3l-48 -3l-48 -7l-46 -13l-43 -16l-1 -3v0zM305 1564l-25 -66l62 -24l3 1l2 1l22 67l-64 21v0zM345 1475l-3 -1h1l2 1v0z
M949 1148l-48 48l-50 -50v-2l52 -48l46 52v0zM131 1146l-49 50l-49 -49l46 -51l52 48v2v0zM131 1146l2 38l6 37l-57 -25l49 -50v0zM851 494v-3l50 -50l48 49l-46 51l-52 -47v0zM131 491v2l-52 48l-46 -51l49 -49l49 50v0zM639 163l-2 -1l3 1h-1v0zM637 162l-2 -1l-22 -67
l64 -21l25 66l-62 24l-3 -1v0zM637 162l-35 -13l-36 -10l-38 -6l-37 -2l-270 -12l40 -26l43 -22l45 -17l46 -13l48 -7l48 -3l48 3l47 7l47 13l42 16l2 3l-64 21l22 67l2 1v0zM695 1936l-10 70l-328 245l-70 -10l10 -70l328 -246l70 11v0z" />
    <glyph glyph-name="Oacute" unicode="&#xd3;" horiz-adv-x="1310" 
d="M82 1196l57 25l10 36l13 36l17 33l21 32l24 29l26 27l30 23l31 21l32 16h-1l-62 24l25 66l-3 1l-41 -21l-40 -26l-38 -30l-34 -34l-30 -37l-26 -41l-22 -43l-17 -45l-13 -46l-7 -48l-3 -45l2 -2l49 49v0zM843 1221l58 -25l48 -48l1 1l-2 45l-8 48l-12 46l-17 45l-22 43
l-26 41l-31 37l-34 34l-37 30l-270 -12l37 -2l38 -6l36 -10l35 -13l34 -17l31 -21l29 -23l27 -27l24 -29l20 -32l17 -33l14 -36l10 -36v0zM901 1196l-58 25l6 -37l2 -40v0v2l50 50v0zM903 541v555l-52 48v-650l52 47v0zM903 1096v-555l46 -51l2 1v655l-2 2l-46 -52v0z
M79 541v555l-46 51l-1 -1v-655l1 -1l46 51v0zM79 1096v-555l52 -48v-2h1v655h-1v-2l-52 -48v0zM843 416l58 25l-50 50v3v-1l-2 -40l-6 -37v0zM901 441l-58 -25l-10 -36l-14 -35l-17 -34l-20 -31l-24 -30l-27 -26l-29 -24l-31 -21l-32 -16h1l62 -24l-25 -66l3 -1l41 21l40 26
l37 30l34 34l31 38l26 40l22 43l17 45l12 46l8 48l2 45l-1 2l-48 -49v0zM139 416l-57 25l-49 49l-2 -2l3 -45l7 -48l13 -46l17 -45l22 -43l26 -40l30 -38l34 -34l38 -30l270 12l-38 2l-37 6l-36 10l-35 13l-34 17l-31 21l-30 24l-26 26l-24 30l-21 31l-17 34l-13 35l-10 36
v0zM82 441l57 -25l-6 37l-2 38l-49 -50v0zM305 1564l64 -21l-22 -67l-2 -1l35 13l36 10l37 6l38 2l270 12l-40 26l-43 22l-45 17l-47 13l-47 7l-48 3l-48 -3l-48 -7l-46 -13l-43 -16l-1 -3v0zM305 1564l-25 -66l62 -24l3 1l2 1l22 67l-64 21v0zM345 1475l-3 -1h1l2 1v0z
M949 1148l-48 48l-50 -50v-2l52 -48l46 52v0zM131 1146l-49 50l-49 -49l46 -51l52 48v2v0zM131 1146l2 38l6 37l-57 -25l49 -50v0zM851 494v-3l50 -50l48 49l-46 51l-52 -47v0zM131 491v2l-52 48l-46 -51l49 -49l49 50v0zM639 163l-2 -1l3 1h-1v0zM637 162l-2 -1l-22 -67
l64 -21l25 66l-62 24l-3 -1v0zM637 162l-35 -13l-36 -10l-38 -6l-37 -2l-270 -12l40 -26l43 -22l45 -17l46 -13l48 -7l48 -3l48 3l47 7l47 13l42 16l2 3l-64 21l22 67l2 1v0zM287 1936l70 -11l328 246l10 70l-70 10l-328 -245l-10 -70v0z" />
    <glyph glyph-name="Ocircumflex" unicode="&#xd4;" horiz-adv-x="1310" 
d="M82 1196l57 25l10 36l13 36l17 33l21 32l24 29l26 27l30 23l31 21l32 16h-1l-62 24l25 66l-3 1l-41 -21l-40 -26l-38 -30l-34 -34l-30 -37l-26 -41l-22 -43l-17 -45l-13 -46l-7 -48l-3 -45l2 -2l49 49v0zM843 1221l58 -25l48 -48l1 1l-2 45l-8 48l-12 46l-17 45l-22 43
l-26 41l-31 37l-34 34l-37 30l-270 -12l37 -2l38 -6l36 -10l35 -13l34 -17l31 -21l29 -23l27 -27l24 -29l20 -32l17 -33l14 -36l10 -36v0zM901 1196l-58 25l6 -37l2 -40v0v2l50 50v0zM903 541v555l-52 48v-650l52 47v0zM903 1096v-555l46 -51l2 1v655l-2 2l-46 -52v0z
M79 541v555l-46 51l-1 -1v-655l1 -1l46 51v0zM79 1096v-555l52 -48v-2h1v655h-1v-2l-52 -48v0zM843 416l58 25l-50 50v3v-1l-2 -40l-6 -37v0zM901 441l-58 -25l-10 -36l-14 -35l-17 -34l-20 -31l-24 -30l-27 -26l-29 -24l-31 -21l-32 -16h1l62 -24l-25 -66l3 -1l41 21l40 26
l37 30l34 34l31 38l26 40l22 43l17 45l12 46l8 48l2 45l-1 2l-48 -49v0zM139 416l-57 25l-49 49l-2 -2l3 -45l7 -48l13 -46l17 -45l22 -43l26 -40l30 -38l34 -34l38 -30l270 12l-38 2l-37 6l-36 10l-35 13l-34 17l-31 21l-30 24l-26 26l-24 30l-21 31l-17 34l-13 35l-10 36
v0zM82 441l57 -25l-6 37l-2 38l-49 -50v0zM514 2162l17 -3l-10 -70l-30 -22l298 -223l70 10l-10 70l-328 245l-7 -7v0zM514 2162l-53 8l-328 -246l-10 -70l70 -10l298 223l-30 23l-10 10l63 62v0zM514 2162l-63 -62l10 -10l30 -23l30 22l10 70l-17 3v0zM305 1564l64 -21
l-22 -67l-2 -1l35 13l36 10l37 6l38 2l270 12l-40 26l-43 22l-45 17l-47 13l-47 7l-48 3l-48 -3l-48 -7l-46 -13l-43 -16l-1 -3v0zM305 1564l-25 -66l62 -24l3 1l2 1l22 67l-64 21v0zM345 1475l-3 -1h1l2 1v0zM949 1148l-48 48l-50 -50v-2l52 -48l46 52v0zM131 1146l-49 50
l-49 -49l46 -51l52 48v2v0zM131 1146l2 38l6 37l-57 -25l49 -50v0zM851 494v-3l50 -50l48 49l-46 51l-52 -47v0zM131 491v2l-52 48l-46 -51l49 -49l49 50v0zM639 163l-2 -1l3 1h-1v0zM637 162l-2 -1l-22 -67l64 -21l25 66l-62 24l-3 -1v0zM637 162l-35 -13l-36 -10l-38 -6
l-37 -2l-270 -12l40 -26l43 -22l45 -17l46 -13l48 -7l48 -3l48 3l47 7l47 13l42 16l2 3l-64 21l22 67l2 1v0z" />
    <glyph glyph-name="Otilde" unicode="&#xd5;" horiz-adv-x="1310" 
d="M82 1196l57 25l10 36l13 36l17 33l21 32l24 29l26 27l30 23l31 21l32 16h-1l-62 24l25 66l-3 1l-41 -21l-40 -26l-38 -30l-34 -34l-30 -37l-26 -41l-22 -43l-17 -45l-13 -46l-7 -48l-3 -45l2 -2l49 49v0zM843 1221l58 -25l48 -48l1 1l-2 45l-8 48l-12 46l-17 45l-22 43
l-26 41l-31 37l-34 34l-37 30l-270 -12l37 -2l38 -6l36 -10l35 -13l34 -17l31 -21l29 -23l27 -27l24 -29l20 -32l17 -33l14 -36l10 -36v0zM901 1196l-58 25l6 -37l2 -40v0v2l50 50v0zM903 541v555l-52 48v-650l52 47v0zM903 1096v-555l46 -51l2 1v655l-2 2l-46 -52v0z
M79 541v555l-46 51l-1 -1v-655l1 -1l46 51v0zM79 1096v-555l52 -48v-2h1v655h-1v-2l-52 -48v0zM843 416l58 25l-50 50v3v-1l-2 -40l-6 -37v0zM901 441l-58 -25l-10 -36l-14 -35l-17 -34l-20 -31l-24 -30l-27 -26l-29 -24l-31 -21l-32 -16h1l62 -24l-25 -66l3 -1l41 21l40 26
l37 30l34 34l31 38l26 40l22 43l17 45l12 46l8 48l2 45l-1 2l-48 -49v0zM139 416l-57 25l-49 49l-2 -2l3 -45l7 -48l13 -46l17 -45l22 -43l26 -40l30 -38l34 -34l38 -30l270 12l-38 2l-37 6l-36 10l-35 13l-34 17l-31 21l-30 24l-26 26l-24 30l-21 31l-17 34l-13 35l-10 36
v0zM82 441l57 -25l-6 37l-2 38l-49 -50v0zM305 1564l64 -21l-22 -67l-2 -1l35 13l36 10l37 6l38 2l270 12l-40 26l-43 22l-45 17l-47 13l-47 7l-48 3l-48 -3l-48 -7l-46 -13l-43 -16l-1 -3v0zM305 1564l-25 -66l62 -24l3 1l2 1l22 67l-64 21v0zM345 1475l-3 -1h1l2 1v0z
M949 1148l-48 48l-50 -50v-2l52 -48l46 52v0zM131 1146l-49 50l-49 -49l46 -51l52 48v2v0zM131 1146l2 38l6 37l-57 -25l49 -50v0zM851 494v-3l50 -50l48 49l-46 51l-52 -47v0zM131 491v2l-52 48l-46 -51l49 -49l49 50v0zM639 163l-2 -1l3 1h-1v0zM637 162l-2 -1l-22 -67
l64 -21l25 66l-62 24l-3 -1v0zM637 162l-35 -13l-36 -10l-38 -6l-37 -2l-270 -12l40 -26l43 -22l45 -17l46 -13l48 -7l48 -3l48 3l47 7l47 13l42 16l2 3l-64 21l22 67l2 1v0zM918 1928l-243 6l-23 3l-24 5l-22 7l-22 10l-21 12l-19 14l-20 18l4 -71l-71 -4l24 -21l28 -20
l30 -17l31 -14l33 -11l33 -7l34 -3h35l34 3l33 7l33 11l31 14l30 17l28 20l24 21v0zM675 1934l243 -6l3 71l-70 4l-20 -18l-19 -14l-21 -12l-22 -10l-22 -7l-24 -5l-23 -3h-25v0zM454 1999l70 4l-23 21l-28 20l-30 17l-31 14l-33 11l-33 7l-35 3h-34l-34 -3l-34 -7l-32 -11
l-32 -14l-29 -17l-28 -20l-24 -21l218 -6h24l24 -3l23 -5l23 -7l22 -10l20 -12l20 -14l19 -18l-3 71v0zM454 1999l3 -71l71 4l-4 71l-70 -4v0zM282 1997l-218 6l-3 -71l70 -4l20 18l19 14l21 12l22 10l22 7l24 5l23 3v0z" />
    <glyph glyph-name="Odieresis" unicode="&#xd6;" horiz-adv-x="1310" 
d="M82 1196l57 25l10 36l13 36l17 33l21 32l24 29l26 27l30 23l31 21l32 16h-1l-62 24l25 66l-3 1l-41 -21l-40 -26l-38 -30l-34 -34l-30 -37l-26 -41l-22 -43l-17 -45l-13 -46l-7 -48l-3 -45l2 -2l49 49v0zM843 1221l58 -25l48 -48l1 1l-2 45l-8 48l-12 46l-17 45l-22 43
l-26 41l-31 37l-34 34l-37 30l-270 -12l37 -2l38 -6l36 -10l35 -13l34 -17l31 -21l29 -23l27 -27l24 -29l20 -32l17 -33l14 -36l10 -36v0zM901 1196l-58 25l6 -37l2 -40v0v2l50 50v0zM246 2015l49 -48v-2l50 50h-99v0zM295 1967l-49 48v-48h49v0zM738 2015l48 -48v-2l50 50
h-98v0zM786 1967l-48 48v-48h48v0zM736 1917l-48 48v2l-50 -50l50 -50l49 49l-1 1v0zM688 1965l48 -48v48h-48v0zM245 1917l-49 48v2l-50 -50l50 -50l49 49v1v0zM196 1965l49 -48v48h-49v0zM903 541v555l-52 48v-650l52 47v0zM903 1096v-555l46 -51l2 1v655l-2 2l-46 -52v0z
M79 541v555l-46 51l-1 -1v-655l1 -1l46 51v0zM79 1096v-555l52 -48v-2h1v655h-1v-2l-52 -48v0zM843 416l58 25l-50 50v3v-1l-2 -40l-6 -37v0zM901 441l-58 -25l-10 -36l-14 -35l-17 -34l-20 -31l-24 -30l-27 -26l-29 -24l-31 -21l-32 -16h1l62 -24l-25 -66l3 -1l41 21l40 26
l37 30l34 34l31 38l26 40l22 43l17 45l12 46l8 48l2 45l-1 2l-48 -49v0zM139 416l-57 25l-49 49l-2 -2l3 -45l7 -48l13 -46l17 -45l22 -43l26 -40l30 -38l34 -34l38 -30l270 12l-38 2l-37 6l-36 10l-35 13l-34 17l-31 21l-30 24l-26 26l-24 30l-21 31l-17 34l-13 35l-10 36
v0zM82 441l57 -25l-6 37l-2 38l-49 -50v0zM738 1967h-2v-2h2v2v0zM736 1967h-48v-2h48v2v0zM736 1967h2v48h-2v-48v0zM246 1967h-1v-2h1v2v0zM245 1967h-49v-2h49v2v0zM245 1967h1v48h-1v-48v0zM738 1965h-2v-48l1 -1l1 1v48v0zM738 1965h48v2h-48v-2v0zM246 1965h-1v-48v-1
l1 1v48v0zM246 1965h49v2h-49v-2v0zM738 1965v-48l-1 -1l49 -49v98h-48v0zM736 1967v48h2l-50 50v-98h48v0zM246 1965v-48l-1 -1l50 -49v98h-49v0zM245 1967v48h1l-50 50v-98h49v0zM737 1916l-49 -49h98l-49 49v0zM245 1916l-49 -49h99l-50 49v0zM305 1564l64 -21l-22 -67
l-2 -1l35 13l36 10l37 6l38 2l270 12l-40 26l-43 22l-45 17l-47 13l-47 7l-48 3l-48 -3l-48 -7l-46 -13l-43 -16l-1 -3v0zM305 1564l-25 -66l62 -24l3 1l2 1l22 67l-64 21v0zM345 1475l-3 -1h1l2 1v0zM949 1148l-48 48l-50 -50v-2l52 -48l46 52v0zM131 1146l-49 50l-49 -49
l46 -51l52 48v2v0zM131 1146l2 38l6 37l-57 -25l49 -50v0zM851 494v-3l50 -50l48 49l-46 51l-52 -47v0zM131 491v2l-52 48l-46 -51l49 -49l49 50v0zM639 163l-2 -1l3 1h-1v0zM637 162l-2 -1l-22 -67l64 -21l25 66l-62 24l-3 -1v0zM637 162l-35 -13l-36 -10l-38 -6l-37 -2
l-270 -12l40 -26l43 -22l45 -17l46 -13l48 -7l48 -3l48 3l47 7l47 13l42 16l2 3l-64 21l22 67l2 1v0zM738 2015h98l-50 50h-98l50 -50v0zM246 2015h99l-50 50h-99l50 -50v0zM688 1967v98l-50 -50v-98l50 50v0zM196 1967v98l-50 -50v-98l50 50v0zM786 1965v-98l50 50v98
l-50 -50v0zM295 1965v-98l50 50v98l-50 -50v0z" />
    <glyph glyph-name="multiply" unicode="&#xd7;" horiz-adv-x="1966" 
d="M139 1221l-57 -25l49 -50l2 38l6 37v0zM82 1196l57 25l10 36l13 36l17 33l21 32l24 29l26 27l30 23l31 21l32 16h-1l-62 24l25 66l-3 1l-41 -21l-40 -26l-38 -30l-34 -34l-30 -37l-26 -41l-22 -43l-17 -45l-13 -46l-7 -48l-3 -45l2 -2l49 49v0zM851 1431l50 75v100
l-50 -50v-125v0zM901 1506l-50 -75l12 -14l26 -41l22 -43l17 -45l12 -46l8 -48l2 -45l-47 -53l48 -145v555h-50v0zM951 951l-48 145l-52 48v-243l50 50h50v0zM79 541v555l-46 51l-1 -1v-655l1 -1l46 51v0zM79 1096v-555l52 -48v-2h1v655h-1v-2l-52 -48v0zM903 541l-2 310
l-50 50v-407l52 47v0zM901 851l2 -310l47 -53l-2 -45l-8 -48l-12 -46l-17 -45l-22 -43l-26 -40l-12 -15v-124l50 50h50v719h-50v0zM139 416l-57 25l-49 49l-2 -2l3 -45l7 -48l13 -46l17 -45l22 -43l26 -40l30 -38l34 -34l38 -30l270 12l-38 2l-37 6l-36 10l-35 13l-34 17
l-31 21l-30 24l-26 26l-24 30l-21 31l-17 34l-13 35l-10 36v0zM82 441l57 -25l-6 37l-2 38l-49 -50v0zM305 1564l64 -21l-22 -67l-2 -1l35 13l36 10l37 6l38 2l270 12l-40 26l-43 22l-45 17l-47 13l-47 7l-48 3l-48 -3l-48 -7l-46 -13l-43 -16l-1 -3v0zM951 1506h687l50 50
l-50 50h-737l50 -50v-50v0zM305 1564l-25 -66l62 -24l3 1l2 1l22 67l-64 21v0zM345 1475l-3 -1h1l2 1v0zM851 1431l-19 23l-34 34l-37 30l-270 -12l37 -2l38 -6l36 -10l35 -13l34 -17l31 -21l29 -23l27 -27l24 -29l20 -32l17 -33l14 -36l10 -36l6 -37l2 -40v0v287v0z
M131 1146l-49 50l-49 -49l46 -51l52 48v2v0zM851 1144l52 -48l47 53l-2 45l-8 48l-12 46l-17 45l-22 43l-26 41l-12 14v-287v0zM951 951h-50l-50 -50l50 -50h50v100v0zM951 851h523l50 50l-50 50h-523v-100v0zM851 494v-1l-2 -40l-6 -37l-10 -36l-14 -35l-17 -34l-20 -31
l-24 -30l-27 -26l-29 -24l-31 -21l-32 -16h1l62 -24l-25 -66l3 -1l41 21l40 26l37 30l34 34l19 23v288v0zM131 491v2l-52 48l-46 -51l49 -49l49 50v0zM851 206l12 15l26 40l22 43l17 45l12 46l8 48l2 45l-47 53l-52 -47v-288v0zM639 163l-2 -1l3 1h-1v0zM637 162l-2 -1
l-22 -67l64 -21l25 66l-62 24l-3 -1v0zM637 162l-35 -13l-36 -10l-38 -6l-37 -2l-270 -12l40 -26l43 -22l45 -17l46 -13l48 -7l48 -3l48 3l47 7l47 13l42 16l2 3l-64 21l22 67l2 1v0zM951 132h-50l-50 -50h100v50v0zM951 1506v50l-50 50v-100h50v0zM951 132v-50h-100l50 -50
h737l50 50l-50 50h-687v0z" />
    <glyph glyph-name="Ugrave" unicode="&#xd9;" horiz-adv-x="1310" 
d="M79 541l-47 1097v-1147l1 -1l46 51v0zM851 1638l52 -1097l46 -51l2 1v1147l-50 50l-50 -50v0zM903 541l-52 1097v-1144l52 47v0zM843 416l58 25l-50 50v3v-1l-2 -40l-6 -37v0zM901 441l-58 -25l-10 -36l-14 -35l-17 -34l-20 -31l-24 -30l-27 -26l-29 -24l-31 -21l-32 -16
h1l62 -24l-25 -66l3 -1l41 21l40 26l37 30l34 34l31 38l26 40l22 43l17 45l12 46l8 48l2 45l-1 2l-48 -49v0zM139 416l-57 25l-49 49l-2 -2l3 -45l7 -48l13 -46l17 -45l22 -43l26 -40l30 -38l34 -34l38 -30l270 12l-38 2l-37 6l-36 10l-35 13l-34 17l-31 21l-30 24l-26 26
l-24 30l-21 31l-17 34l-13 35l-10 36v0zM82 441l57 -25l-6 37l-2 38l-49 -50v0zM851 494v-3l50 -50l48 49l-46 51l-52 -47v0zM131 491v2l-52 48l-46 -51l49 -49l49 50v0zM131 491h1v1147l-50 50l-50 -50l47 -1097l52 -48v-2v0zM639 163l-2 -1l3 1h-1v0zM637 162l-2 -1
l-22 -67l64 -21l25 66l-62 24l-3 -1v0zM637 162l-35 -13l-36 -10l-38 -6l-37 -2l-270 -12l40 -26l43 -22l45 -17l46 -13l48 -7l48 -3l48 3l47 7l47 13l42 16l2 3l-64 21l22 67l2 1v0zM695 1936l-10 70l-328 245l-70 -10l10 -70l328 -246l70 11v0z" />
    <glyph glyph-name="Uacute" unicode="&#xda;" horiz-adv-x="1310" 
d="M79 541l-47 1097v-1147l1 -1l46 51v0zM851 1638l52 -1097l46 -51l2 1v1147l-50 50l-50 -50v0zM903 541l-52 1097v-1144l52 47v0zM843 416l58 25l-50 50v3v-1l-2 -40l-6 -37v0zM901 441l-58 -25l-10 -36l-14 -35l-17 -34l-20 -31l-24 -30l-27 -26l-29 -24l-31 -21l-32 -16
h1l62 -24l-25 -66l3 -1l41 21l40 26l37 30l34 34l31 38l26 40l22 43l17 45l12 46l8 48l2 45l-1 2l-48 -49v0zM139 416l-57 25l-49 49l-2 -2l3 -45l7 -48l13 -46l17 -45l22 -43l26 -40l30 -38l34 -34l38 -30l270 12l-38 2l-37 6l-36 10l-35 13l-34 17l-31 21l-30 24l-26 26
l-24 30l-21 31l-17 34l-13 35l-10 36v0zM82 441l57 -25l-6 37l-2 38l-49 -50v0zM851 494v-3l50 -50l48 49l-46 51l-52 -47v0zM131 491v2l-52 48l-46 -51l49 -49l49 50v0zM131 491h1v1147l-50 50l-50 -50l47 -1097l52 -48v-2v0zM639 163l-2 -1l3 1h-1v0zM637 162l-2 -1
l-22 -67l64 -21l25 66l-62 24l-3 -1v0zM637 162l-35 -13l-36 -10l-38 -6l-37 -2l-270 -12l40 -26l43 -22l45 -17l46 -13l48 -7l48 -3l48 3l47 7l47 13l42 16l2 3l-64 21l22 67l2 1v0zM287 1936l70 -11l328 246l10 70l-70 10l-328 -245l-10 -70v0z" />
    <glyph glyph-name="Ucircumflex" unicode="&#xdb;" horiz-adv-x="1310" 
d="M79 541l-47 1097v-1147l1 -1l46 51v0zM851 1638l52 -1097l46 -51l2 1v1147l-50 50l-50 -50v0zM903 541l-52 1097v-1144l52 47v0zM843 416l58 25l-50 50v3v-1l-2 -40l-6 -37v0zM901 441l-58 -25l-10 -36l-14 -35l-17 -34l-20 -31l-24 -30l-27 -26l-29 -24l-31 -21l-32 -16
h1l62 -24l-25 -66l3 -1l41 21l40 26l37 30l34 34l31 38l26 40l22 43l17 45l12 46l8 48l2 45l-1 2l-48 -49v0zM139 416l-57 25l-49 49l-2 -2l3 -45l7 -48l13 -46l17 -45l22 -43l26 -40l30 -38l34 -34l38 -30l270 12l-38 2l-37 6l-36 10l-35 13l-34 17l-31 21l-30 24l-26 26
l-24 30l-21 31l-17 34l-13 35l-10 36v0zM82 441l57 -25l-6 37l-2 38l-49 -50v0zM514 2162l17 -3l-10 -70l-30 -22l298 -223l70 10l-10 70l-328 245l-7 -7v0zM514 2162l-53 8l-328 -246l-10 -70l70 -10l298 223l-30 23l-10 10l63 62v0zM514 2162l-63 -62l10 -10l30 -23l30 22
l10 70l-17 3v0zM851 494v-3l50 -50l48 49l-46 51l-52 -47v0zM131 491v2l-52 48l-46 -51l49 -49l49 50v0zM131 491h1v1147l-50 50l-50 -50l47 -1097l52 -48v-2v0zM639 163l-2 -1l3 1h-1v0zM637 162l-2 -1l-22 -67l64 -21l25 66l-62 24l-3 -1v0zM637 162l-35 -13l-36 -10
l-38 -6l-37 -2l-270 -12l40 -26l43 -22l45 -17l46 -13l48 -7l48 -3l48 3l47 7l47 13l42 16l2 3l-64 21l22 67l2 1v0z" />
    <glyph glyph-name="Udieresis" unicode="&#xdc;" horiz-adv-x="1310" 
d="M79 541l-47 1097v-1147l1 -1l46 51v0zM851 1638l52 -1097l46 -51l2 1v1147l-50 50l-50 -50v0zM903 541l-52 1097v-1144l52 47v0zM82 2015l49 -48v-2l50 50h-99v0zM131 1967l-49 48v-48h49v0zM902 2015l48 -48v-2l50 50h-98v0zM950 1967l-48 48v-48h48v0zM900 1917l-48 48
v2l-50 -50l50 -50l49 49l-1 1v0zM852 1965l48 -48v48h-48v0zM81 1917l-49 48v2l-49 -50l49 -50l49 49v1v0zM32 1965l49 -48v48h-49v0zM843 416l58 25l-50 50v3v-1l-2 -40l-6 -37v0zM901 441l-58 -25l-10 -36l-14 -35l-17 -34l-20 -31l-24 -30l-27 -26l-29 -24l-31 -21
l-32 -16h1l62 -24l-25 -66l3 -1l41 21l40 26l37 30l34 34l31 38l26 40l22 43l17 45l12 46l8 48l2 45l-1 2l-48 -49v0zM139 416l-57 25l-49 49l-2 -2l3 -45l7 -48l13 -46l17 -45l22 -43l26 -40l30 -38l34 -34l38 -30l270 12l-38 2l-37 6l-36 10l-35 13l-34 17l-31 21l-30 24
l-26 26l-24 30l-21 31l-17 34l-13 35l-10 36v0zM82 441l57 -25l-6 37l-2 38l-49 -50v0zM902 1967h-2v-2h2v2v0zM900 1967h-48v-2h48v2v0zM900 1967h2v48h-2v-48v0zM82 1967h-1v-2h1v2v0zM81 1967h-49v-2h49v2v0zM81 1967h1v48h-1v-48v0zM902 1965h-2v-48l1 -1l1 1v48v0z
M902 1965h48v2h-48v-2v0zM82 1965h-1v-48v-1l1 1v48v0zM82 1965h49v2h-49v-2v0zM902 1965v-48l-1 -1l49 -49v98h-48v0zM900 1967v48h2l-50 50v-98h48v0zM82 1965v-48l-1 -1l50 -49v98h-49v0zM81 1967v48h1l-50 50v-98h49v0zM901 1916l-49 -49h98l-49 49v0zM81 1916l-49 -49
h99l-50 49v0zM851 494v-3l50 -50l48 49l-46 51l-52 -47v0zM131 491v2l-52 48l-46 -51l49 -49l49 50v0zM131 491h1v1147l-50 50l-50 -50l47 -1097l52 -48v-2v0zM639 163l-2 -1l3 1h-1v0zM637 162l-2 -1l-22 -67l64 -21l25 66l-62 24l-3 -1v0zM637 162l-35 -13l-36 -10l-38 -6
l-37 -2l-270 -12l40 -26l43 -22l45 -17l46 -13l48 -7l48 -3l48 3l47 7l47 13l42 16l2 3l-64 21l22 67l2 1v0zM902 2015h98l-50 50h-98l50 -50v0zM82 2015h99l-50 50h-99l50 -50v0zM852 1967v98l-50 -50v-98l50 50v0zM32 1967v98l-49 -50v-98l49 50v0zM950 1965v-98l50 50v98
l-50 -50v0zM131 1965v-98l50 50v98l-50 -50v0z" />
    <glyph glyph-name="Yacute" unicode="&#xdd;" horiz-adv-x="1474" 
d="M573 869l-7 36l-36 -61l4 -14l39 39v0zM82 2015l49 -48v-2l50 50h-99v0zM131 1967l-49 48v-48h49v0zM1065 2015l49 -48v-2l50 50h-99v0zM1114 1967l-49 48v-48h49v0zM1064 1917l-49 48v2l-50 -50l50 -50l50 49l-1 1v0zM1015 1965l49 -48v48h-49v0zM81 1917l-49 48v2
l-49 -50l49 -50l49 49v1v0zM32 1965l49 -48v48h-49v0zM547 776l-17 17l-7 12v-805l50 -50l50 50l-76 776v0zM530 793l17 -17l-6 24l-11 -7v0zM547 776l76 -776v805l-7 -12l-69 -17v0zM1065 1967h-1v-2h1v2v0zM1064 1967h-49v-2h49v2v0zM1064 1967h1v48h-1v-48v0zM82 1967h-1
v-2h1v2v0zM81 1967h-49v-2h49v2v0zM81 1967h1v48h-1v-48v0zM1065 1965h-1v-48l1 -1v1v48v0zM1065 1965h49v2h-49v-2v0zM82 1965h-1v-48v-1l1 1v48v0zM82 1965h49v2h-49v-2v0zM1065 1965v-48v-1l49 -49v98h-49v0zM1064 1967v48h1l-50 50v-98h49v0zM82 1965v-48l-1 -1l50 -49
v98h-49v0zM81 1967v48h1l-50 50v-98h49v0zM1065 1916l-50 -49h99l-49 49v0zM81 1916l-49 -49h99l-50 49v0zM566 905l33 -43l17 -18l-43 72l-7 -11v0zM566 905l-527 707l484 -807v14l11 11l-4 14l36 61v0zM566 905l7 11l-449 748l-68 17l-17 -69l527 -707v0zM573 916l43 -72
l-12 -7l19 -18v-14l484 807l-17 69l-68 -17l-449 -748v0zM589 852l15 -15l12 7l-17 18l-10 -10v0zM589 852l-16 17l-39 -39l6 -27l49 49v0zM604 837l-15 15l-49 -49l1 -3l63 37v0zM534 830l-11 -11v-14l7 -12l10 10l-6 27v0zM604 837l-63 -37l6 -24l69 17l7 12v14l-19 18v0z
M589 852l10 10l-33 43l7 -36l16 -17v0zM540 803l-10 -10l11 7l-1 3v0zM1065 2015h99l-50 50h-99l50 -50v0zM82 2015h99l-50 50h-99l50 -50v0zM1015 1967v98l-50 -50v-98l50 50v0zM32 1967v98l-49 -50v-98l49 50v0zM1114 1965v-98l50 50v98l-50 -50v0zM131 1965v-98l50 50v98
l-50 -50v0z" />
    <glyph glyph-name="germandbls" unicode="&#xdf;" horiz-adv-x="1310" 
d="M901 787l-60 10l5 -20l3 -20l2 -23v0v3l50 50v0zM602 1034l53 -2l31 -1l30 -5l30 -8l29 -11l13 -7l7 5l31 25l27 27l25 31l22 33l18 36l14 36l10 39l6 39l2 36l-2 3l-45 -50l-59 -8l-7 -28l-11 -27l-13 -26l-15 -24l-19 -23l-20 -20l-23 -19l-24 -15l-26 -14l-27 -10
l-28 -7l-29 -5v0zM655 1032l-53 2l-32 -2l-47 -52l53 -47l30 1l-49 36l42 57l25 4l31 1v0zM841 1371l62 -11l45 -50l2 3l-1 28l-5 31l-8 29l-11 29l-14 28l-17 26l-19 24l-22 22l-24 19l-26 17l-28 14l-29 11l-30 8l-30 5l-29 2l-1 -1l49 -49l-50 -50h-2l22 -1l21 -3l19 -6
l19 -7l19 -9l17 -12l16 -12l14 -15l13 -16l11 -17l10 -18l7 -19v0zM903 1360l-62 11l5 -20l3 -20l1 -21l1 3l52 47v0zM141 1371l-59 -11l49 -50l1 21l4 20l5 20v0zM82 1360l59 11l7 19l10 18l11 17l13 16l14 15l16 13l17 11l18 9l19 7l20 6l21 3l20 1l-50 50l49 49l-2 1
l-28 -2l-30 -5l-30 -8l-29 -11l-28 -14l-26 -17l-24 -19l-22 -22l-19 -24l-17 -26l-14 -27l-11 -30l-8 -29l-5 -31l-2 -28l2 -2l49 49v0zM327 1506l-20 -1l21 1h-1v0zM844 1252l59 8l-52 47l-1 3l-1 -29l-5 -29v0zM132 0l-53 1260l-46 51l-1 -1v-1310l50 -50l50 50v0z
M79 1260l53 -1260v1310h-1v-3l-52 -47v0zM903 377v310l-52 47v-404l52 47v0zM903 687v-310l46 -51l2 1v410l-2 1l-46 -51v0zM841 266l60 11l-50 50v3v0l-2 -23l-3 -21l-5 -20v0zM901 277l-60 -11l-7 -19l-10 -18l-11 -17l-13 -16l-14 -14l-16 -13l-17 -11l-19 -10l-19 -7
l-19 -5l-21 -4l-23 -1l-47 -52l52 -48l29 2l30 5l30 8l29 11l28 14l26 17l24 19l22 22l19 24l17 26l14 28l11 29l8 30l5 30l1 28l-1 2l-48 -49v0zM656 1605l-51 -46l47 -53h1h2l50 50l-49 49v0zM326 1605l51 -46l-47 -53h-2h325h-1l-47 53l51 46l-1 1h-328l-1 -1v0z
M326 1605l-49 -49l50 -50h1h2l47 53l-51 46v0zM131 1310l-49 50l-49 -49l46 -51l52 47v3v0zM948 1310l-45 50l-52 -47l-1 -3l1 -3l52 -47l45 50v0zM788 1000l-13 7l-29 11l-30 8l-30 5l-31 1l-31 -1l-25 -4l-42 -57l49 -36l6 1l39 6l38 10l37 14l36 18l26 17v0zM788 1000
l-26 -17l-36 -18l-37 -14l-38 -10l-39 -6l-6 -1l8 -6l20 3l21 2l220 1l-22 22l-24 20l-26 17l-15 7v0zM949 738l-48 49l-50 -50v-3l52 -47l46 51v0zM949 738l1 1l-1 29l-5 30l-8 30l-11 29l-14 28l-17 25l-19 24l-220 -1l20 -2l21 -3l19 -5l19 -8l19 -9l17 -11l16 -13
l14 -14l13 -16l11 -18l10 -18l7 -19l60 -10l48 -49v0zM851 330v-3l50 -50l48 49l-46 51l-52 -47v0z" />
    <glyph glyph-name="agrave" unicode="&#xe0;" 
d="M737 132l-50 391v-391h50v0zM136 286l-56 -14l67 -22l1 -2l-7 18l-5 20v0zM80 272l56 14l-4 21l-1 20l1 20l4 21l5 20l7 19l10 18l11 17l13 16l14 15l16 13l17 11l18 9l20 7l19 6l21 3l20 1l-50 50l49 49l-2 1l-28 -2l-30 -5l-30 -8l-29 -11l-28 -14l-26 -17l-24 -19
l-22 -22l-19 -24l-17 -26l-14 -27l-11 -30l-8 -30l-5 -30l-2 -31l2 -31l5 -30l8 -30l10 -27l3 -1l21 64v0zM677 879l60 -10l48 -49l2 1l-2 29l-5 30l-8 30l-11 29l-14 28l-17 25l-19 25l-22 21l-24 20l-26 17l-28 14l-29 11l-29 8l-31 5l-29 1l-1 -1l49 -48l-50 -50h-3l1 -1
l22 -1l21 -3l20 -5l19 -8l18 -9l17 -11l16 -13l14 -14l13 -16l11 -18l10 -18l7 -19v0zM737 869l-60 10l5 -20l4 -20l1 -22v2l50 50v0zM737 623l2 146l-52 47v1v-194h50v0zM739 769l-2 -146l50 -50v246l-2 1l-46 -51v0zM327 523l-20 -1l21 1h-1v0zM196 182l-71 1l-66 25
l-1 -4l13 -25l17 -26l19 -24l22 -22l24 -19l26 -17l28 -14l29 -11l30 -8l30 -5l28 -2l2 2l-49 49l50 49l-20 1l-21 4l-20 5l-18 7l-19 10l-17 11l-16 13v0zM125 183l71 -1l-14 14l-13 16l-11 17l-10 19l1 -3l-24 -62v0zM377 79l310 3v50h-360v-1h3l47 -52v0zM687 82l-310 -3
l-51 -46l1 -1h410l50 50h-100v0zM492 1113l-51 -46l47 -52h3l50 50l-49 48v0zM492 1113l-1 2h-409l-50 -50l50 -50h406l-47 52l51 46v0zM785 820l-48 49l-50 -50v-2v-1l52 -47l46 51v0zM687 623h-360l-1 -1l51 -46l-47 -53h-2h359v100v0zM326 622l-49 -49l50 -50h1h2l47 53
l-51 46v0zM687 523h50l50 50l-50 50h-50v-100v0zM148 248l-1 2l-67 22l-21 -64l66 -25l24 62l-1 3v0zM687 132v-50h100l-50 50h-50v0zM327 131l-50 -49l49 -49l51 46l-47 52h-3v0zM787 573l-50 -50h-50l50 -391l50 -50v491v0zM613 1444l-10 70l-328 246l-70 -10l10 -70
l328 -246l70 10v0z" />
    <glyph glyph-name="aacute" unicode="&#xe1;" 
d="M737 132l-50 391v-391h50v0zM136 286l-56 -14l67 -22l1 -2l-7 18l-5 20v0zM80 272l56 14l-4 21l-1 20l1 20l4 21l5 20l7 19l10 18l11 17l13 16l14 15l16 13l17 11l18 9l20 7l19 6l21 3l20 1l-50 50l49 49l-2 1l-28 -2l-30 -5l-30 -8l-29 -11l-28 -14l-26 -17l-24 -19
l-22 -22l-19 -24l-17 -26l-14 -27l-11 -30l-8 -30l-5 -30l-2 -31l2 -31l5 -30l8 -30l10 -27l3 -1l21 64v0zM677 879l60 -10l48 -49l2 1l-2 29l-5 30l-8 30l-11 29l-14 28l-17 25l-19 25l-22 21l-24 20l-26 17l-28 14l-29 11l-29 8l-31 5l-29 1l-1 -1l49 -48l-50 -50h-3l1 -1
l22 -1l21 -3l20 -5l19 -8l18 -9l17 -11l16 -13l14 -14l13 -16l11 -18l10 -18l7 -19v0zM737 869l-60 10l5 -20l4 -20l1 -22v2l50 50v0zM737 623l2 146l-52 47v1v-194h50v0zM739 769l-2 -146l50 -50v246l-2 1l-46 -51v0zM327 523l-20 -1l21 1h-1v0zM196 182l-71 1l-66 25
l-1 -4l13 -25l17 -26l19 -24l22 -22l24 -19l26 -17l28 -14l29 -11l30 -8l30 -5l28 -2l2 2l-49 49l50 49l-20 1l-21 4l-20 5l-18 7l-19 10l-17 11l-16 13v0zM125 183l71 -1l-14 14l-13 16l-11 17l-10 19l1 -3l-24 -62v0zM377 79l310 3v50h-360v-1h3l47 -52v0zM687 82l-310 -3
l-51 -46l1 -1h410l50 50h-100v0zM492 1113l-51 -46l47 -52h3l50 50l-49 48v0zM492 1113l-1 2h-409l-50 -50l50 -50h406l-47 52l51 46v0zM785 820l-48 49l-50 -50v-2v-1l52 -47l46 51v0zM687 623h-360l-1 -1l51 -46l-47 -53h-2h359v100v0zM326 622l-49 -49l50 -50h1h2l47 53
l-51 46v0zM687 523h50l50 50l-50 50h-50v-100v0zM148 248l-1 2l-67 22l-21 -64l66 -25l24 62l-1 3v0zM687 132v-50h100l-50 50h-50v0zM327 131l-50 -49l49 -49l51 46l-47 52h-3v0zM787 573l-50 -50h-50l50 -391l50 -50v491v0zM205 1444l70 -10l328 246l10 70l-70 10
l-328 -246l-10 -70v0z" />
    <glyph glyph-name="acircumflex" unicode="&#xe2;" 
d="M737 132l-50 391v-391h50v0zM136 286l-56 -14l67 -22l1 -2l-7 18l-5 20v0zM80 272l56 14l-4 21l-1 20l1 20l4 21l5 20l7 19l10 18l11 17l13 16l14 15l16 13l17 11l18 9l20 7l19 6l21 3l20 1l-50 50l49 49l-2 1l-28 -2l-30 -5l-30 -8l-29 -11l-28 -14l-26 -17l-24 -19
l-22 -22l-19 -24l-17 -26l-14 -27l-11 -30l-8 -30l-5 -30l-2 -31l2 -31l5 -30l8 -30l10 -27l3 -1l21 64v0zM677 879l60 -10l48 -49l2 1l-2 29l-5 30l-8 30l-11 29l-14 28l-17 25l-19 25l-22 21l-24 20l-26 17l-28 14l-29 11l-29 8l-31 5l-29 1l-1 -1l49 -48l-50 -50h-3l1 -1
l22 -1l21 -3l20 -5l19 -8l18 -9l17 -11l16 -13l14 -14l13 -16l11 -18l10 -18l7 -19v0zM737 869l-60 10l5 -20l4 -20l1 -22v2l50 50v0zM737 623l2 146l-52 47v1v-194h50v0zM739 769l-2 -146l50 -50v246l-2 1l-46 -51v0zM327 523l-20 -1l21 1h-1v0zM196 182l-71 1l-66 25
l-1 -4l13 -25l17 -26l19 -24l22 -22l24 -19l26 -17l28 -14l29 -11l30 -8l30 -5l28 -2l2 2l-49 49l50 49l-20 1l-21 4l-20 5l-18 7l-19 10l-17 11l-16 13v0zM125 183l71 -1l-14 14l-13 16l-11 17l-10 19l1 -3l-24 -62v0zM377 79l310 3v50h-360v-1h3l47 -52v0zM687 82l-310 -3
l-51 -46l1 -1h410l50 50h-100v0zM441 1659l-4 21l-70 -14l-163 -246l14 -70l69 14l122 184l-42 62l74 49v0zM441 1656l10 -46l-30 -44l194 -146l-164 246l-10 -10v0zM441 1656v3l-74 -49l14 -14l60 60v0zM441 1656l-60 -60l40 -30l30 44l-10 46v0zM421 1566l-40 30l-14 14
l42 -62l12 18v0zM409 1548l122 -184l70 -14l14 70l-194 146l-12 -18v0zM492 1113l-51 -46l47 -52h3l50 50l-49 48v0zM492 1113l-1 2h-409l-50 -50l50 -50h406l-47 52l51 46v0zM785 820l-48 49l-50 -50v-2v-1l52 -47l46 51v0zM687 623h-360l-1 -1l51 -46l-47 -53h-2h359v100
v0zM326 622l-49 -49l50 -50h1h2l47 53l-51 46v0zM687 523h50l50 50l-50 50h-50v-100v0zM148 248l-1 2l-67 22l-21 -64l66 -25l24 62l-1 3v0zM687 132v-50h100l-50 50h-50v0zM327 131l-50 -49l49 -49l51 46l-47 52h-3v0zM787 573l-50 -50h-50l50 -391l50 -50v491v0z" />
    <glyph glyph-name="atilde" unicode="&#xe3;" 
d="M737 132l-50 391v-391h50v0zM136 286l-56 -14l67 -22l1 -2l-7 18l-5 20v0zM80 272l56 14l-4 21l-1 20l1 20l4 21l5 20l7 19l10 18l11 17l13 16l14 15l16 13l17 11l18 9l20 7l19 6l21 3l20 1l-50 50l49 49l-2 1l-28 -2l-30 -5l-30 -8l-29 -11l-28 -14l-26 -17l-24 -19
l-22 -22l-19 -24l-17 -26l-14 -27l-11 -30l-8 -30l-5 -30l-2 -31l2 -31l5 -30l8 -30l10 -27l3 -1l21 64v0zM677 879l60 -10l48 -49l2 1l-2 29l-5 30l-8 30l-11 29l-14 28l-17 25l-19 25l-22 21l-24 20l-26 17l-28 14l-29 11l-29 8l-31 5l-29 1l-1 -1l49 -48l-50 -50h-3l1 -1
l22 -1l21 -3l20 -5l19 -8l18 -9l17 -11l16 -13l14 -14l13 -16l11 -18l10 -18l7 -19v0zM737 869l-60 10l5 -20l4 -20l1 -22v2l50 50v0zM737 623l2 146l-52 47v1v-194h50v0zM739 769l-2 -146l50 -50v246l-2 1l-46 -51v0zM327 523l-20 -1l21 1h-1v0zM196 182l-71 1l-66 25
l-1 -4l13 -25l17 -26l19 -24l22 -22l24 -19l26 -17l28 -14l29 -11l30 -8l30 -5l28 -2l2 2l-49 49l50 49l-20 1l-21 4l-20 5l-18 7l-19 10l-17 11l-16 13v0zM125 183l71 -1l-14 14l-13 16l-11 17l-10 19l1 -3l-24 -62v0zM377 79l310 3v50h-360v-1h3l47 -52v0zM687 82l-310 -3
l-51 -46l1 -1h410l50 50h-100v0zM442 1511l-70 -4l4 -70l70 3l-4 71v0zM442 1511l4 -71l-70 -3v0l20 -18l23 -17l26 -15l27 -12l28 -9l29 -7l29 -2h29l30 2l29 7l28 9l27 12l25 15l24 17l20 18l-207 19l-19 2l-18 4l-18 6l-18 8l-16 9l-15 12l-16 14h-1v0zM442 1511v0
l-20 18l-23 17l-26 15l-27 12l-28 9l-29 6l-29 3h-30l-29 -3l-29 -6l-28 -9l-27 -12l-25 -15l-24 -17l-20 -18l207 -19l19 -2l18 -4l18 -6l18 -8l16 -9l15 -12l16 -14h1l-4 70l70 4v0zM492 1113l-51 -46l47 -52h3l50 50l-49 48v0zM492 1113l-1 2h-409l-50 -50l50 -50h406
l-47 52l51 46v0zM785 820l-48 49l-50 -50v-2v-1l52 -47l46 51v0zM687 623h-360l-1 -1l51 -46l-47 -53h-2h359v100v0zM326 622l-49 -49l50 -50h1h2l47 53l-51 46v0zM687 523h50l50 50l-50 50h-50v-100v0zM148 248l-1 2l-67 22l-21 -64l66 -25l24 62l-1 3v0zM687 132v-50h100
l-50 50h-50v0zM327 131l-50 -49l49 -49l51 46l-47 52h-3v0zM787 573l-50 -50h-50l50 -391l50 -50v491v0zM255 1492l-207 19l-4 -71l71 -3l16 14l15 12l17 9l17 8l18 6l19 4l19 2h19v0zM563 1456l207 -19l4 70l-71 4l-16 -14l-15 -12l-17 -9l-17 -8l-18 -6l-19 -4l-19 -2h-19
v0z" />
    <glyph glyph-name="adieresis" unicode="&#xe4;" 
d="M737 132l-50 391v-391h50v0zM136 286l-56 -14l67 -22l1 -2l-7 18l-5 20v0zM80 272l56 14l-4 21l-1 20l1 20l4 21l5 20l7 19l10 18l11 17l13 16l14 15l16 13l17 11l18 9l20 7l19 6l21 3l20 1l-50 50l49 49l-2 1l-28 -2l-30 -5l-30 -8l-29 -11l-28 -14l-26 -17l-24 -19
l-22 -22l-19 -24l-17 -26l-14 -27l-11 -30l-8 -30l-5 -30l-2 -31l2 -31l5 -30l8 -30l10 -27l3 -1l21 64v0zM677 879l60 -10l48 -49l2 1l-2 29l-5 30l-8 30l-11 29l-14 28l-17 25l-19 25l-22 21l-24 20l-26 17l-28 14l-29 11l-29 8l-31 5l-29 1l-1 -1l49 -48l-50 -50h-3l1 -1
l22 -1l21 -3l20 -5l19 -8l18 -9l17 -11l16 -13l14 -14l13 -16l11 -18l10 -18l7 -19v0zM737 869l-60 10l5 -20l4 -20l1 -22v2l50 50v0zM164 1523l49 -48v-2l50 50h-99v0zM213 1475l-49 48v-48h49v0zM656 1523l48 -48v-2l50 50h-98v0zM704 1475l-48 48v-48h48v0zM654 1425
l-48 48v2l-50 -50l50 -50l49 49l-1 1v0zM606 1473l48 -48v48h-48v0zM163 1425l-49 48v2l-50 -50l50 -50l49 49v1v0zM114 1473l49 -48v48h-49v0zM737 623l2 146l-52 47v1v-194h50v0zM739 769l-2 -146l50 -50v246l-2 1l-46 -51v0zM327 523l-20 -1l21 1h-1v0zM196 182l-71 1
l-66 25l-1 -4l13 -25l17 -26l19 -24l22 -22l24 -19l26 -17l28 -14l29 -11l30 -8l30 -5l28 -2l2 2l-49 49l50 49l-20 1l-21 4l-20 5l-18 7l-19 10l-17 11l-16 13v0zM125 183l71 -1l-14 14l-13 16l-11 17l-10 19l1 -3l-24 -62v0zM377 79l310 3v50h-360v-1h3l47 -52v0zM687 82
l-310 -3l-51 -46l1 -1h410l50 50h-100v0zM656 1475h-2v-2h2v2v0zM654 1475h-48v-2h48v2v0zM654 1475h2v48h-2v-48v0zM164 1475h-1v-2h1v2v0zM163 1475h-49v-2h49v2v0zM163 1475h1v48h-1v-48v0zM656 1473h-2v-48l1 -1l1 1v48v0zM656 1473h48v2h-48v-2v0zM164 1473h-1v-48v-1
l1 1v48v0zM164 1473h49v2h-49v-2v0zM656 1473v-48l-1 -1l49 -49v98h-48v0zM654 1475v48h2l-50 50v-98h48v0zM164 1473v-48l-1 -1l50 -49v98h-49v0zM163 1475v48h1l-50 50v-98h49v0zM655 1424l-49 -49h98l-49 49v0zM163 1424l-49 -49h99l-50 49v0zM492 1113l-51 -46l47 -52h3
l50 50l-49 48v0zM492 1113l-1 2h-409l-50 -50l50 -50h406l-47 52l51 46v0zM785 820l-48 49l-50 -50v-2v-1l52 -47l46 51v0zM687 623h-360l-1 -1l51 -46l-47 -53h-2h359v100v0zM326 622l-49 -49l50 -50h1h2l47 53l-51 46v0zM687 523h50l50 50l-50 50h-50v-100v0zM148 248
l-1 2l-67 22l-21 -64l66 -25l24 62l-1 3v0zM687 132v-50h100l-50 50h-50v0zM327 131l-50 -49l49 -49l51 46l-47 52h-3v0zM656 1523h98l-50 50h-98l50 -50v0zM164 1523h99l-50 50h-99l50 -50v0zM606 1475v98l-50 -50v-98l50 50v0zM114 1475v98l-50 -50v-98l50 50v0zM704 1473
v-98l50 50v98l-50 -50v0zM213 1473v-98l50 50v98l-50 -50v0zM787 573l-50 -50h-50l50 -391l50 -50v491v0z" />
    <glyph glyph-name="aring" unicode="&#xe5;" 
d="M737 132l-50 391v-391h50v0zM136 286l-56 -14l67 -22l1 -2l-7 18l-5 20v0zM80 272l56 14l-4 21l-1 20l1 20l4 21l5 20l7 19l10 18l11 17l13 16l14 15l16 13l17 11l18 9l20 7l19 6l21 3l20 1l-50 50l49 49l-2 1l-28 -2l-30 -5l-30 -8l-29 -11l-28 -14l-26 -17l-24 -19
l-22 -22l-19 -24l-17 -26l-14 -27l-11 -30l-8 -30l-5 -30l-2 -31l2 -31l5 -30l8 -30l10 -27l3 -1l21 64v0zM677 879l60 -10l48 -49l2 1l-2 29l-5 30l-8 30l-11 29l-14 28l-17 25l-19 25l-22 21l-24 20l-26 17l-28 14l-29 11l-29 8l-31 5l-29 1l-1 -1l49 -48l-50 -50h-3l1 -1
l22 -1l21 -3l20 -5l19 -8l18 -9l17 -11l16 -13l14 -14l13 -16l11 -18l10 -18l7 -19v0zM737 869l-60 10l5 -20l4 -20l1 -22v2l50 50v0zM595 1617l62 -11l46 -50l2 2l-2 29l-5 30l-8 30l-11 29l-14 28l-17 26l-19 24l-220 -2l20 -1l21 -4l19 -5l20 -7l18 -10l17 -11l16 -13
l15 -14l12 -16l12 -17l9 -18l7 -19v0zM657 1606l-62 11l5 -21l4 -20l1 -20v2l52 48v0zM651 1503l6 3l-52 48v2l-1 -21l-4 -20l-5 -20l-7 -19l1 3l62 24v0zM657 1506l-6 -3l26 -67l3 2l10 27l8 29l5 31l2 29l-2 2l-46 -50v0zM665 1408l-49 1l-29 65l1 2l-9 -18l-12 -17
l-12 -16l-15 -15l-16 -12l-17 -12l-18 -9l-19 -7l-20 -6l-21 -3l-20 -1l220 -2l19 24l17 26v0zM616 1409l49 -1l13 25l-1 3l-61 -27v0zM191 1356h71l-71 4v-4v0zM262 1356h-71l20 -20l24 -19l26 -17l28 -14l29 -11l30 -8l30 -5l31 -2l31 2l30 5l30 8l29 11l28 14l26 17
l24 19l22 22l-220 2l-20 1l-21 3l-20 6l-19 7l-18 9l-17 12l-16 12l-14 15l1 -2l-3 -67v0zM737 623l2 146l-52 47v1v-194h50v0zM739 769l-2 -146l50 -50v246l-2 1l-46 -51v0zM327 523l-20 -1l21 1h-1v0zM196 182l-71 1l-66 25l-1 -4l13 -25l17 -26l19 -24l22 -22l24 -19
l26 -17l28 -14l29 -11l30 -8l30 -5l28 -2l2 2l-49 49l50 49l-20 1l-21 4l-20 5l-18 7l-19 10l-17 11l-16 13v0zM125 183l71 -1l-14 14l-13 16l-11 17l-10 19l1 -3l-24 -62v0zM377 79l310 3v50h-360v-1h3l47 -52v0zM687 82l-310 -3l-51 -46l1 -1h410l50 50h-100v0zM319 1835
l61 -27l-29 -65l-2 -1l19 5l21 4l20 1l220 2l-22 22l-24 19l-26 17l-28 14l-29 11l-30 8l-30 5l-31 2l-31 -2l-30 -5l-28 -7l-1 -3v0zM319 1835l-4 1l-26 -10l-28 -14l-26 -17l-24 -19l-22 -22l-19 -24l-17 -26l-14 -28l-11 -29l-8 -30l-5 -30l-2 -31l2 -31l5 -31l8 -29
l11 -29l14 -28l17 -26l17 -22h4v67h71v0l-12 14l-11 17l-9 18l-7 19l-5 20l-4 20l-1 21l1 20l4 20l5 21l7 19l9 18l12 17l12 16l15 14l16 13l17 11l18 10l18 6h-1l-59 30l32 64v0zM319 1835l-32 -64l59 -30l3 1l2 1l29 65l-61 27v0zM349 1742l-3 -1h1l2 1v0zM703 1556
l-46 50l-52 -48v-2v-2l52 -48l46 50v0zM588 1476l-1 -2l29 -65l61 27l-26 67l-62 -24l-1 -3v0zM262 1427v0l2 -2l-2 2v0zM264 1425l-2 2h-71v-67l71 -4l3 67l-1 2v0zM492 1113l-51 -46l47 -52h3l50 50l-49 48v0zM492 1113l-1 2h-409l-50 -50l50 -50h406l-47 52l51 46v0z
M785 820l-48 49l-50 -50v-2v-1l52 -47l46 51v0zM687 623h-360l-1 -1l51 -46l-47 -53h-2h359v100v0zM326 622l-49 -49l50 -50h1h2l47 53l-51 46v0zM687 523h50l50 50l-50 50h-50v-100v0zM148 248l-1 2l-67 22l-21 -64l66 -25l24 62l-1 3v0zM687 132v-50h100l-50 50h-50v0z
M327 131l-50 -49l49 -49l51 46l-47 52h-3v0zM787 573l-50 -50h-50l50 -391l50 -50v491v0z" />
    <glyph glyph-name="ae" unicode="&#xe6;" horiz-adv-x="1802" 
d="M737 132l6 21l-17 26l-14 28l-11 29l-8 30l-5 30l-1 28l47 53l3 146h-50v-391h50v0zM136 286l-56 -14l67 -22l1 -2l-7 18l-5 20v0zM80 272l56 14l-4 21l-1 20l1 20l4 21l5 20l7 19l10 18l11 17l13 16l14 15l16 13l17 11l18 9l20 7l19 6l21 3l20 1l-50 50l49 49l-2 1
l-28 -2l-30 -5l-30 -8l-29 -11l-28 -14l-26 -17l-24 -19l-22 -22l-19 -24l-17 -26l-14 -27l-11 -30l-8 -30l-5 -30l-2 -31l2 -31l5 -30l8 -30l10 -27l3 -1l21 64v0zM1336 795l56 -8l49 -49l1 1l-2 37l-6 39l-10 38l-15 37l-18 35l-21 34l-25 30l-28 28l-253 -3l29 -1l29 -5
l28 -7l27 -11l26 -13l25 -16l22 -18l21 -21l18 -22l16 -24l13 -27l11 -27l7 -27v0zM1392 787l-56 8l5 -29l1 -31v2l50 50v0zM780 880l-43 -11l48 -49l2 1l-2 29l-5 30v0zM737 869l43 11l-8 30l-11 29l-7 13l-17 -27l-18 -35l-14 -37l-6 -22l38 38v0zM687 739l52 30l-45 40
l-5 -33l-2 -37v0zM739 769l-52 -30l47 -52l53 47v1v84l-2 1l-46 -51v0zM1392 623l3 64l-53 47v1v-112h50v0zM1395 687l-3 -64v-100l50 50v164l-1 1l-46 -51v0zM787 623l-53 64l-47 52l2 37l5 33l-7 7v1v-194h50h50v0zM734 687l53 -64v112v-1l-53 -47v0zM737 523l-3 -146
l53 -47v-2v195h-50v0zM327 523l-20 -1l21 1h-1v0zM196 182l-71 1l-66 25l-1 -4l13 -25l17 -26l19 -24l22 -22l24 -19l26 -17l28 -14l29 -11l30 -8l30 -5l28 -2l2 2l-49 49l50 49l-20 1l-21 4l-20 5l-18 7l-19 10l-17 11l-16 13v0zM125 183l71 -1l-14 14l-13 16l-11 17
l-10 19l1 -3l-24 -62v0zM377 79l310 3v50h-360v-1h3l47 -52v0zM687 82l-310 -3l-51 -46l1 -1h410l50 50h-100v0zM492 1113l-51 -46l47 -52h3l50 50l-49 48v0zM492 1113l49 -48l-50 -50h-3l1 -1l22 -1l21 -3l20 -5l19 -8l18 -9l17 -11l16 -13l14 -14l13 -16l11 -18l10 -18
l7 -19l5 -20l4 -20l1 -22v2l12 12l6 22l14 37l18 35l17 27l-7 15l-17 25l-19 25l-22 21l-24 20l-26 17l-28 14l-29 11l-29 8l-31 5l-29 1l-1 -1v0zM492 1113l-1 2h-409l-50 -50l50 -50h406l-47 52l51 46v0zM912 1079l64 -20l-22 -67l-3 -2l27 11l29 7l28 5l29 1l253 3
l-31 25l-33 22l-35 18l-37 14l-38 10l-39 6l-40 2l-39 -2l-39 -6l-38 -10l-35 -13l-1 -4v0zM912 1079l-4 2l-33 -17l-33 -22l-30 -25l-28 -28l-25 -30l-5 -7l7 -13l11 -29l8 -30l5 -30l2 -29l-2 -1l2 -1v-84l1 31l5 29l7 27l11 28l13 26l16 24l18 22l21 21l22 18l25 16
l23 12v0l-62 24l25 66v0zM912 1079l-25 -66l62 -24l2 1l3 2l22 67l-64 20v0zM951 990l-2 -1v0l2 1v0zM785 820l-48 49l-38 -38l-4 -16l-1 -6l45 -40l46 51v0zM699 831l-12 -12v-2v-1l7 -7l1 6l4 16v0zM1441 738l-49 49l-50 -50v-2v-1l53 -47l46 51v0zM1342 623h-555v-50v-50
h605l-50 50v50v0zM787 623h-50l50 -50v50v0zM687 623h-360l-1 -1l51 -46l-47 -53h-2h359v50v50v0zM1342 623v-50l50 -50v100h-50v0zM687 623v-50l50 50h-50v0zM326 622l-49 -49l50 -50h1h2l47 53l-51 46v0zM687 523h50l-50 50v-50v0zM787 328v2l-53 47l-47 -53l1 -28l5 -30
l8 -30l11 -29l14 -28l17 -26l20 -24l21 -22l3 -1v222v0zM148 248l-1 2l-67 22l-21 -64l66 -25l24 62l-1 3v0zM982 131h3l47 -52l-51 -46l2 -1h491l50 50l-50 50h-491l-1 -1v0zM982 131l-20 1l-20 4l-20 5l-19 7l-18 10l-18 11l-16 13l-14 14l-13 16l-11 17l-9 18l-8 19
l-5 20l-3 21l-1 21v-222l22 -18l25 -17l28 -14l29 -11l30 -8l30 -5l29 -2l1 2l-48 49l49 49v0zM787 106l-3 1l-21 22l-20 24l-6 -21l50 -50v24v0zM982 131l-49 -49l48 -49l51 46l-47 52h-3v0zM787 523v50l-50 -50h50v0zM687 132v-50h100l-50 50h-50v0zM327 131l-50 -49
l49 -49l51 46l-47 52h-3v0zM787 573l-50 50l-50 -50l50 -50l50 50v0z" />
    <glyph glyph-name="ccedilla" unicode="&#xe7;" horiz-adv-x="983" 
d="M428 128l-98 3l31 -35l2 4l65 28v0zM141 879l-59 -10l49 -50l1 20l4 20l5 20v0zM82 869l59 10l7 19l10 18l11 18l13 16l14 14l16 13l17 11l18 9l19 8l20 5l21 3l22 1l-2 1l-50 50l49 48l-1 1l-29 -1l-31 -5l-29 -8l-29 -11l-28 -14l-26 -17l-24 -20l-22 -21l-19 -25
l-17 -25l-14 -28l-11 -29l-8 -30l-5 -30l-2 -29l2 -1l49 49v0zM327 1015l2 -1l1 1h-3v0zM79 377v392l-46 51l-1 -1v-492l1 -1l46 51v0zM79 769v-392l52 -47v-3h1v492h-1v-3l-52 -47v0zM141 266l-59 11l-49 49l-2 -2l2 -28l5 -30l8 -30l11 -29l14 -28l17 -26l19 -24l22 -22
l24 -19l26 -17l28 -14l29 -11l30 -8l30 -5l28 -2l2 2l-49 49l50 49l-20 1l-21 4l-20 5l-18 7l-19 10l-17 11l-16 13l-14 14l-13 16l-11 17l-10 18l-7 19v0zM82 277l59 -11l-5 20l-4 21l-1 20l-49 -50v0zM326 1113l51 -46l-47 -52h325l50 50l-50 50h-328l-1 -2v0zM326 1113
l-49 -48l50 -50h3l47 52l-51 46v0zM131 819l-49 50l-49 -49l46 -51l52 47v3v0zM131 327v3l-52 47l-46 -51l49 -49l49 50v0zM327 131h3l98 -3l28 -65l-13 -31h212l50 50l-50 50h-328v-1v0zM327 131l-50 -49l49 -49l15 14l20 49l-31 35h-3v0zM361 96l16 -17l-36 -32l-6 -15
h108l13 31l-28 65l-65 -28l-2 -4v0zM326 33l1 -1h8l6 15l-15 -14v0zM443 32h-108l-136 -341l28 -65l65 28l151 378v0zM341 47l36 32l-16 17l-20 -49v0z" />
    <glyph glyph-name="egrave" unicode="&#xe8;" 
d="M137 795l-55 -8l49 -50l2 29l4 29v0zM82 787l55 8l8 27l10 27l14 27l15 24l19 22l20 21l23 18l24 16l24 12v0l-63 24l26 66l-4 2l-33 -17l-33 -22l-31 -25l-28 -28l-25 -30l-21 -34l-18 -35l-14 -37l-10 -38l-7 -39l-2 -37l2 -1l49 49v0zM681 795l56 -8l48 -49l2 1l-2 37
l-7 39l-10 38l-14 37l-18 35l-21 34l-25 30l-28 28l-253 -3l29 -1l29 -5l28 -7l27 -11l26 -13l24 -16l23 -18l20 -21l19 -22l15 -24l14 -27l10 -27l8 -27v0zM737 787l-56 8l4 -29l2 -31v2l50 50v0zM737 623l2 64l-52 47v1v-112h50v0zM739 687l-2 -64v-100l50 50v164l-2 1
l-46 -51v0zM132 623l-53 64l-46 51l-1 -1v-164l50 50h50v0zM79 687l53 -64v114h-1v-3l-52 -47v0zM79 377l3 146l-50 50v-246l1 -1l46 51v0zM82 523l-3 -146l52 -47v-3h1v196h-50v0zM141 266l-59 11l-49 49l-2 -2l2 -28l5 -30l8 -30l11 -29l14 -28l17 -26l19 -24l22 -22
l24 -19l26 -17l28 -14l29 -11l30 -8l30 -5l28 -2l2 2l-49 49l50 49l-20 1l-21 4l-20 5l-18 7l-19 10l-17 11l-16 13l-14 14l-13 16l-11 17l-10 18l-7 19v0zM82 277l59 -11l-5 20l-4 21l-1 20l-49 -50v0zM257 1079l63 -20l-22 -67l-2 -2l27 11l28 7l29 5l29 1l253 3l-31 25
l-33 22l-35 18l-37 14l-39 10l-38 6l-40 2l-40 -2l-38 -6l-39 -10l-34 -13l-1 -4v0zM257 1079l-26 -66l63 -24l2 1l2 2l22 67l-63 20v0zM296 990l-2 -1v0l2 1v0zM785 738l-48 49l-50 -50v-2v-1l52 -47l46 51v0zM131 737l-49 50l-49 -49l46 -51l52 47v3v0zM687 623h-555v-100
h605l-50 50v50v0zM132 623h-50l-50 -50l50 -50h50v100v0zM687 623v-50l50 -50v100h-50v0zM131 327v3l-52 47l-46 -51l49 -49l49 50v0zM327 131h3l47 -52l-51 -46l1 -1h492l50 50l-50 50h-492v-1v0zM327 131l-50 -49l49 -49l51 46l-47 52h-3v0zM531 1444l-10 70l-328 246
l-70 -10l10 -70l328 -246l70 10v0z" />
    <glyph glyph-name="eacute" unicode="&#xe9;" 
d="M137 795l-55 -8l49 -50l2 29l4 29v0zM82 787l55 8l8 27l10 27l14 27l15 24l19 22l20 21l23 18l24 16l24 12v0l-63 24l26 66l-4 2l-33 -17l-33 -22l-31 -25l-28 -28l-25 -30l-21 -34l-18 -35l-14 -37l-10 -38l-7 -39l-2 -37l2 -1l49 49v0zM681 795l56 -8l48 -49l2 1l-2 37
l-7 39l-10 38l-14 37l-18 35l-21 34l-25 30l-28 28l-253 -3l29 -1l29 -5l28 -7l27 -11l26 -13l24 -16l23 -18l20 -21l19 -22l15 -24l14 -27l10 -27l8 -27v0zM737 787l-56 8l4 -29l2 -31v2l50 50v0zM737 623l2 64l-52 47v1v-112h50v0zM739 687l-2 -64v-100l50 50v164l-2 1
l-46 -51v0zM132 623l-53 64l-46 51l-1 -1v-164l50 50h50v0zM79 687l53 -64v114h-1v-3l-52 -47v0zM79 377l3 146l-50 50v-246l1 -1l46 51v0zM82 523l-3 -146l52 -47v-3h1v196h-50v0zM141 266l-59 11l-49 49l-2 -2l2 -28l5 -30l8 -30l11 -29l14 -28l17 -26l19 -24l22 -22
l24 -19l26 -17l28 -14l29 -11l30 -8l30 -5l28 -2l2 2l-49 49l50 49l-20 1l-21 4l-20 5l-18 7l-19 10l-17 11l-16 13l-14 14l-13 16l-11 17l-10 18l-7 19v0zM82 277l59 -11l-5 20l-4 21l-1 20l-49 -50v0zM257 1079l63 -20l-22 -67l-2 -2l27 11l28 7l29 5l29 1l253 3l-31 25
l-33 22l-35 18l-37 14l-39 10l-38 6l-40 2l-40 -2l-38 -6l-39 -10l-34 -13l-1 -4v0zM257 1079l-26 -66l63 -24l2 1l2 2l22 67l-63 20v0zM296 990l-2 -1v0l2 1v0zM785 738l-48 49l-50 -50v-2v-1l52 -47l46 51v0zM131 737l-49 50l-49 -49l46 -51l52 47v3v0zM687 623h-555v-100
h605l-50 50v50v0zM132 623h-50l-50 -50l50 -50h50v100v0zM687 623v-50l50 -50v100h-50v0zM131 327v3l-52 47l-46 -51l49 -49l49 50v0zM327 131h3l47 -52l-51 -46l1 -1h492l50 50l-50 50h-492v-1v0zM327 131l-50 -49l49 -49l51 46l-47 52h-3v0zM287 1444l70 -10l328 246
l10 70l-70 10l-328 -246l-10 -70v0z" />
    <glyph glyph-name="ecircumflex" unicode="&#xea;" 
d="M137 795l-55 -8l49 -50l2 29l4 29v0zM82 787l55 8l8 27l10 27l14 27l15 24l19 22l20 21l23 18l24 16l24 12v0l-63 24l26 66l-4 2l-33 -17l-33 -22l-31 -25l-28 -28l-25 -30l-21 -34l-18 -35l-14 -37l-10 -38l-7 -39l-2 -37l2 -1l49 49v0zM681 795l56 -8l48 -49l2 1l-2 37
l-7 39l-10 38l-14 37l-18 35l-21 34l-25 30l-28 28l-253 -3l29 -1l29 -5l28 -7l27 -11l26 -13l24 -16l23 -18l20 -21l19 -22l15 -24l14 -27l10 -27l8 -27v0zM737 787l-56 8l4 -29l2 -31v2l50 50v0zM737 623l2 64l-52 47v1v-112h50v0zM739 687l-2 -64v-100l50 50v164l-2 1
l-46 -51v0zM132 623l-53 64l-46 51l-1 -1v-164l50 50h50v0zM79 687l53 -64v114h-1v-3l-52 -47v0zM79 377l3 146l-50 50v-246l1 -1l46 51v0zM82 523l-3 -146l52 -47v-3h1v196h-50v0zM141 266l-59 11l-49 49l-2 -2l2 -28l5 -30l8 -30l11 -29l14 -28l17 -26l19 -24l22 -22
l24 -19l26 -17l28 -14l29 -11l30 -8l30 -5l28 -2l2 2l-49 49l50 49l-20 1l-21 4l-20 5l-18 7l-19 10l-17 11l-16 13l-14 14l-13 16l-11 17l-10 18l-7 19v0zM82 277l59 -11l-5 20l-4 21l-1 20l-49 -50v0zM441 1659l-4 21l-70 -14l-163 -246l14 -70l69 14l122 184l-42 62
l74 49v0zM441 1656l10 -46l-30 -44l194 -146l-164 246l-10 -10v0zM441 1656v3l-74 -49l14 -14l60 60v0zM441 1656l-60 -60l40 -30l30 44l-10 46v0zM421 1566l-40 30l-14 14l42 -62l12 18v0zM409 1548l122 -184l70 -14l14 70l-194 146l-12 -18v0zM257 1079l63 -20l-22 -67
l-2 -2l27 11l28 7l29 5l29 1l253 3l-31 25l-33 22l-35 18l-37 14l-39 10l-38 6l-40 2l-40 -2l-38 -6l-39 -10l-34 -13l-1 -4v0zM257 1079l-26 -66l63 -24l2 1l2 2l22 67l-63 20v0zM296 990l-2 -1v0l2 1v0zM785 738l-48 49l-50 -50v-2v-1l52 -47l46 51v0zM131 737l-49 50
l-49 -49l46 -51l52 47v3v0zM687 623h-555v-100h605l-50 50v50v0zM132 623h-50l-50 -50l50 -50h50v100v0zM687 623v-50l50 -50v100h-50v0zM131 327v3l-52 47l-46 -51l49 -49l49 50v0zM327 131h3l47 -52l-51 -46l1 -1h492l50 50l-50 50h-492v-1v0zM327 131l-50 -49l49 -49
l51 46l-47 52h-3v0z" />
    <glyph glyph-name="edieresis" unicode="&#xeb;" 
d="M137 795l-55 -8l49 -50l2 29l4 29v0zM82 787l55 8l8 27l10 27l14 27l15 24l19 22l20 21l23 18l24 16l24 12v0l-63 24l26 66l-4 2l-33 -17l-33 -22l-31 -25l-28 -28l-25 -30l-21 -34l-18 -35l-14 -37l-10 -38l-7 -39l-2 -37l2 -1l49 49v0zM681 795l56 -8l48 -49l2 1l-2 37
l-7 39l-10 38l-14 37l-18 35l-21 34l-25 30l-28 28l-253 -3l29 -1l29 -5l28 -7l27 -11l26 -13l24 -16l23 -18l20 -21l19 -22l15 -24l14 -27l10 -27l8 -27v0zM737 787l-56 8l4 -29l2 -31v2l50 50v0zM164 1523l49 -48v-2l50 50h-99v0zM213 1475l-49 48v-48h49v0zM656 1523
l48 -48v-2l50 50h-98v0zM704 1475l-48 48v-48h48v0zM654 1425l-48 48v2l-50 -50l50 -50l49 49l-1 1v0zM606 1473l48 -48v48h-48v0zM163 1425l-49 48v2l-50 -50l50 -50l49 49v1v0zM114 1473l49 -48v48h-49v0zM737 623l2 64l-52 47v1v-112h50v0zM739 687l-2 -64v-100l50 50
v164l-2 1l-46 -51v0zM132 623l-53 64l-46 51l-1 -1v-164l50 50h50v0zM79 687l53 -64v114h-1v-3l-52 -47v0zM79 377l3 146l-50 50v-246l1 -1l46 51v0zM82 523l-3 -146l52 -47v-3h1v196h-50v0zM141 266l-59 11l-49 49l-2 -2l2 -28l5 -30l8 -30l11 -29l14 -28l17 -26l19 -24
l22 -22l24 -19l26 -17l28 -14l29 -11l30 -8l30 -5l28 -2l2 2l-49 49l50 49l-20 1l-21 4l-20 5l-18 7l-19 10l-17 11l-16 13l-14 14l-13 16l-11 17l-10 18l-7 19v0zM82 277l59 -11l-5 20l-4 21l-1 20l-49 -50v0zM656 1475h-2v-2h2v2v0zM654 1475h-48v-2h48v2v0zM654 1475h2
v48h-2v-48v0zM164 1475h-1v-2h1v2v0zM163 1475h-49v-2h49v2v0zM163 1475h1v48h-1v-48v0zM656 1473h-2v-48l1 -1l1 1v48v0zM656 1473h48v2h-48v-2v0zM164 1473h-1v-48v-1l1 1v48v0zM164 1473h49v2h-49v-2v0zM656 1473v-48l-1 -1l49 -49v98h-48v0zM654 1475v48h2l-50 50v-98
h48v0zM164 1473v-48l-1 -1l50 -49v98h-49v0zM163 1475v48h1l-50 50v-98h49v0zM655 1424l-49 -49h98l-49 49v0zM163 1424l-49 -49h99l-50 49v0zM257 1079l63 -20l-22 -67l-2 -2l27 11l28 7l29 5l29 1l253 3l-31 25l-33 22l-35 18l-37 14l-39 10l-38 6l-40 2l-40 -2l-38 -6
l-39 -10l-34 -13l-1 -4v0zM257 1079l-26 -66l63 -24l2 1l2 2l22 67l-63 20v0zM296 990l-2 -1v0l2 1v0zM785 738l-48 49l-50 -50v-2v-1l52 -47l46 51v0zM131 737l-49 50l-49 -49l46 -51l52 47v3v0zM687 623h-555v-100h605l-50 50v50v0zM132 623h-50l-50 -50l50 -50h50v100v0z
M687 623v-50l50 -50v100h-50v0zM131 327v3l-52 47l-46 -51l49 -49l49 50v0zM327 131h3l47 -52l-51 -46l1 -1h492l50 50l-50 50h-492v-1v0zM327 131l-50 -49l49 -49l51 46l-47 52h-3v0zM656 1523h98l-50 50h-98l50 -50v0zM164 1523h99l-50 50h-99l50 -50v0zM606 1475v98
l-50 -50v-98l50 50v0zM114 1475v98l-50 -50v-98l50 50v0zM704 1473v-98l50 50v98l-50 -50v0zM213 1473v-98l50 50v98l-50 -50v0z" />
    <glyph glyph-name="igrave" unicode="&#xec;" horiz-adv-x="491" 
d="M82 -50l50 50v1146l-50 50l-50 -50v-1146l50 -50v0zM285 1444l-10 70l-327 246l-70 -10l11 -70l326 -246l70 10v0z" />
    <glyph glyph-name="iacute" unicode="&#xed;" horiz-adv-x="491" 
d="M82 -50l50 50v1146l-50 50l-50 -50v-1146l50 -50v0zM-122 1444l70 -10l327 246l10 70l-70 10l-326 -246l-11 -70v0z" />
    <glyph glyph-name="icircumflex" unicode="&#xee;" horiz-adv-x="491" 
d="M113 1659l-73 -49l14 -14l60 60l-1 3v0zM113 1659l-4 20l-69 -13l-163 -246l14 -69l69 13l121 184l-41 62l73 49v0zM114 1656l9 -46l-29 -44l193 -146l-164 246l-9 -10v0zM114 1656l-60 -60l40 -30l29 44l-9 46v0zM94 1566l-40 30l-14 14l41 -62l13 18v0zM81 1548
l123 -184l69 -14l14 70l-193 146l-13 -18v0zM82 -50l50 50v1146l-50 50l-50 -50v-1146l50 -50v0z" />
    <glyph glyph-name="idieresis" unicode="&#xef;" horiz-adv-x="491" 
d="M-114 1475l-49 48v-48h49v0zM328 1523l48 -48v-2l50 50h-98v0zM376 1475l-48 48v-48h48v0zM326 1425l-48 48v2l-50 -50l50 -50l49 49l-1 1v0zM278 1473l48 -48v48h-48v0zM-164 1425l-49 48v2l-50 -50l50 -50l50 49l-1 1v0zM-213 1473l49 -48v48h-49v0zM328 1475h-2v-2h2
v2v0zM326 1475h-48v-2h48v2v0zM326 1475h2v48h-2v-48v0zM-163 1475h-1v-2h1v2v0zM-164 1475h-49v-2h49v2v0zM-164 1475h1v48h-1v-48v0zM328 1473h-2v-48l1 -1l1 1v48v0zM328 1473h48v2h-48v-2v0zM-163 1473h-1v-48l1 -1v1v48v0zM-163 1473h49v2h-49v-2v0zM328 1473v-48
l-1 -1l49 -49v98h-48v0zM326 1475v48h2l-50 50v-98h48v0zM-163 1473v-48v-1l49 -49v98h-49v0zM-164 1475v48h1l-50 50v-98h49v0zM327 1424l-49 -49h98l-49 49v0zM-163 1424l-50 -49h99l-49 49v0zM328 1523h98l-50 50h-98l50 -50v0zM-163 1523h99l-50 50h-99l50 -50v0z
M278 1475v98l-50 -50v-98l50 50v0zM-213 1475v98l-50 -50v-98l50 50v0zM376 1473v-98l50 50v98l-50 -50v0zM-114 1473v-98l50 50v98l-50 -50v0zM82 -50l50 50v1146l-50 50l-50 -50v-1146l50 -50v0zM-114 1475v-2l50 50h-99l49 -48v0z" />
    <glyph glyph-name="ntilde" unicode="&#xf1;" 
d="M737 869l-60 10l5 -20l4 -20l1 -22v2l50 50v0zM441 1067l-309 -2v-50h356l-47 52v0zM132 1065l309 2l51 46l-1 2h-409l-50 -50h100v0zM132 0l-50 1015l-50 50v-1065l50 -50l50 50v0zM82 1015l50 -1015v1015h-50v0zM787 0l-48 769l-52 47v1v-817l50 -50l50 50v0zM739 769
l48 -769v819l-2 1l-46 -51v0zM492 1113l-51 -46l47 -52h3l50 50l-49 48v0zM492 1113l49 -48l-50 -50h-3l1 -1l22 -1l21 -3l20 -5l19 -8l18 -9l17 -11l16 -13l14 -14l13 -16l11 -18l10 -18l7 -19l60 -10l48 -49l2 1l-2 29l-5 30l-8 30l-11 29l-14 28l-17 25l-19 25l-22 21
l-24 20l-26 17l-28 14l-29 11l-29 8l-31 5l-29 1l-1 -1v0zM785 820l-48 49l-50 -50v-2v-1l52 -47l46 51v0zM132 1015v50h-100l50 -50h50v0zM-33 1511l206 -19l19 -2l18 -4l18 -6l18 -8l16 -9l16 -12l16 -14l-4 70l71 4l-20 18l-24 17l-26 15l-27 12l-28 9l-29 6l-29 3h-30
l-29 -3l-29 -6l-28 -9l-27 -12l-25 -15l-23 -17l-20 -18v0zM173 1492l-206 19l-4 -71l70 -3l16 14l15 12l17 9l17 8l18 6l19 4l19 2h19v0zM364 1440l-70 -3l20 -18l23 -17l26 -15l27 -12l28 -9l29 -7l29 -2h30l29 2l29 7l28 9l27 12l25 15l24 17l20 18l-207 19l-19 2l-18 4
l-18 6l-18 8l-16 9l-15 12l-16 14l3 -71v0zM364 1440l-3 71l-71 -4l4 -70l70 3v0zM481 1456l207 -19l4 70l-71 4l-16 -14l-15 -12l-17 -9l-17 -8l-18 -6l-19 -4l-18 -2h-20v0z" />
    <glyph glyph-name="ograve" unicode="&#xf2;" 
d="M82 787l55 8l8 27l10 27l14 27l15 24l19 22l20 21l23 18l24 16l24 12v0l-63 24l26 66l-4 2l-33 -17l-33 -22l-31 -25l-28 -28l-25 -30l-21 -34l-18 -35l-14 -37l-10 -38l-7 -39l-2 -37l2 -1l49 49v0zM681 795l56 -8l48 -49l2 1l-2 37l-7 39l-10 38l-14 37l-18 35l-21 34
l-25 30l-28 28l-253 -3l29 -1l29 -5l28 -7l27 -11l26 -13l24 -16l23 -18l20 -21l19 -22l15 -24l14 -27l10 -27l8 -27v0zM737 787l-56 8l4 -29l2 -31v2l50 50v0zM739 459v228l-52 47v1v-325v2l52 47v0zM739 687v-228l46 -51l2 1v328l-2 1l-46 -51v0zM79 459v228l-46 51l-1 -1
v-328l1 -1l46 51v0zM79 687v-228l52 -47v-3h1v328h-1v-3l-52 -47v0zM681 351l56 8l-50 50v1l-2 -30l-4 -29v0zM737 359l-56 -8l-8 -28l-10 -27l-14 -26l-15 -24l-19 -23l-20 -20l-23 -19l-24 -15l-24 -13v0l63 -24l-25 -66l3 -1l33 17l33 21l31 25l28 28l25 31l21 33l18 35
l14 37l10 39l7 38l2 37l-2 2l-48 -49v0zM137 351l-55 8l-49 49l-2 -2l2 -37l7 -38l10 -39l14 -37l18 -35l21 -33l25 -31l28 -28l253 3l-29 2l-29 4l-28 8l-27 10l-26 14l-24 15l-23 19l-20 20l-19 23l-15 24l-14 26l-10 27l-8 28v0zM82 359l55 -8l-4 29l-2 29l-49 -50v0z
M257 1079l63 -20l-22 -67l-2 -2l27 11l28 7l29 5l29 1l253 3l-31 25l-33 22l-35 18l-37 14l-39 10l-38 6l-40 2l-40 -2l-38 -6l-39 -10l-34 -13l-1 -4v0zM257 1079l-26 -66l63 -24l2 1l2 2l22 67l-63 20v0zM296 990l-2 -1v0l2 1v0zM785 738l-48 49l-50 -50v-2v-1l52 -47
l46 51v0zM131 737l-49 50l-49 -49l46 -51l52 47v3v0zM131 737l2 29l4 29l-55 -8l49 -50v0zM687 410v-1l50 -50l48 49l-46 51l-52 -47v-2v0zM131 409v3l-52 47l-46 -51l49 -49l49 50v0zM524 156l-2 -1l2 1v0v0zM522 155l-2 -1l-22 -67l64 -21l25 66l-63 24l-2 -1v0zM522 155
l-27 -10l-28 -8l-29 -4l-29 -2l-253 -3l31 -25l33 -21l35 -18l37 -14l39 -10l38 -7l40 -2l40 2l38 7l39 10l34 13l2 3l-64 21l22 67l2 1v0zM531 1444l-10 70l-328 246l-70 -10l10 -70l328 -246l70 10v0z" />
    <glyph glyph-name="oacute" unicode="&#xf3;" 
d="M82 787l55 8l8 27l10 27l14 27l15 24l19 22l20 21l23 18l24 16l24 12v0l-63 24l26 66l-4 2l-33 -17l-33 -22l-31 -25l-28 -28l-25 -30l-21 -34l-18 -35l-14 -37l-10 -38l-7 -39l-2 -37l2 -1l49 49v0zM681 795l56 -8l48 -49l2 1l-2 37l-7 39l-10 38l-14 37l-18 35l-21 34
l-25 30l-28 28l-253 -3l29 -1l29 -5l28 -7l27 -11l26 -13l24 -16l23 -18l20 -21l19 -22l15 -24l14 -27l10 -27l8 -27v0zM737 787l-56 8l4 -29l2 -31v2l50 50v0zM739 459v228l-52 47v1v-325v2l52 47v0zM739 687v-228l46 -51l2 1v328l-2 1l-46 -51v0zM79 459v228l-46 51l-1 -1
v-328l1 -1l46 51v0zM79 687v-228l52 -47v-3h1v328h-1v-3l-52 -47v0zM681 351l56 8l-50 50v1l-2 -30l-4 -29v0zM737 359l-56 -8l-8 -28l-10 -27l-14 -26l-15 -24l-19 -23l-20 -20l-23 -19l-24 -15l-24 -13v0l63 -24l-25 -66l3 -1l33 17l33 21l31 25l28 28l25 31l21 33l18 35
l14 37l10 39l7 38l2 37l-2 2l-48 -49v0zM137 351l-55 8l-49 49l-2 -2l2 -37l7 -38l10 -39l14 -37l18 -35l21 -33l25 -31l28 -28l253 3l-29 2l-29 4l-28 8l-27 10l-26 14l-24 15l-23 19l-20 20l-19 23l-15 24l-14 26l-10 27l-8 28v0zM82 359l55 -8l-4 29l-2 29l-49 -50v0z
M257 1079l63 -20l-22 -67l-2 -2l27 11l28 7l29 5l29 1l253 3l-31 25l-33 22l-35 18l-37 14l-39 10l-38 6l-40 2l-40 -2l-38 -6l-39 -10l-34 -13l-1 -4v0zM257 1079l-26 -66l63 -24l2 1l2 2l22 67l-63 20v0zM296 990l-2 -1v0l2 1v0zM785 738l-48 49l-50 -50v-2v-1l52 -47
l46 51v0zM131 737l-49 50l-49 -49l46 -51l52 47v3v0zM131 737l2 29l4 29l-55 -8l49 -50v0zM687 410v-1l50 -50l48 49l-46 51l-52 -47v-2v0zM131 409v3l-52 47l-46 -51l49 -49l49 50v0zM524 156l-2 -1l2 1v0v0zM522 155l-2 -1l-22 -67l64 -21l25 66l-63 24l-2 -1v0zM522 155
l-27 -10l-28 -8l-29 -4l-29 -2l-253 -3l31 -25l33 -21l35 -18l37 -14l39 -10l38 -7l40 -2l40 2l38 7l39 10l34 13l2 3l-64 21l22 67l2 1v0zM123 1444l70 -10l328 246l10 70l-70 10l-328 -246l-10 -70v0z" />
    <glyph glyph-name="ocircumflex" unicode="&#xf4;" 
d="M82 787l55 8l8 27l10 27l14 27l15 24l19 22l20 21l23 18l24 16l24 12v0l-63 24l26 66l-4 2l-33 -17l-33 -22l-31 -25l-28 -28l-25 -30l-21 -34l-18 -35l-14 -37l-10 -38l-7 -39l-2 -37l2 -1l49 49v0zM681 795l56 -8l48 -49l2 1l-2 37l-7 39l-10 38l-14 37l-18 35l-21 34
l-25 30l-28 28l-253 -3l29 -1l29 -5l28 -7l27 -11l26 -13l24 -16l23 -18l20 -21l19 -22l15 -24l14 -27l10 -27l8 -27v0zM737 787l-56 8l4 -29l2 -31v2l50 50v0zM739 459v228l-52 47v1v-325v2l52 47v0zM739 687v-228l46 -51l2 1v328l-2 1l-46 -51v0zM79 459v228l-46 51l-1 -1
v-328l1 -1l46 51v0zM79 687v-228l52 -47v-3h1v328h-1v-3l-52 -47v0zM681 351l56 8l-50 50v1l-2 -30l-4 -29v0zM737 359l-56 -8l-8 -28l-10 -27l-14 -26l-15 -24l-19 -23l-20 -20l-23 -19l-24 -15l-24 -13v0l63 -24l-25 -66l3 -1l33 17l33 21l31 25l28 28l25 31l21 33l18 35
l14 37l10 39l7 38l2 37l-2 2l-48 -49v0zM137 351l-55 8l-49 49l-2 -2l2 -37l7 -38l10 -39l14 -37l18 -35l21 -33l25 -31l28 -28l253 3l-29 2l-29 4l-28 8l-27 10l-26 14l-24 15l-23 19l-20 20l-19 23l-15 24l-14 26l-10 27l-8 28v0zM82 359l55 -8l-4 29l-2 29l-49 -50v0z
M441 1659l-4 21l-70 -14l-163 -246l14 -70l69 14l122 184l-42 62l74 49v0zM441 1656l10 -46l-30 -44l194 -146l-164 246l-10 -10v0zM441 1656v3l-74 -49l14 -14l60 60v0zM441 1656l-60 -60l40 -30l30 44l-10 46v0zM421 1566l-40 30l-14 14l42 -62l12 18v0zM409 1548
l122 -184l70 -14l14 70l-194 146l-12 -18v0zM257 1079l63 -20l-22 -67l-2 -2l27 11l28 7l29 5l29 1l253 3l-31 25l-33 22l-35 18l-37 14l-39 10l-38 6l-40 2l-40 -2l-38 -6l-39 -10l-34 -13l-1 -4v0zM257 1079l-26 -66l63 -24l2 1l2 2l22 67l-63 20v0zM296 990l-2 -1v0l2 1
v0zM785 738l-48 49l-50 -50v-2v-1l52 -47l46 51v0zM131 737l-49 50l-49 -49l46 -51l52 47v3v0zM131 737l2 29l4 29l-55 -8l49 -50v0zM687 410v-1l50 -50l48 49l-46 51l-52 -47v-2v0zM131 409v3l-52 47l-46 -51l49 -49l49 50v0zM524 156l-2 -1l2 1v0v0zM522 155l-2 -1
l-22 -67l64 -21l25 66l-63 24l-2 -1v0zM522 155l-27 -10l-28 -8l-29 -4l-29 -2l-253 -3l31 -25l33 -21l35 -18l37 -14l39 -10l38 -7l40 -2l40 2l38 7l39 10l34 13l2 3l-64 21l22 67l2 1v0z" />
    <glyph glyph-name="otilde" unicode="&#xf5;" 
d="M82 787l55 8l8 27l10 27l14 27l15 24l19 22l20 21l23 18l24 16l24 12v0l-63 24l26 66l-4 2l-33 -17l-33 -22l-31 -25l-28 -28l-25 -30l-21 -34l-18 -35l-14 -37l-10 -38l-7 -39l-2 -37l2 -1l49 49v0zM681 795l56 -8l48 -49l2 1l-2 37l-7 39l-10 38l-14 37l-18 35l-21 34
l-25 30l-28 28l-253 -3l29 -1l29 -5l28 -7l27 -11l26 -13l24 -16l23 -18l20 -21l19 -22l15 -24l14 -27l10 -27l8 -27v0zM737 787l-56 8l4 -29l2 -31v2l50 50v0zM739 459v228l-52 47v1v-325v2l52 47v0zM739 687v-228l46 -51l2 1v328l-2 1l-46 -51v0zM79 459v228l-46 51l-1 -1
v-328l1 -1l46 51v0zM79 687v-228l52 -47v-3h1v328h-1v-3l-52 -47v0zM681 351l56 8l-50 50v1l-2 -30l-4 -29v0zM737 359l-56 -8l-8 -28l-10 -27l-14 -26l-15 -24l-19 -23l-20 -20l-23 -19l-24 -15l-24 -13v0l63 -24l-25 -66l3 -1l33 17l33 21l31 25l28 28l25 31l21 33l18 35
l14 37l10 39l7 38l2 37l-2 2l-48 -49v0zM137 351l-55 8l-49 49l-2 -2l2 -37l7 -38l10 -39l14 -37l18 -35l21 -33l25 -31l28 -28l253 3l-29 2l-29 4l-28 8l-27 10l-26 14l-24 15l-23 19l-20 20l-19 23l-15 24l-14 26l-10 27l-8 28v0zM82 359l55 -8l-4 29l-2 29l-49 -50v0z
M442 1511l-70 -4l4 -70l70 3l-4 71v0zM442 1511l4 -71l-70 -3v0l20 -18l23 -17l26 -15l27 -12l28 -9l29 -7l29 -2h29l30 2l29 7l28 9l27 12l25 15l24 17l20 18l-207 19l-19 2l-18 4l-18 6l-18 8l-16 9l-15 12l-16 14h-1v0zM442 1511v0l-20 18l-23 17l-26 15l-27 12l-28 9
l-29 6l-29 3h-30l-29 -3l-29 -6l-28 -9l-27 -12l-25 -15l-24 -17l-20 -18l207 -19l19 -2l18 -4l18 -6l18 -8l16 -9l15 -12l16 -14h1l-4 70l70 4v0zM257 1079l63 -20l-22 -67l-2 -2l27 11l28 7l29 5l29 1l253 3l-31 25l-33 22l-35 18l-37 14l-39 10l-38 6l-40 2l-40 -2
l-38 -6l-39 -10l-34 -13l-1 -4v0zM257 1079l-26 -66l63 -24l2 1l2 2l22 67l-63 20v0zM296 990l-2 -1v0l2 1v0zM785 738l-48 49l-50 -50v-2v-1l52 -47l46 51v0zM131 737l-49 50l-49 -49l46 -51l52 47v3v0zM131 737l2 29l4 29l-55 -8l49 -50v0zM687 410v-1l50 -50l48 49
l-46 51l-52 -47v-2v0zM131 409v3l-52 47l-46 -51l49 -49l49 50v0zM524 156l-2 -1l2 1v0v0zM522 155l-2 -1l-22 -67l64 -21l25 66l-63 24l-2 -1v0zM522 155l-27 -10l-28 -8l-29 -4l-29 -2l-253 -3l31 -25l33 -21l35 -18l37 -14l39 -10l38 -7l40 -2l40 2l38 7l39 10l34 13l2 3
l-64 21l22 67l2 1v0zM255 1492l-207 19l-4 -71l71 -3l16 14l15 12l17 9l17 8l18 6l19 4l19 2h19v0zM563 1456l207 -19l4 70l-71 4l-16 -14l-15 -12l-17 -9l-17 -8l-18 -6l-19 -4l-19 -2h-19v0z" />
    <glyph glyph-name="odieresis" unicode="&#xf6;" 
d="M82 787l55 8l8 27l10 27l14 27l15 24l19 22l20 21l23 18l24 16l24 12v0l-63 24l26 66l-4 2l-33 -17l-33 -22l-31 -25l-28 -28l-25 -30l-21 -34l-18 -35l-14 -37l-10 -38l-7 -39l-2 -37l2 -1l49 49v0zM681 795l56 -8l48 -49l2 1l-2 37l-7 39l-10 38l-14 37l-18 35l-21 34
l-25 30l-28 28l-253 -3l29 -1l29 -5l28 -7l27 -11l26 -13l24 -16l23 -18l20 -21l19 -22l15 -24l14 -27l10 -27l8 -27v0zM737 787l-56 8l4 -29l2 -31v2l50 50v0zM164 1523l49 -48v-2l50 50h-99v0zM213 1475l-49 48v-48h49v0zM656 1523l48 -48v-2l50 50h-98v0zM704 1475
l-48 48v-48h48v0zM654 1425l-48 48v2l-50 -50l50 -50l49 49l-1 1v0zM606 1473l48 -48v48h-48v0zM163 1425l-49 48v2l-50 -50l50 -50l49 49v1v0zM114 1473l49 -48v48h-49v0zM739 459v228l-52 47v1v-325v2l52 47v0zM739 687v-228l46 -51l2 1v328l-2 1l-46 -51v0zM79 459v228
l-46 51l-1 -1v-328l1 -1l46 51v0zM79 687v-228l52 -47v-3h1v328h-1v-3l-52 -47v0zM681 351l56 8l-50 50v1l-2 -30l-4 -29v0zM737 359l-56 -8l-8 -28l-10 -27l-14 -26l-15 -24l-19 -23l-20 -20l-23 -19l-24 -15l-24 -13v0l63 -24l-25 -66l3 -1l33 17l33 21l31 25l28 28l25 31
l21 33l18 35l14 37l10 39l7 38l2 37l-2 2l-48 -49v0zM137 351l-55 8l-49 49l-2 -2l2 -37l7 -38l10 -39l14 -37l18 -35l21 -33l25 -31l28 -28l253 3l-29 2l-29 4l-28 8l-27 10l-26 14l-24 15l-23 19l-20 20l-19 23l-15 24l-14 26l-10 27l-8 28v0zM82 359l55 -8l-4 29l-2 29
l-49 -50v0zM656 1475h-2v-2h2v2v0zM654 1475h-48v-2h48v2v0zM654 1475h2v48h-2v-48v0zM164 1475h-1v-2h1v2v0zM163 1475h-49v-2h49v2v0zM163 1475h1v48h-1v-48v0zM656 1473h-2v-48l1 -1l1 1v48v0zM656 1473h48v2h-48v-2v0zM164 1473h-1v-48v-1l1 1v48v0zM164 1473h49v2h-49
v-2v0zM656 1473v-48l-1 -1l49 -49v98h-48v0zM654 1475v48h2l-50 50v-98h48v0zM164 1473v-48l-1 -1l50 -49v98h-49v0zM163 1475v48h1l-50 50v-98h49v0zM655 1424l-49 -49h98l-49 49v0zM163 1424l-49 -49h99l-50 49v0zM257 1079l63 -20l-22 -67l-2 -2l27 11l28 7l29 5l29 1
l253 3l-31 25l-33 22l-35 18l-37 14l-39 10l-38 6l-40 2l-40 -2l-38 -6l-39 -10l-34 -13l-1 -4v0zM257 1079l-26 -66l63 -24l2 1l2 2l22 67l-63 20v0zM296 990l-2 -1v0l2 1v0zM785 738l-48 49l-50 -50v-2v-1l52 -47l46 51v0zM131 737l-49 50l-49 -49l46 -51l52 47v3v0z
M131 737l2 29l4 29l-55 -8l49 -50v0zM687 410v-1l50 -50l48 49l-46 51l-52 -47v-2v0zM131 409v3l-52 47l-46 -51l49 -49l49 50v0zM524 156l-2 -1l2 1v0v0zM522 155l-2 -1l-22 -67l64 -21l25 66l-63 24l-2 -1v0zM522 155l-27 -10l-28 -8l-29 -4l-29 -2l-253 -3l31 -25l33 -21
l35 -18l37 -14l39 -10l38 -7l40 -2l40 2l38 7l39 10l34 13l2 3l-64 21l22 67l2 1v0zM656 1523h98l-50 50h-98l50 -50v0zM164 1523h99l-50 50h-99l50 -50v0zM606 1475v98l-50 -50v-98l50 50v0zM114 1475v98l-50 -50v-98l50 50v0zM704 1473v-98l50 50v98l-50 -50v0zM213 1473
v-98l50 50v98l-50 -50v0z" />
    <glyph glyph-name="divide" unicode="&#xf7;" horiz-adv-x="1802" 
d="M785 408l-51 -31l11 -10l40 41v0zM734 377l51 31l-46 51l-52 -47v-2v-1l40 -40l7 8v0zM137 795l-55 -8l49 -50l2 29l4 29v0zM82 787l55 8l8 27l10 27l14 27l15 24l19 22l20 21l23 18l24 16l24 12v0l-63 24l26 66l-4 2l-33 -17l-33 -22l-31 -25l-28 -28l-25 -30l-21 -34
l-18 -35l-14 -37l-10 -38l-7 -39l-2 -37l2 -1l49 49v0zM695 815l42 -28l48 -49l2 1l-2 37l-7 39l-10 38l-14 37l-17 34l-18 -34l-14 -37l-10 -38v0zM737 787l-42 28l-6 -39l-2 -37l1 -1l49 49v0zM1336 795l56 -8l49 -49l1 1l-2 37l-6 39l-10 38l-15 37l-18 35l-21 34l-25 30
l-28 28l-253 -3l29 -1l29 -5l28 -7l27 -11l26 -13l25 -16l22 -18l21 -21l18 -22l16 -24l13 -27l11 -27l7 -27v0zM1392 787l-56 8l5 -29l1 -31v2l50 50v0zM1392 623l3 64l-53 47v1v-112h50v0zM1395 687l-3 -64v-100l50 50v164l-1 1l-46 -51v0zM734 687h5l-2 2l-3 -2v0z
M739 687h-5l53 -64v112v-1l-25 -22l-23 -25v0zM787 623l-53 64l-22 25l-25 22v1v-162l50 50h50v0zM79 459v228l-46 51l-1 -1v-328l1 -1l46 51v0zM79 687v-228l52 -47v-3h1v328h-1v-3l-52 -47v0zM739 459l-2 64l-50 50v-163v2l52 47v0zM737 523l2 -64l46 -51l2 1v114h-50v0z
M779 336l-42 23l-10 10l-40 -45l1 -28l5 -30l8 -30l11 -29l7 -13l17 26l18 35l14 37l10 39l1 5v0zM737 359l42 -23l-34 31l-8 -8v0zM137 351l-55 8l-49 49l-2 -2l2 -37l7 -38l10 -39l14 -37l18 -35l21 -33l25 -31l28 -28l253 3l-29 2l-29 4l-28 8l-27 10l-26 14l-24 15
l-23 19l-20 20l-19 23l-15 24l-14 26l-10 27l-8 28v0zM82 359l55 -8l-4 29l-2 29l-49 -50v0zM912 1079l64 -20l-22 -67l-3 -2l27 11l29 7l28 5l29 1l253 3l-31 25l-33 22l-35 18l-37 14l-38 10l-39 6l-40 2l-39 -2l-39 -6l-38 -10l-35 -13l-1 -4v0zM912 1079l-4 2l-33 -17
l-33 -22l-30 -25l-28 -28l-25 -30l-22 -34v-1l17 -34l14 -37l10 -38l7 -39l2 -37l-2 -1l2 -1v-2l1 31l5 29l7 27l11 28l13 26l16 24l18 22l21 21l22 18l25 16l23 12v0l-62 24l25 66v0zM257 1079l63 -20l-22 -67l-2 -2l27 11l28 7l29 5l29 1l253 3l-31 25l-33 22l-35 18
l-37 14l-39 10l-38 6l-40 2l-40 -2l-38 -6l-39 -10l-34 -13l-1 -4v0zM912 1079l-25 -66l62 -24l2 1l3 2l22 67l-64 20v0zM257 1079l-26 -66l63 -24l2 1l2 2l22 67l-63 20v0zM951 990l-2 -1v0l2 1v0zM296 990l-2 -1v0l2 1v0zM737 924l-1 1l-21 34l-25 30l-28 28l-253 -3
l29 -1l29 -5l28 -7l27 -11l26 -13l24 -16l23 -18l20 -21l19 -22l15 -24l14 -27l10 -27l8 -27l4 -29l2 -31v2l1 1l-1 1l2 37l6 39l10 38l14 37l18 34v0zM1441 738l-49 49l-50 -50v-2v-1l53 -47l46 51v0zM785 738l-48 49l-49 -49l24 -26l25 -23l25 23l23 26v0zM688 738l-1 -1
v-2v-1l25 -22l-24 26v0zM131 737l-49 50l-49 -49l46 -51l52 47v3v0zM737 689l2 -2l23 25l-25 -23v0zM737 689l-25 23l22 -25l3 2v0zM785 738l-23 -26l25 22v1v2l-2 1v0zM1342 623h-555v-100h605l-50 50v50v0zM787 623h-50l-50 -50l50 -50h50v100v0zM1342 623v-50l50 -50v100
h-50v0zM687 410l-2 -30l-4 -29l-8 -28l-10 -27l-14 -26l-15 -24l-19 -23l-20 -20l-23 -19l-24 -15l-24 -13v0l63 -24l-25 -66l3 -1l33 17l33 21l31 25l28 28l25 31l4 7l-7 13l-11 29l-8 30l-5 30l-1 28l40 45l-40 40v1v0zM131 409v3l-52 47l-46 -51l49 -49l49 50v0zM785 408
l-40 -41l34 -31l6 33l2 37l-2 2v0zM727 369l10 -10l8 8l-11 10l-7 -8v0zM779 336l-1 -5l-10 -39l-14 -37l-18 -35l-17 -26l7 -15l17 -26l20 -24l21 -22l25 -19l25 -17l28 -14l29 -11l30 -8l30 -5l29 -2l1 2l-48 49l49 49l-20 1l-20 4l-20 5l-19 7l-18 10l-18 11l-16 13
l-14 14l-13 16l-11 17l-9 18l-8 19l-5 20l-3 21l-1 23l-8 6v0zM524 156l-2 -1l2 1v0v0zM522 155l-2 -1l-22 -67l64 -21l25 66l-63 24l-2 -1v0zM522 155l-27 -10l-28 -8l-29 -4l-29 -2l-253 -3l31 -25l33 -21l35 -18l37 -14l39 -10l38 -7l40 -2l40 2l38 7l39 10l34 13l2 3
l-64 21l22 67l2 1v0zM982 131h3l47 -52l-51 -46l2 -1h491l50 50l-50 50h-491l-1 -1v0zM982 131l-49 -49l48 -49l51 46l-47 52h-3v0z" />
    </font>
</defs>
</svg>
